<?xml version="1.0" encoding="utf-8" standalone="no"?>
<!DOCTYPE svg PUBLIC "-//W3C//DTD SVG 1.1//EN"
  "http://www.w3.org/Graphics/SVG/1.1/DTD/svg11.dtd">
<svg xmlns:xlink="http://www.w3.org/1999/xlink" width="1080pt" height="576pt" viewBox="0 0 1080 576" xmlns="http://www.w3.org/2000/svg" version="1.1">
 <metadata>
  <rdf:RDF xmlns:dc="http://purl.org/dc/elements/1.1/" xmlns:cc="http://creativecommons.org/ns#" xmlns:rdf="http://www.w3.org/1999/02/22-rdf-syntax-ns#">
   <cc:Work>
    <dc:type rdf:resource="http://purl.org/dc/dcmitype/StillImage"/>
    <dc:date>2022-05-08T23:27:07.391934</dc:date>
    <dc:format>image/svg+xml</dc:format>
    <dc:creator>
     <cc:Agent>
      <dc:title>Matplotlib v3.5.1, https://matplotlib.org/</dc:title>
     </cc:Agent>
    </dc:creator>
   </cc:Work>
  </rdf:RDF>
 </metadata>
 <defs>
  <style type="text/css">*{stroke-linejoin: round; stroke-linecap: butt}</style>
 </defs>
 <g id="figure_1">
  <g id="patch_1">
   <path d="M 0 576 
L 1080 576 
L 1080 0 
L 0 0 
z
" style="fill: #ffffff"/>
  </g>
  <g id="axes_1">
   <g id="patch_2">
    <path d="M 135 504 
L 972 504 
L 972 69.12 
L 135 69.12 
z
" style="fill: #eaeaf2"/>
   </g>
   <g id="matplotlib.axis_1">
    <g id="xtick_1">
     <g id="line2d_1">
      <path d="M 173.045455 504 
L 173.045455 69.12 
" clip-path="url(#p062106dee3)" style="fill: none; stroke: #ffffff; stroke-linecap: round"/>
     </g>
     <g id="text_1">
      <!-- 0.0 -->
      <g style="fill: #262626" transform="translate(165.400455 521.373594)scale(0.11 -0.11)">
       <defs>
        <path id="ArialMT-30" d="M 266 2259 
Q 266 3072 433 3567 
Q 600 4063 929 4331 
Q 1259 4600 1759 4600 
Q 2128 4600 2406 4451 
Q 2684 4303 2865 4023 
Q 3047 3744 3150 3342 
Q 3253 2941 3253 2259 
Q 3253 1453 3087 958 
Q 2922 463 2592 192 
Q 2263 -78 1759 -78 
Q 1097 -78 719 397 
Q 266 969 266 2259 
z
M 844 2259 
Q 844 1131 1108 757 
Q 1372 384 1759 384 
Q 2147 384 2411 759 
Q 2675 1134 2675 2259 
Q 2675 3391 2411 3762 
Q 2147 4134 1753 4134 
Q 1366 4134 1134 3806 
Q 844 3388 844 2259 
z
" transform="scale(0.015625)"/>
        <path id="ArialMT-2e" d="M 581 0 
L 581 641 
L 1222 641 
L 1222 0 
L 581 0 
z
" transform="scale(0.015625)"/>
       </defs>
       <use xlink:href="#ArialMT-30"/>
       <use xlink:href="#ArialMT-2e" x="55.615234"/>
       <use xlink:href="#ArialMT-30" x="83.398438"/>
      </g>
     </g>
    </g>
    <g id="xtick_2">
     <g id="line2d_2">
      <path d="M 325.227273 504 
L 325.227273 69.12 
" clip-path="url(#p062106dee3)" style="fill: none; stroke: #ffffff; stroke-linecap: round"/>
     </g>
     <g id="text_2">
      <!-- 0.2 -->
      <g style="fill: #262626" transform="translate(317.582273 521.373594)scale(0.11 -0.11)">
       <defs>
        <path id="ArialMT-32" d="M 3222 541 
L 3222 0 
L 194 0 
Q 188 203 259 391 
Q 375 700 629 1000 
Q 884 1300 1366 1694 
Q 2113 2306 2375 2664 
Q 2638 3022 2638 3341 
Q 2638 3675 2398 3904 
Q 2159 4134 1775 4134 
Q 1369 4134 1125 3890 
Q 881 3647 878 3216 
L 300 3275 
Q 359 3922 746 4261 
Q 1134 4600 1788 4600 
Q 2447 4600 2831 4234 
Q 3216 3869 3216 3328 
Q 3216 3053 3103 2787 
Q 2991 2522 2730 2228 
Q 2469 1934 1863 1422 
Q 1356 997 1212 845 
Q 1069 694 975 541 
L 3222 541 
z
" transform="scale(0.015625)"/>
       </defs>
       <use xlink:href="#ArialMT-30"/>
       <use xlink:href="#ArialMT-2e" x="55.615234"/>
       <use xlink:href="#ArialMT-32" x="83.398438"/>
      </g>
     </g>
    </g>
    <g id="xtick_3">
     <g id="line2d_3">
      <path d="M 477.409091 504 
L 477.409091 69.12 
" clip-path="url(#p062106dee3)" style="fill: none; stroke: #ffffff; stroke-linecap: round"/>
     </g>
     <g id="text_3">
      <!-- 0.4 -->
      <g style="fill: #262626" transform="translate(469.764091 521.373594)scale(0.11 -0.11)">
       <defs>
        <path id="ArialMT-34" d="M 2069 0 
L 2069 1097 
L 81 1097 
L 81 1613 
L 2172 4581 
L 2631 4581 
L 2631 1613 
L 3250 1613 
L 3250 1097 
L 2631 1097 
L 2631 0 
L 2069 0 
z
M 2069 1613 
L 2069 3678 
L 634 1613 
L 2069 1613 
z
" transform="scale(0.015625)"/>
       </defs>
       <use xlink:href="#ArialMT-30"/>
       <use xlink:href="#ArialMT-2e" x="55.615234"/>
       <use xlink:href="#ArialMT-34" x="83.398438"/>
      </g>
     </g>
    </g>
    <g id="xtick_4">
     <g id="line2d_4">
      <path d="M 629.590909 504 
L 629.590909 69.12 
" clip-path="url(#p062106dee3)" style="fill: none; stroke: #ffffff; stroke-linecap: round"/>
     </g>
     <g id="text_4">
      <!-- 0.6 -->
      <g style="fill: #262626" transform="translate(621.945909 521.373594)scale(0.11 -0.11)">
       <defs>
        <path id="ArialMT-36" d="M 3184 3459 
L 2625 3416 
Q 2550 3747 2413 3897 
Q 2184 4138 1850 4138 
Q 1581 4138 1378 3988 
Q 1113 3794 959 3422 
Q 806 3050 800 2363 
Q 1003 2672 1297 2822 
Q 1591 2972 1913 2972 
Q 2475 2972 2870 2558 
Q 3266 2144 3266 1488 
Q 3266 1056 3080 686 
Q 2894 316 2569 119 
Q 2244 -78 1831 -78 
Q 1128 -78 684 439 
Q 241 956 241 2144 
Q 241 3472 731 4075 
Q 1159 4600 1884 4600 
Q 2425 4600 2770 4297 
Q 3116 3994 3184 3459 
z
M 888 1484 
Q 888 1194 1011 928 
Q 1134 663 1356 523 
Q 1578 384 1822 384 
Q 2178 384 2434 671 
Q 2691 959 2691 1453 
Q 2691 1928 2437 2201 
Q 2184 2475 1800 2475 
Q 1419 2475 1153 2201 
Q 888 1928 888 1484 
z
" transform="scale(0.015625)"/>
       </defs>
       <use xlink:href="#ArialMT-30"/>
       <use xlink:href="#ArialMT-2e" x="55.615234"/>
       <use xlink:href="#ArialMT-36" x="83.398438"/>
      </g>
     </g>
    </g>
    <g id="xtick_5">
     <g id="line2d_5">
      <path d="M 781.772727 504 
L 781.772727 69.12 
" clip-path="url(#p062106dee3)" style="fill: none; stroke: #ffffff; stroke-linecap: round"/>
     </g>
     <g id="text_5">
      <!-- 0.8 -->
      <g style="fill: #262626" transform="translate(774.127727 521.373594)scale(0.11 -0.11)">
       <defs>
        <path id="ArialMT-38" d="M 1131 2484 
Q 781 2613 612 2850 
Q 444 3088 444 3419 
Q 444 3919 803 4259 
Q 1163 4600 1759 4600 
Q 2359 4600 2725 4251 
Q 3091 3903 3091 3403 
Q 3091 3084 2923 2848 
Q 2756 2613 2416 2484 
Q 2838 2347 3058 2040 
Q 3278 1734 3278 1309 
Q 3278 722 2862 322 
Q 2447 -78 1769 -78 
Q 1091 -78 675 323 
Q 259 725 259 1325 
Q 259 1772 486 2073 
Q 713 2375 1131 2484 
z
M 1019 3438 
Q 1019 3113 1228 2906 
Q 1438 2700 1772 2700 
Q 2097 2700 2305 2904 
Q 2513 3109 2513 3406 
Q 2513 3716 2298 3927 
Q 2084 4138 1766 4138 
Q 1444 4138 1231 3931 
Q 1019 3725 1019 3438 
z
M 838 1322 
Q 838 1081 952 856 
Q 1066 631 1291 507 
Q 1516 384 1775 384 
Q 2178 384 2440 643 
Q 2703 903 2703 1303 
Q 2703 1709 2433 1975 
Q 2163 2241 1756 2241 
Q 1359 2241 1098 1978 
Q 838 1716 838 1322 
z
" transform="scale(0.015625)"/>
       </defs>
       <use xlink:href="#ArialMT-30"/>
       <use xlink:href="#ArialMT-2e" x="55.615234"/>
       <use xlink:href="#ArialMT-38" x="83.398438"/>
      </g>
     </g>
    </g>
    <g id="xtick_6">
     <g id="line2d_6">
      <path d="M 933.954545 504 
L 933.954545 69.12 
" clip-path="url(#p062106dee3)" style="fill: none; stroke: #ffffff; stroke-linecap: round"/>
     </g>
     <g id="text_6">
      <!-- 1.0 -->
      <g style="fill: #262626" transform="translate(926.309545 521.373594)scale(0.11 -0.11)">
       <defs>
        <path id="ArialMT-31" d="M 2384 0 
L 1822 0 
L 1822 3584 
Q 1619 3391 1289 3197 
Q 959 3003 697 2906 
L 697 3450 
Q 1169 3672 1522 3987 
Q 1875 4303 2022 4600 
L 2384 4600 
L 2384 0 
z
" transform="scale(0.015625)"/>
       </defs>
       <use xlink:href="#ArialMT-31"/>
       <use xlink:href="#ArialMT-2e" x="55.615234"/>
       <use xlink:href="#ArialMT-30" x="83.398438"/>
      </g>
     </g>
    </g>
    <g id="text_7">
     <!-- False positive heart disease rate -->
     <g style="fill: #262626" transform="translate(467.127187 536.149219)scale(0.12 -0.12)">
      <defs>
       <path id="ArialMT-46" d="M 525 0 
L 525 4581 
L 3616 4581 
L 3616 4041 
L 1131 4041 
L 1131 2622 
L 3281 2622 
L 3281 2081 
L 1131 2081 
L 1131 0 
L 525 0 
z
" transform="scale(0.015625)"/>
       <path id="ArialMT-61" d="M 2588 409 
Q 2275 144 1986 34 
Q 1697 -75 1366 -75 
Q 819 -75 525 192 
Q 231 459 231 875 
Q 231 1119 342 1320 
Q 453 1522 633 1644 
Q 813 1766 1038 1828 
Q 1203 1872 1538 1913 
Q 2219 1994 2541 2106 
Q 2544 2222 2544 2253 
Q 2544 2597 2384 2738 
Q 2169 2928 1744 2928 
Q 1347 2928 1158 2789 
Q 969 2650 878 2297 
L 328 2372 
Q 403 2725 575 2942 
Q 747 3159 1072 3276 
Q 1397 3394 1825 3394 
Q 2250 3394 2515 3294 
Q 2781 3194 2906 3042 
Q 3031 2891 3081 2659 
Q 3109 2516 3109 2141 
L 3109 1391 
Q 3109 606 3145 398 
Q 3181 191 3288 0 
L 2700 0 
Q 2613 175 2588 409 
z
M 2541 1666 
Q 2234 1541 1622 1453 
Q 1275 1403 1131 1340 
Q 988 1278 909 1158 
Q 831 1038 831 891 
Q 831 666 1001 516 
Q 1172 366 1500 366 
Q 1825 366 2078 508 
Q 2331 650 2450 897 
Q 2541 1088 2541 1459 
L 2541 1666 
z
" transform="scale(0.015625)"/>
       <path id="ArialMT-6c" d="M 409 0 
L 409 4581 
L 972 4581 
L 972 0 
L 409 0 
z
" transform="scale(0.015625)"/>
       <path id="ArialMT-73" d="M 197 991 
L 753 1078 
Q 800 744 1014 566 
Q 1228 388 1613 388 
Q 2000 388 2187 545 
Q 2375 703 2375 916 
Q 2375 1106 2209 1216 
Q 2094 1291 1634 1406 
Q 1016 1563 777 1677 
Q 538 1791 414 1992 
Q 291 2194 291 2438 
Q 291 2659 392 2848 
Q 494 3038 669 3163 
Q 800 3259 1026 3326 
Q 1253 3394 1513 3394 
Q 1903 3394 2198 3281 
Q 2494 3169 2634 2976 
Q 2775 2784 2828 2463 
L 2278 2388 
Q 2241 2644 2061 2787 
Q 1881 2931 1553 2931 
Q 1166 2931 1000 2803 
Q 834 2675 834 2503 
Q 834 2394 903 2306 
Q 972 2216 1119 2156 
Q 1203 2125 1616 2013 
Q 2213 1853 2448 1751 
Q 2684 1650 2818 1456 
Q 2953 1263 2953 975 
Q 2953 694 2789 445 
Q 2625 197 2315 61 
Q 2006 -75 1616 -75 
Q 969 -75 630 194 
Q 291 463 197 991 
z
" transform="scale(0.015625)"/>
       <path id="ArialMT-65" d="M 2694 1069 
L 3275 997 
Q 3138 488 2766 206 
Q 2394 -75 1816 -75 
Q 1088 -75 661 373 
Q 234 822 234 1631 
Q 234 2469 665 2931 
Q 1097 3394 1784 3394 
Q 2450 3394 2872 2941 
Q 3294 2488 3294 1666 
Q 3294 1616 3291 1516 
L 816 1516 
Q 847 969 1125 678 
Q 1403 388 1819 388 
Q 2128 388 2347 550 
Q 2566 713 2694 1069 
z
M 847 1978 
L 2700 1978 
Q 2663 2397 2488 2606 
Q 2219 2931 1791 2931 
Q 1403 2931 1139 2672 
Q 875 2413 847 1978 
z
" transform="scale(0.015625)"/>
       <path id="ArialMT-20" transform="scale(0.015625)"/>
       <path id="ArialMT-70" d="M 422 -1272 
L 422 3319 
L 934 3319 
L 934 2888 
Q 1116 3141 1344 3267 
Q 1572 3394 1897 3394 
Q 2322 3394 2647 3175 
Q 2972 2956 3137 2557 
Q 3303 2159 3303 1684 
Q 3303 1175 3120 767 
Q 2938 359 2589 142 
Q 2241 -75 1856 -75 
Q 1575 -75 1351 44 
Q 1128 163 984 344 
L 984 -1272 
L 422 -1272 
z
M 931 1641 
Q 931 1000 1190 694 
Q 1450 388 1819 388 
Q 2194 388 2461 705 
Q 2728 1022 2728 1688 
Q 2728 2322 2467 2637 
Q 2206 2953 1844 2953 
Q 1484 2953 1207 2617 
Q 931 2281 931 1641 
z
" transform="scale(0.015625)"/>
       <path id="ArialMT-6f" d="M 213 1659 
Q 213 2581 725 3025 
Q 1153 3394 1769 3394 
Q 2453 3394 2887 2945 
Q 3322 2497 3322 1706 
Q 3322 1066 3130 698 
Q 2938 331 2570 128 
Q 2203 -75 1769 -75 
Q 1072 -75 642 372 
Q 213 819 213 1659 
z
M 791 1659 
Q 791 1022 1069 705 
Q 1347 388 1769 388 
Q 2188 388 2466 706 
Q 2744 1025 2744 1678 
Q 2744 2294 2464 2611 
Q 2184 2928 1769 2928 
Q 1347 2928 1069 2612 
Q 791 2297 791 1659 
z
" transform="scale(0.015625)"/>
       <path id="ArialMT-69" d="M 425 3934 
L 425 4581 
L 988 4581 
L 988 3934 
L 425 3934 
z
M 425 0 
L 425 3319 
L 988 3319 
L 988 0 
L 425 0 
z
" transform="scale(0.015625)"/>
       <path id="ArialMT-74" d="M 1650 503 
L 1731 6 
Q 1494 -44 1306 -44 
Q 1000 -44 831 53 
Q 663 150 594 308 
Q 525 466 525 972 
L 525 2881 
L 113 2881 
L 113 3319 
L 525 3319 
L 525 4141 
L 1084 4478 
L 1084 3319 
L 1650 3319 
L 1650 2881 
L 1084 2881 
L 1084 941 
Q 1084 700 1114 631 
Q 1144 563 1211 522 
Q 1278 481 1403 481 
Q 1497 481 1650 503 
z
" transform="scale(0.015625)"/>
       <path id="ArialMT-76" d="M 1344 0 
L 81 3319 
L 675 3319 
L 1388 1331 
Q 1503 1009 1600 663 
Q 1675 925 1809 1294 
L 2547 3319 
L 3125 3319 
L 1869 0 
L 1344 0 
z
" transform="scale(0.015625)"/>
       <path id="ArialMT-68" d="M 422 0 
L 422 4581 
L 984 4581 
L 984 2938 
Q 1378 3394 1978 3394 
Q 2347 3394 2619 3248 
Q 2891 3103 3008 2847 
Q 3125 2591 3125 2103 
L 3125 0 
L 2563 0 
L 2563 2103 
Q 2563 2525 2380 2717 
Q 2197 2909 1863 2909 
Q 1613 2909 1392 2779 
Q 1172 2650 1078 2428 
Q 984 2206 984 1816 
L 984 0 
L 422 0 
z
" transform="scale(0.015625)"/>
       <path id="ArialMT-72" d="M 416 0 
L 416 3319 
L 922 3319 
L 922 2816 
Q 1116 3169 1280 3281 
Q 1444 3394 1641 3394 
Q 1925 3394 2219 3213 
L 2025 2691 
Q 1819 2813 1613 2813 
Q 1428 2813 1281 2702 
Q 1134 2591 1072 2394 
Q 978 2094 978 1738 
L 978 0 
L 416 0 
z
" transform="scale(0.015625)"/>
       <path id="ArialMT-64" d="M 2575 0 
L 2575 419 
Q 2259 -75 1647 -75 
Q 1250 -75 917 144 
Q 584 363 401 755 
Q 219 1147 219 1656 
Q 219 2153 384 2558 
Q 550 2963 881 3178 
Q 1213 3394 1622 3394 
Q 1922 3394 2156 3267 
Q 2391 3141 2538 2938 
L 2538 4581 
L 3097 4581 
L 3097 0 
L 2575 0 
z
M 797 1656 
Q 797 1019 1065 703 
Q 1334 388 1700 388 
Q 2069 388 2326 689 
Q 2584 991 2584 1609 
Q 2584 2291 2321 2609 
Q 2059 2928 1675 2928 
Q 1300 2928 1048 2622 
Q 797 2316 797 1656 
z
" transform="scale(0.015625)"/>
      </defs>
      <use xlink:href="#ArialMT-46"/>
      <use xlink:href="#ArialMT-61" x="61.083984"/>
      <use xlink:href="#ArialMT-6c" x="116.699219"/>
      <use xlink:href="#ArialMT-73" x="138.916016"/>
      <use xlink:href="#ArialMT-65" x="188.916016"/>
      <use xlink:href="#ArialMT-20" x="244.53125"/>
      <use xlink:href="#ArialMT-70" x="272.314453"/>
      <use xlink:href="#ArialMT-6f" x="327.929688"/>
      <use xlink:href="#ArialMT-73" x="383.544922"/>
      <use xlink:href="#ArialMT-69" x="433.544922"/>
      <use xlink:href="#ArialMT-74" x="455.761719"/>
      <use xlink:href="#ArialMT-69" x="483.544922"/>
      <use xlink:href="#ArialMT-76" x="505.761719"/>
      <use xlink:href="#ArialMT-65" x="555.761719"/>
      <use xlink:href="#ArialMT-20" x="611.376953"/>
      <use xlink:href="#ArialMT-68" x="639.160156"/>
      <use xlink:href="#ArialMT-65" x="694.775391"/>
      <use xlink:href="#ArialMT-61" x="750.390625"/>
      <use xlink:href="#ArialMT-72" x="806.005859"/>
      <use xlink:href="#ArialMT-74" x="839.306641"/>
      <use xlink:href="#ArialMT-20" x="867.089844"/>
      <use xlink:href="#ArialMT-64" x="894.873047"/>
      <use xlink:href="#ArialMT-69" x="950.488281"/>
      <use xlink:href="#ArialMT-73" x="972.705078"/>
      <use xlink:href="#ArialMT-65" x="1022.705078"/>
      <use xlink:href="#ArialMT-61" x="1078.320312"/>
      <use xlink:href="#ArialMT-73" x="1133.935547"/>
      <use xlink:href="#ArialMT-65" x="1183.935547"/>
      <use xlink:href="#ArialMT-20" x="1239.550781"/>
      <use xlink:href="#ArialMT-72" x="1267.333984"/>
      <use xlink:href="#ArialMT-61" x="1300.634766"/>
      <use xlink:href="#ArialMT-74" x="1356.25"/>
      <use xlink:href="#ArialMT-65" x="1384.033203"/>
     </g>
    </g>
   </g>
   <g id="matplotlib.axis_2">
    <g id="ytick_1">
     <g id="line2d_7">
      <path d="M 135 484.232727 
L 972 484.232727 
" clip-path="url(#p062106dee3)" style="fill: none; stroke: #ffffff; stroke-linecap: round"/>
     </g>
     <g id="text_8">
      <!-- 0.0 -->
      <g style="fill: #262626" transform="translate(110.21 488.169524)scale(0.11 -0.11)">
       <use xlink:href="#ArialMT-30"/>
       <use xlink:href="#ArialMT-2e" x="55.615234"/>
       <use xlink:href="#ArialMT-30" x="83.398438"/>
      </g>
     </g>
    </g>
    <g id="ytick_2">
     <g id="line2d_8">
      <path d="M 135 405.163636 
L 972 405.163636 
" clip-path="url(#p062106dee3)" style="fill: none; stroke: #ffffff; stroke-linecap: round"/>
     </g>
     <g id="text_9">
      <!-- 0.2 -->
      <g style="fill: #262626" transform="translate(110.21 409.100433)scale(0.11 -0.11)">
       <use xlink:href="#ArialMT-30"/>
       <use xlink:href="#ArialMT-2e" x="55.615234"/>
       <use xlink:href="#ArialMT-32" x="83.398438"/>
      </g>
     </g>
    </g>
    <g id="ytick_3">
     <g id="line2d_9">
      <path d="M 135 326.094545 
L 972 326.094545 
" clip-path="url(#p062106dee3)" style="fill: none; stroke: #ffffff; stroke-linecap: round"/>
     </g>
     <g id="text_10">
      <!-- 0.4 -->
      <g style="fill: #262626" transform="translate(110.21 330.031342)scale(0.11 -0.11)">
       <use xlink:href="#ArialMT-30"/>
       <use xlink:href="#ArialMT-2e" x="55.615234"/>
       <use xlink:href="#ArialMT-34" x="83.398438"/>
      </g>
     </g>
    </g>
    <g id="ytick_4">
     <g id="line2d_10">
      <path d="M 135 247.025455 
L 972 247.025455 
" clip-path="url(#p062106dee3)" style="fill: none; stroke: #ffffff; stroke-linecap: round"/>
     </g>
     <g id="text_11">
      <!-- 0.6 -->
      <g style="fill: #262626" transform="translate(110.21 250.962251)scale(0.11 -0.11)">
       <use xlink:href="#ArialMT-30"/>
       <use xlink:href="#ArialMT-2e" x="55.615234"/>
       <use xlink:href="#ArialMT-36" x="83.398438"/>
      </g>
     </g>
    </g>
    <g id="ytick_5">
     <g id="line2d_11">
      <path d="M 135 167.956364 
L 972 167.956364 
" clip-path="url(#p062106dee3)" style="fill: none; stroke: #ffffff; stroke-linecap: round"/>
     </g>
     <g id="text_12">
      <!-- 0.8 -->
      <g style="fill: #262626" transform="translate(110.21 171.893161)scale(0.11 -0.11)">
       <use xlink:href="#ArialMT-30"/>
       <use xlink:href="#ArialMT-2e" x="55.615234"/>
       <use xlink:href="#ArialMT-38" x="83.398438"/>
      </g>
     </g>
    </g>
    <g id="ytick_6">
     <g id="line2d_12">
      <path d="M 135 88.887273 
L 972 88.887273 
" clip-path="url(#p062106dee3)" style="fill: none; stroke: #ffffff; stroke-linecap: round"/>
     </g>
     <g id="text_13">
      <!-- 1.0 -->
      <g style="fill: #262626" transform="translate(110.21 92.82407)scale(0.11 -0.11)">
       <use xlink:href="#ArialMT-31"/>
       <use xlink:href="#ArialMT-2e" x="55.615234"/>
       <use xlink:href="#ArialMT-30" x="83.398438"/>
      </g>
     </g>
    </g>
    <g id="text_14">
     <!-- True positive heart disease rate -->
     <g style="fill: #262626" transform="translate(103.825 370.3725)rotate(-90)scale(0.12 -0.12)">
      <defs>
       <path id="ArialMT-54" d="M 1659 0 
L 1659 4041 
L 150 4041 
L 150 4581 
L 3781 4581 
L 3781 4041 
L 2266 4041 
L 2266 0 
L 1659 0 
z
" transform="scale(0.015625)"/>
       <path id="ArialMT-75" d="M 2597 0 
L 2597 488 
Q 2209 -75 1544 -75 
Q 1250 -75 995 37 
Q 741 150 617 320 
Q 494 491 444 738 
Q 409 903 409 1263 
L 409 3319 
L 972 3319 
L 972 1478 
Q 972 1038 1006 884 
Q 1059 663 1231 536 
Q 1403 409 1656 409 
Q 1909 409 2131 539 
Q 2353 669 2445 892 
Q 2538 1116 2538 1541 
L 2538 3319 
L 3100 3319 
L 3100 0 
L 2597 0 
z
" transform="scale(0.015625)"/>
      </defs>
      <use xlink:href="#ArialMT-54"/>
      <use xlink:href="#ArialMT-72" x="57.333984"/>
      <use xlink:href="#ArialMT-75" x="90.634766"/>
      <use xlink:href="#ArialMT-65" x="146.25"/>
      <use xlink:href="#ArialMT-20" x="201.865234"/>
      <use xlink:href="#ArialMT-70" x="229.648438"/>
      <use xlink:href="#ArialMT-6f" x="285.263672"/>
      <use xlink:href="#ArialMT-73" x="340.878906"/>
      <use xlink:href="#ArialMT-69" x="390.878906"/>
      <use xlink:href="#ArialMT-74" x="413.095703"/>
      <use xlink:href="#ArialMT-69" x="440.878906"/>
      <use xlink:href="#ArialMT-76" x="463.095703"/>
      <use xlink:href="#ArialMT-65" x="513.095703"/>
      <use xlink:href="#ArialMT-20" x="568.710938"/>
      <use xlink:href="#ArialMT-68" x="596.494141"/>
      <use xlink:href="#ArialMT-65" x="652.109375"/>
      <use xlink:href="#ArialMT-61" x="707.724609"/>
      <use xlink:href="#ArialMT-72" x="763.339844"/>
      <use xlink:href="#ArialMT-74" x="796.640625"/>
      <use xlink:href="#ArialMT-20" x="824.423828"/>
      <use xlink:href="#ArialMT-64" x="852.207031"/>
      <use xlink:href="#ArialMT-69" x="907.822266"/>
      <use xlink:href="#ArialMT-73" x="930.039062"/>
      <use xlink:href="#ArialMT-65" x="980.039062"/>
      <use xlink:href="#ArialMT-61" x="1035.654297"/>
      <use xlink:href="#ArialMT-73" x="1091.269531"/>
      <use xlink:href="#ArialMT-65" x="1141.269531"/>
      <use xlink:href="#ArialMT-20" x="1196.884766"/>
      <use xlink:href="#ArialMT-72" x="1224.667969"/>
      <use xlink:href="#ArialMT-61" x="1257.96875"/>
      <use xlink:href="#ArialMT-74" x="1313.583984"/>
      <use xlink:href="#ArialMT-65" x="1341.367188"/>
     </g>
    </g>
   </g>
   <g id="line2d_13">
    <path d="M 173.045455 484.232727 
L 173.136546 482.142859 
L 173.162572 482.142859 
L 173.266676 481.422215 
L 173.305715 481.35015 
L 173.409819 480.413313 
L 173.461871 480.413313 
L 173.565975 479.692668 
L 173.592001 479.692668 
L 173.696104 478.611702 
L 173.735143 478.611702 
L 173.839247 477.242478 
L 173.85226 477.242478 
L 173.943351 476.593898 
L 173.995403 476.521833 
L 174.008416 476.233576 
L 174.11252 476.233576 
L 174.216624 475.080545 
L 174.229637 475.080545 
L 174.333741 474.143707 
L 174.359767 474.143707 
L 174.437845 473.567192 
L 174.50291 473.495127 
L 174.567975 472.990676 
L 174.620027 472.990676 
L 174.724131 472.342097 
L 174.776183 472.270032 
L 174.789196 472.125903 
L 174.958365 472.053839 
L 175.062469 470.972872 
L 175.075482 470.972872 
L 175.179586 470.180164 
L 175.244651 470.108099 
L 175.335742 469.243326 
L 175.361768 469.243326 
L 175.465872 467.441715 
L 175.530937 467.369651 
L 175.635041 466.072491 
L 175.648054 466.072491 
L 175.752158 465.56804 
L 175.856262 465.495976 
L 175.960366 464.415009 
L 176.038444 464.342945 
L 176.090496 463.982623 
L 176.207613 463.910558 
L 176.298704 463.550236 
L 176.363769 463.478172 
L 176.467873 462.829592 
L 176.480886 462.829592 
L 176.58499 461.892754 
L 176.637042 461.82069 
L 176.741146 461.027981 
L 176.780185 460.955917 
L 176.871276 460.019079 
L 176.936341 459.947015 
L 177.040445 459.154306 
L 177.131536 459.082242 
L 177.196601 458.577791 
L 177.274679 458.505726 
L 177.36577 458.145404 
L 177.430835 458.145404 
L 177.534939 457.496824 
L 177.560965 457.42476 
L 177.639043 456.487922 
L 177.678082 456.487922 
L 177.782186 455.551085 
L 177.821225 455.47902 
L 177.925329 454.686312 
L 177.938342 454.686312 
L 178.029433 453.533281 
L 178.094498 453.533281 
L 178.198602 452.308185 
L 178.224628 452.236121 
L 178.315719 452.019928 
L 178.393797 451.947863 
L 178.458862 451.299283 
L 178.510914 451.299283 
L 178.615018 450.866897 
L 178.628031 450.866897 
L 178.732135 450.290381 
L 178.823226 450.218317 
L 178.914317 449.78593 
L 178.940343 449.78593 
L 179.018421 448.6329 
L 179.05746 448.6329 
L 179.148551 447.623998 
L 179.226629 447.551933 
L 179.330733 446.975418 
L 179.395798 446.975418 
L 179.473876 445.462065 
L 179.551954 445.39 
L 179.643045 444.453163 
L 179.70811 444.381098 
L 179.812214 443.876647 
L 179.825227 443.876647 
L 179.916318 443.300132 
L 179.96837 443.300132 
L 180.072474 442.579488 
L 180.111513 442.507423 
L 180.215617 441.64265 
L 180.293695 441.64265 
L 180.384786 440.922006 
L 180.436838 440.849941 
L 180.501903 440.201361 
L 180.606007 440.129297 
L 180.658059 439.624846 
L 180.723124 439.624846 
L 180.801202 438.832137 
L 180.840241 438.832137 
L 180.944345 438.399751 
L 181.00941 438.327686 
L 181.061462 437.823235 
L 181.13954 437.823235 
L 181.230631 436.742269 
L 181.308709 436.670204 
L 181.3998 436.237818 
L 181.451852 436.165753 
L 181.555956 435.373045 
L 181.581982 435.373045 
L 181.621021 435.156851 
L 181.699099 435.156851 
L 181.777177 434.580336 
L 181.816216 434.580336 
L 181.881281 434.220014 
L 181.985385 434.220014 
L 182.089489 433.643498 
L 182.102502 433.643498 
L 182.18058 433.066983 
L 182.219619 433.066983 
L 182.271671 432.20221 
L 182.349749 432.20221 
L 182.453853 431.55363 
L 182.479879 431.55363 
L 182.57097 430.832986 
L 182.623022 430.760921 
L 182.714113 429.968213 
L 182.766165 429.896148 
L 182.844243 429.463762 
L 182.883282 429.463762 
L 182.96136 428.959311 
L 183.026425 428.887246 
L 183.117516 428.166602 
L 183.156555 428.094538 
L 183.260659 427.301829 
L 183.312711 427.229764 
L 183.390789 427.013571 
L 183.429828 427.013571 
L 183.520919 426.437056 
L 183.585984 426.437056 
L 183.690088 425.644347 
L 183.716114 425.644347 
L 183.781179 425.356089 
L 183.937335 425.284025 
L 184.015413 424.923703 
L 184.093491 424.851638 
L 184.184582 424.203058 
L 184.210608 424.203058 
L 184.314712 423.770672 
L 184.353751 423.770672 
L 184.457855 423.050028 
L 184.483881 422.977963 
L 184.587985 422.545577 
L 184.614011 422.545577 
L 184.614011 422.401448 
L 184.796193 422.329383 
L 184.887284 421.896997 
L 184.952349 421.896997 
L 185.04344 421.536675 
L 185.17357 421.46461 
L 185.277674 421.032224 
L 185.3037 421.032224 
L 185.394791 420.383644 
L 185.43383 420.311579 
L 185.498895 420.16745 
L 185.602999 420.095386 
L 185.681077 419.518871 
L 185.733129 419.518871 
L 185.811207 419.158548 
L 186.097493 419.086484 
L 186.201597 418.36584 
L 186.253649 418.293775 
L 186.34474 417.573131 
L 186.422818 417.501067 
L 186.500896 416.636293 
L 186.591987 416.564229 
L 186.696091 415.987714 
L 186.73513 415.915649 
L 186.82622 415.483263 
L 186.878272 415.411198 
L 186.930324 415.050876 
L 187.08648 414.978812 
L 187.138532 414.762618 
L 187.268662 414.690554 
L 187.372766 413.393394 
L 187.398792 413.393394 
L 187.502896 412.961008 
L 187.515909 412.961008 
L 187.593987 412.528621 
L 187.633026 412.528621 
L 187.685078 412.168299 
L 187.750143 412.168299 
L 187.815208 411.735912 
L 187.86726 411.735912 
L 187.971364 411.159397 
L 188.088481 411.087332 
L 188.192585 410.510817 
L 188.231624 410.438753 
L 188.309702 410.006366 
L 188.374767 410.006366 
L 188.478871 409.646044 
L 188.491884 409.646044 
L 188.556949 408.348884 
L 188.674066 408.27682 
L 188.726118 407.772369 
L 188.817209 407.700304 
L 188.9083 407.195853 
L 188.934326 407.195853 
L 189.03843 406.475209 
L 189.103495 406.475209 
L 189.207599 405.898694 
L 189.259651 405.826629 
L 189.363755 405.394243 
L 189.545937 405.322178 
L 189.611002 404.745663 
L 189.676067 404.745663 
L 189.728119 404.457405 
L 189.897288 404.457405 
L 189.897288 404.313276 
L 190.053444 404.241212 
L 190.105496 404.025018 
L 190.196587 404.025018 
L 190.287678 403.592632 
L 190.33973 403.520567 
L 190.404795 403.23231 
L 190.46986 403.23231 
L 190.573964 402.439601 
L 190.626016 402.367537 
L 190.665055 402.151343 
L 190.795185 402.151343 
L 190.899289 401.646892 
L 190.964354 401.574828 
L 191.029419 401.28657 
L 191.198588 401.28657 
L 191.276666 400.63799 
L 191.341731 400.565926 
L 191.432822 400.277668 
L 191.536926 400.205604 
L 191.615004 399.917346 
L 191.719108 399.845282 
L 191.77116 399.557024 
L 191.927316 399.484959 
L 192.005394 399.052573 
L 192.057446 399.052573 
L 192.148537 398.692251 
L 192.29168 398.620186 
L 192.382771 398.115735 
L 192.486875 398.043671 
L 192.590979 397.53922 
L 192.643031 397.467155 
L 192.747135 397.323027 
L 192.773161 397.250962 
L 192.877265 396.746511 
L 192.94233 396.674447 
L 193.020408 396.314125 
L 193.07246 396.24206 
L 193.150538 395.449351 
L 193.20259 395.449351 
L 193.293681 395.161094 
L 193.384772 395.089029 
L 193.436824 394.872836 
L 193.645032 394.800772 
L 193.710097 394.440449 
L 193.879266 394.368385 
L 193.970357 393.935998 
L 194.074461 393.863934 
L 194.178565 393.287419 
L 194.282669 393.287419 
L 194.386773 392.999161 
L 194.399786 392.999161 
L 194.477864 392.206452 
L 194.594981 392.134388 
L 194.699085 391.125486 
L 194.751137 391.053421 
L 194.790176 390.693099 
L 195.115501 390.621035 
L 195.219605 389.972455 
L 195.453839 389.90039 
L 195.557943 389.323875 
L 195.596982 389.251811 
L 195.701086 388.74736 
L 195.740125 388.675295 
L 195.831216 388.242909 
L 195.870255 388.170844 
L 195.961346 387.954651 
L 196.091476 387.882586 
L 196.143528 387.594329 
L 196.247632 387.522264 
L 196.286671 387.306071 
L 196.390775 387.234007 
L 196.494879 386.945749 
L 196.520905 386.873684 
L 196.611996 386.657491 
L 196.729113 386.585427 
L 196.820204 386.225105 
L 196.885269 386.15304 
L 196.97636 385.648589 
L 197.132516 385.576525 
L 197.23662 384.783816 
L 197.327711 384.711752 
L 197.431815 384.207301 
L 197.470854 384.135236 
L 197.574958 383.846978 
L 197.587971 383.846978 
L 197.692075 383.558721 
L 197.731114 383.486656 
L 197.796179 383.270463 
L 197.88727 383.198399 
L 197.926309 382.910141 
L 198.0174 382.838076 
L 198.069452 382.621883 
L 198.134517 382.621883 
L 198.238621 381.973303 
L 198.316699 381.973303 
L 198.420803 381.396788 
L 198.433816 381.396788 
L 198.53792 381.10853 
L 198.576959 381.036466 
L 198.589972 380.820272 
L 198.759141 380.748208 
L 198.850232 380.45995 
L 198.92831 380.387886 
L 199.019401 379.739306 
L 199.084466 379.739306 
L 199.175557 379.234855 
L 199.266648 379.162791 
L 199.279661 379.018662 
L 199.435817 378.946597 
L 199.513895 378.298017 
L 199.565947 378.225953 
L 199.670051 378.00976 
L 199.748129 377.937695 
L 199.826207 377.649438 
L 199.969349 377.577373 
L 200.073453 377.072922 
L 200.151531 377.072922 
L 200.242622 376.7126 
L 200.385765 376.640536 
L 200.489869 376.136085 
L 200.541921 376.136085 
L 200.646025 375.343376 
L 200.698077 375.271311 
L 200.789168 374.983054 
L 200.984363 374.910989 
L 201.049428 374.694796 
L 201.127506 374.694796 
L 201.218597 374.262409 
L 201.335714 374.190345 
L 201.335714 374.118281 
L 201.49187 374.046216 
L 201.517896 373.830023 
L 201.608987 373.830023 
L 201.713091 373.469701 
L 201.739117 373.397636 
L 201.817195 373.181443 
L 201.947325 373.109379 
L 202.01239 372.749056 
L 202.064442 372.749056 
L 202.116494 372.532863 
L 202.181559 372.532863 
L 202.259637 372.100477 
L 202.376754 372.028412 
L 202.480858 371.451897 
L 202.519897 371.379832 
L 202.571949 371.091575 
L 202.676053 371.01951 
L 202.754131 370.659188 
L 202.949326 370.587124 
L 203.027404 370.226801 
L 203.144521 370.154737 
L 203.248625 369.794415 
L 203.300677 369.72235 
L 203.391768 369.217899 
L 203.417794 369.217899 
L 203.508885 368.641384 
L 203.626002 368.56932 
L 203.717093 368.208997 
L 203.795171 368.136933 
L 203.899275 367.848675 
L 203.951327 367.776611 
L 204.029405 367.488353 
L 204.146522 367.416289 
L 204.2246 367.200095 
L 204.341717 367.128031 
L 204.393769 366.911838 
L 204.549925 366.839773 
L 204.654029 365.975 
L 204.680055 365.975 
L 204.758133 365.542614 
L 204.849224 365.542614 
L 204.927302 365.182291 
L 205.00538 365.182291 
L 205.018393 364.966098 
L 205.239614 364.894034 
L 205.278653 364.67784 
L 205.39577 364.67784 
L 205.460835 364.173389 
L 205.551926 364.101325 
L 205.616991 363.668938 
L 205.708082 363.596874 
L 205.721095 363.236552 
L 205.890264 363.164487 
L 205.955329 362.87623 
L 206.072446 362.804165 
L 206.17655 362.443843 
L 206.228602 362.371779 
L 206.332706 362.083521 
L 206.410784 362.011457 
L 206.501875 361.507006 
L 206.553927 361.434941 
L 206.618992 361.218748 
L 206.749122 361.146683 
L 206.853226 360.426039 
L 206.983356 360.353975 
L 207.08746 360.137781 
L 207.295668 360.065717 
L 207.386759 359.705395 
L 207.451824 359.63333 
L 207.542915 359.489202 
L 207.581954 359.489202 
L 207.686058 358.912686 
L 207.790162 358.912686 
L 207.803175 358.696493 
L 207.972344 358.624428 
L 208.076448 358.408235 
L 208.1285 358.336171 
L 208.180552 357.975849 
L 208.401773 357.903784 
L 208.505877 357.471398 
L 208.531903 357.399333 
L 208.609981 356.966947 
L 208.675046 356.966947 
L 208.727098 356.678689 
L 208.844215 356.606624 
L 208.922293 356.246302 
L 209.052423 356.174238 
L 209.117488 355.958045 
L 209.221592 355.88598 
L 209.312683 355.453594 
L 209.364735 355.453594 
L 209.390761 354.877078 
L 209.546917 354.805014 
L 209.624995 354.444692 
L 209.69006 354.372627 
L 209.768138 354.012305 
L 209.911281 353.940241 
L 209.924294 353.796112 
L 210.21058 353.724047 
L 210.275645 353.43579 
L 210.34071 353.363725 
L 210.431801 353.075467 
L 210.483853 353.003403 
L 210.509879 352.78721 
L 210.613983 352.715145 
L 210.666035 352.498952 
L 210.757126 352.426888 
L 210.848217 351.850372 
L 210.874243 351.850372 
L 210.874243 351.706243 
L 211.017386 351.634179 
L 211.056425 351.417986 
L 211.147516 351.345921 
L 211.160529 351.201792 
L 211.290659 351.129728 
L 211.394763 350.84147 
L 211.550919 350.769406 
L 211.628997 350.409084 
L 211.668036 350.409084 
L 211.759127 349.904633 
L 211.941309 349.832568 
L 212.019387 349.472246 
L 212.071439 349.400182 
L 212.175543 348.823666 
L 212.240608 348.751602 
L 212.344712 348.463344 
L 212.357725 348.463344 
L 212.461829 348.103022 
L 212.68305 348.030957 
L 212.709076 347.814764 
L 212.878245 347.7427 
L 212.982348 347.382378 
L 213.060426 347.310313 
L 213.16453 346.733798 
L 213.307673 346.661733 
L 213.307673 346.589669 
L 213.541907 346.517604 
L 213.619985 346.373476 
L 213.659024 346.373476 
L 213.750115 345.79696 
L 213.789154 345.724896 
L 213.893258 344.860123 
L 213.958323 344.788058 
L 214.036401 344.283607 
L 214.07544 344.283607 
L 214.140505 343.995349 
L 214.322687 343.923285 
L 214.426791 343.707092 
L 214.452817 343.635027 
L 214.504869 343.418834 
L 214.634999 343.34677 
L 214.713077 343.130576 
L 214.817181 343.058512 
L 214.882246 342.914383 
L 214.934298 342.914383 
L 214.934298 342.770254 
L 215.259623 342.69819 
L 215.363727 342.337868 
L 215.454818 342.265803 
L 215.493857 342.121674 
L 215.584948 342.121674 
L 215.663026 341.833417 
L 215.806169 341.761352 
L 215.910273 341.256901 
L 215.949312 341.256901 
L 216.001364 340.968643 
L 216.170533 340.896579 
L 216.274637 340.608321 
L 216.326689 340.608321 
L 216.391754 340.247999 
L 216.482845 340.247999 
L 216.573936 339.815613 
L 216.782144 339.743548 
L 216.847209 339.527355 
L 216.912274 339.45529 
L 216.964326 339.167033 
L 217.081443 339.094968 
L 217.081443 339.022904 
L 217.302664 338.950839 
L 217.393755 338.374324 
L 217.445807 338.30226 
L 217.523885 338.014002 
L 217.575937 337.941937 
L 217.575937 337.797809 
L 217.71908 337.725744 
L 217.823184 337.365422 
L 218.10947 337.293358 
L 218.213574 336.933035 
L 218.278639 336.860971 
L 218.343704 336.716842 
L 218.460821 336.644778 
L 218.512873 336.428584 
L 218.590951 336.428584 
L 218.682042 335.780005 
L 218.799159 335.70794 
L 218.89025 335.347618 
L 218.994354 335.275554 
L 218.994354 335.203489 
L 219.176536 335.131425 
L 219.28064 334.482845 
L 219.41077 334.41078 
L 219.475835 334.194587 
L 219.566926 334.122523 
L 219.658017 333.690136 
L 219.762121 333.618072 
L 219.827186 333.25775 
L 219.892251 333.185685 
L 219.905264 332.969492 
L 220.035394 332.897428 
L 220.113472 332.60917 
L 220.217576 332.537105 
L 220.32168 332.320912 
L 220.373732 332.320912 
L 220.438797 332.032654 
L 220.542901 331.96059 
L 220.633992 331.600268 
L 220.686044 331.528203 
L 220.777135 331.095817 
L 220.816174 331.095817 
L 220.8422 330.879624 
L 221.011369 330.807559 
L 221.115473 330.303108 
L 221.167525 330.231044 
L 221.23259 329.726593 
L 221.284642 329.726593 
L 221.284642 329.582464 
L 221.609967 329.510399 
L 221.649006 329.366271 
L 221.831188 329.294206 
L 221.909266 329.005948 
L 222.000357 329.005948 
L 222.065422 328.717691 
L 222.325682 328.645626 
L 222.416773 328.141175 
L 222.585942 328.069111 
L 222.651007 327.780853 
L 222.846202 327.708789 
L 222.898254 327.420531 
L 223.093449 327.348467 
L 223.18454 327.132273 
L 223.249605 327.132273 
L 223.275631 326.699887 
L 223.470826 326.627822 
L 223.496852 326.2675 
L 223.692047 326.195436 
L 223.70506 326.051307 
L 223.887242 325.979242 
L 223.978333 325.690985 
L 224.121476 325.690985 
L 224.212567 325.114469 
L 224.329684 325.042405 
L 224.420775 324.898276 
L 224.537892 324.826212 
L 224.641996 324.537954 
L 224.694048 324.465889 
L 224.798152 324.033503 
L 224.850204 323.961438 
L 224.863217 323.745245 
L 225.045399 323.745245 
L 225.110464 323.384923 
L 225.253607 323.384923 
L 225.331685 323.096665 
L 225.513867 323.024601 
L 225.617971 322.880472 
L 225.800153 322.303957 
L 225.904257 322.231892 
L 226.008361 321.943634 
L 226.112464 321.87157 
L 226.190542 321.655377 
L 226.294646 321.583312 
L 226.359711 320.934732 
L 226.437789 320.862668 
L 226.541893 320.57441 
L 226.632984 320.502346 
L 226.698049 320.286153 
L 226.776127 320.214088 
L 226.776127 320.142024 
L 226.906257 320.069959 
L 226.91927 319.92583 
L 226.945296 319.92583 
L 227.166517 319.92583 
L 227.257608 319.637573 
L 227.322673 319.565508 
L 227.426777 319.133122 
L 227.543894 319.061057 
L 227.647998 318.916928 
L 227.752102 318.844864 
L 227.856206 318.340413 
L 227.908258 318.268349 
L 227.999349 317.763898 
L 228.064414 317.691833 
L 228.142492 317.547704 
L 228.324674 317.47564 
L 228.389739 317.115318 
L 228.48083 317.043253 
L 228.584934 316.610867 
L 228.636986 316.538802 
L 228.636986 316.466738 
L 229.00135 316.394673 
L 229.092441 315.601965 
L 229.248597 315.5299 
L 229.287636 315.385771 
L 229.495844 315.313707 
L 229.573922 315.097514 
L 229.612961 315.097514 
L 229.704052 314.665127 
L 229.756104 314.593063 
L 229.847195 314.304805 
L 229.977325 314.232741 
L 230.04239 313.944483 
L 230.263611 313.872418 
L 230.315663 313.584161 
L 230.406754 313.584161 
L 230.510858 313.151774 
L 230.56291 313.07971 
L 230.667014 312.719388 
L 230.771118 312.647323 
L 230.836183 312.142872 
L 230.888235 312.142872 
L 230.992339 311.854614 
L 231.057404 311.78255 
L 231.135482 311.350163 
L 231.21356 311.278099 
L 231.304651 311.061906 
L 231.356703 310.989841 
L 231.447794 310.557455 
L 231.551898 310.48539 
L 231.656002 310.053004 
L 231.73408 309.980939 
L 231.825171 309.620617 
L 231.929275 309.548553 
L 231.929275 309.476488 
L 232.111457 309.404424 
L 232.163509 309.188231 
L 232.332678 309.116166 
L 232.397743 308.68378 
L 232.814159 308.611715 
L 232.918263 308.395522 
L 233.022367 308.323457 
L 233.126471 308.0352 
L 233.29564 307.963135 
L 233.360705 307.746942 
L 233.42577 307.746942 
L 233.516861 307.314555 
L 233.594939 307.314555 
L 233.68603 306.521847 
L 233.790134 306.449782 
L 233.855199 306.233589 
L 233.894238 306.233589 
L 233.998342 306.161525 
L 234.102446 305.801202 
L 234.20655 305.729138 
L 234.20655 305.657074 
L 234.362706 305.585009 
L 234.427771 305.224687 
L 234.518862 305.152623 
L 234.59694 304.936429 
L 234.675018 304.864365 
L 234.714057 304.648172 
L 234.870213 304.576107 
L 234.948291 304.359914 
L 235.078421 304.287849 
L 235.169512 303.999592 
L 235.234577 303.927527 
L 235.260603 303.783398 
L 235.37772 303.711334 
L 235.481824 303.351012 
L 235.50785 303.278947 
L 235.598941 303.062754 
L 235.63798 302.99069 
L 235.664006 302.558303 
L 236.067409 302.486239 
L 236.171513 302.197981 
L 236.249591 302.125917 
L 236.340682 301.909723 
L 236.431773 301.837659 
L 236.509851 301.69353 
L 236.587929 301.621466 
L 236.600942 301.405272 
L 236.874215 301.333208 
L 236.926267 301.04495 
L 237.095436 300.972886 
L 237.186527 300.828757 
L 237.32967 300.756692 
L 237.368709 300.468435 
L 237.615956 300.39637 
L 237.615956 300.180177 
L 237.759099 300.108113 
L 237.824164 299.891919 
L 237.915255 299.819855 
L 238.006346 299.675726 
L 238.071411 299.603662 
L 238.071411 299.531597 
L 238.214554 299.459533 
L 238.214554 299.387468 
L 238.331671 299.387468 
L 238.37071 299.099211 
L 238.487827 299.027146 
L 238.487827 298.955082 
L 238.865204 298.883017 
L 238.865204 298.810953 
L 239.073412 298.810953 
L 239.125464 298.522695 
L 239.50284 298.450631 
L 239.541879 298.234437 
L 239.7631 298.162373 
L 239.776113 297.94618 
L 240.036373 297.874115 
L 240.088425 297.729986 
L 240.296633 297.657922 
L 240.400737 297.2976 
L 240.478815 297.225535 
L 240.569906 297.081407 
L 240.765101 297.009342 
L 240.869205 296.793149 
L 240.947283 296.721084 
L 241.051387 296.216633 
L 241.077413 296.144569 
L 241.155491 296.00044 
L 241.19453 296.00044 
L 241.285621 295.640118 
L 241.363699 295.568054 
L 241.363699 295.495989 
L 241.545881 295.423925 
L 241.623959 295.207731 
L 241.676011 295.135667 
L 241.754089 294.847409 
L 241.936271 294.775345 
L 241.97531 294.631216 
L 242.053388 294.631216 
L 242.053388 294.487087 
L 242.378713 294.415023 
L 242.443778 294.198829 
L 242.573908 294.126765 
L 242.638973 293.910572 
L 242.88622 293.838507 
L 242.990324 293.55025 
L 243.055389 293.478185 
L 243.14648 292.973734 
L 243.211545 292.90167 
L 243.302636 292.541348 
L 243.419753 292.469283 
L 243.510844 292.108961 
L 243.588922 292.036897 
L 243.680013 291.820703 
L 243.745078 291.820703 
L 243.745078 291.676574 
L 243.92726 291.60451 
L 243.953286 291.172123 
L 244.018351 291.172123 
L 244.148481 291.100059 
L 244.174507 290.739737 
L 244.31765 290.667672 
L 244.31765 290.595608 
L 244.590923 290.523544 
L 244.682014 290.091157 
L 244.747079 290.019093 
L 244.83817 289.65877 
L 244.942274 289.586706 
L 245.202534 288.289546 
L 245.319651 288.289546 
L 245.397729 287.929224 
L 245.48882 287.85716 
L 245.527859 287.640966 
L 245.918249 287.568902 
L 245.970301 287.424773 
L 246.074405 287.352709 
L 246.178509 286.920322 
L 246.217548 286.920322 
L 246.230561 286.704129 
L 246.438769 286.632064 
L 246.477808 286.415871 
L 246.52986 286.415871 
L 246.581912 286.415871 
L 246.633964 286.127613 
L 246.803133 286.055549 
L 246.907237 285.695227 
L 247.219549 285.623162 
L 247.297627 285.479034 
L 247.414744 285.479034 
L 247.518848 285.26284 
L 247.688017 285.190776 
L 247.779108 284.902518 
L 248.000329 284.830454 
L 248.104433 284.542196 
L 248.156485 284.470132 
L 248.260589 284.037745 
L 248.338667 283.965681 
L 248.429758 283.677423 
L 248.546875 283.605358 
L 248.637966 283.46123 
L 248.768096 283.46123 
L 248.859187 283.172972 
L 249.275603 283.100907 
L 249.379707 282.884714 
L 249.483811 282.81265 
L 249.561889 282.596456 
L 249.705032 282.524392 
L 249.705032 282.452328 
L 249.874201 282.380263 
L 249.874201 282.308199 
L 250.056383 282.236134 
L 250.160487 282.092005 
L 250.368695 282.019941 
L 250.472799 281.803748 
L 250.576903 281.731683 
L 250.576903 281.51549 
L 250.69402 281.51549 
L 250.746072 281.083103 
L 250.850176 281.011039 
L 250.915241 280.86691 
L 251.097423 280.794846 
L 251.097423 280.650717 
L 251.396722 280.578652 
L 251.396722 280.506588 
L 251.826151 280.434524 
L 251.826151 280.362459 
L 251.943268 280.362459 
L 252.047372 280.074201 
L 252.112437 280.002137 
L 252.203528 279.785944 
L 252.294618 279.713879 
L 252.359683 279.497686 
L 252.528852 279.425622 
L 252.528852 279.353557 
L 252.658982 279.353557 
L 252.698021 279.065299 
L 252.789112 278.993235 
L 252.789112 278.921171 
L 252.984307 278.849106 
L 252.984307 278.777042 
L 253.179502 278.704977 
L 253.25758 278.488784 
L 253.335658 278.41672 
L 253.426749 278.128462 
L 253.530853 278.056397 
L 253.569892 277.912269 
L 253.791113 277.840204 
L 253.804126 277.696075 
L 254.064386 277.624011 
L 254.16849 277.335753 
L 254.337659 277.263689 
L 254.441763 276.975431 
L 254.506828 276.975431 
L 254.610932 276.543044 
L 254.780101 276.47098 
L 254.845166 276.326851 
L 255.001322 276.326851 
L 255.001322 276.182722 
L 255.131452 276.182722 
L 255.235556 275.8224 
L 255.378699 275.750336 
L 255.456777 275.606207 
L 255.495816 275.606207 
L 255.586907 275.245885 
L 255.808128 275.17382 
L 255.847167 274.885563 
L 255.99031 274.885563 
L 256.029349 274.52524 
L 256.224544 274.453176 
L 256.302622 274.309047 
L 256.458778 274.236983 
L 256.536856 274.092854 
L 256.875194 274.020789 
L 256.966285 273.444274 
L 257.122441 273.37221 
L 257.226545 273.156016 
L 257.304623 273.083952 
L 257.330649 272.867759 
L 257.447766 272.795694 
L 257.512831 272.291243 
L 257.590909 272.219179 
L 257.590909 272.147114 
L 257.903221 272.07505 
L 257.968286 271.786792 
L 258.111429 271.714728 
L 258.163481 271.498534 
L 258.371689 271.42647 
L 258.475793 271.138212 
L 258.514832 271.066148 
L 258.618936 270.77789 
L 258.670988 270.705826 
L 258.762079 270.345504 
L 258.814131 270.345504 
L 258.905222 269.841053 
L 259.087404 269.768988 
L 259.191508 269.552795 
L 259.295612 269.48073 
L 259.399716 269.264537 
L 259.477794 269.192473 
L 259.477794 269.120408 
L 259.672989 269.120408 
L 259.751067 268.688022 
L 259.881197 268.615957 
L 259.881197 268.543893 
L 260.02434 268.471828 
L 260.128444 268.183571 
L 260.15447 268.111506 
L 260.219535 267.895313 
L 260.570886 267.823249 
L 260.648964 267.67912 
L 260.753068 267.607055 
L 260.831146 267.462926 
L 260.948263 267.390862 
L 261.013328 267.246733 
L 261.06538 267.246733 
L 261.06538 267.03054 
L 261.390705 266.958475 
L 261.390705 266.814347 
L 261.572887 266.742282 
L 261.572887 266.670218 
L 261.690004 266.670218 
L 261.755069 266.454024 
L 261.950264 266.38196 
L 262.028342 265.877509 
L 262.093407 265.877509 
L 262.145459 265.589251 
L 262.327641 265.589251 
L 262.405719 265.156865 
L 262.483797 265.0848 
L 262.522836 264.868607 
L 262.731044 264.796543 
L 262.731044 264.724478 
L 262.809122 264.724478 
L 263.004317 264.652414 
L 263.030343 264.508285 
L 263.329642 264.43622 
L 263.329642 264.292092 
L 263.602915 264.220027 
L 263.628941 264.075898 
L 263.733045 264.075898 
L 263.733045 263.931769 
L 263.772084 263.931769 
L 263.941253 263.859705 
L 263.993305 263.715576 
L 264.097409 263.643512 
L 264.110422 263.499383 
L 264.240552 263.427318 
L 264.331643 263.211125 
L 264.461773 263.139061 
L 264.461773 263.066996 
L 264.696007 262.994932 
L 264.696007 262.922867 
L 264.943254 262.850803 
L 264.943254 262.778739 
L 265.086397 262.778739 
L 265.151462 262.490481 
L 265.242553 262.418416 
L 265.346656 262.058094 
L 265.437747 262.058094 
L 265.515825 261.481579 
L 265.632942 261.409514 
L 265.737046 261.049192 
L 265.867176 260.977128 
L 265.97128 260.68887 
L 266.166475 260.616806 
L 266.244553 260.400612 
L 266.569878 260.328548 
L 266.569878 260.256484 
L 266.895203 260.184419 
L 266.986294 260.04029 
L 267.103411 259.968226 
L 267.116424 259.824097 
L 267.350658 259.752033 
L 267.454762 259.463775 
L 267.636944 259.39171 
L 267.636944 259.319646 
L 267.884191 259.247582 
L 267.910217 259.103453 
L 268.001308 259.103453 
L 268.105412 258.671066 
L 268.248555 258.599002 
L 268.352659 258.382808 
L 268.391698 258.310744 
L 268.391698 258.23868 
L 268.586893 258.166615 
L 268.651958 258.022486 
L 268.743049 257.950422 
L 268.743049 257.878357 
L 269.133439 257.806293 
L 269.237543 257.662164 
L 269.48479 257.5901 
L 269.575881 257.373906 
L 269.732037 257.301842 
L 269.758063 257.013584 
L 270.083388 256.94152 
L 270.187492 256.581198 
L 270.343648 256.509133 
L 270.369674 256.29294 
L 270.447752 256.29294 
L 270.577882 256.220876 
L 270.65596 255.64436 
L 270.721025 255.572296 
L 270.812116 255.428167 
L 270.91622 255.356102 
L 270.91622 255.284038 
L 271.059363 255.211974 
L 271.098402 254.99578 
L 271.397701 254.923716 
L 271.397701 254.851651 
L 271.540844 254.779587 
L 271.631935 254.419265 
L 271.749052 254.3472 
L 271.762065 254.203072 
L 271.879182 254.131007 
L 271.983286 253.914814 
L 272.126429 253.842749 
L 272.21752 253.626556 
L 272.490793 253.554492 
L 272.542845 253.410363 
L 272.777079 253.338298 
L 272.842144 253.19417 
L 272.946248 253.122105 
L 273.024326 252.689719 
L 273.362664 252.617654 
L 273.466768 252.329396 
L 273.531833 252.257332 
L 273.531833 252.185268 
L 273.766067 252.113203 
L 273.766067 251.969074 
L 273.974275 251.89701 
L 274.078379 251.680817 
L 274.182483 251.608752 
L 274.182483 251.536688 
L 274.338639 251.464623 
L 274.42973 251.24843 
L 274.68999 251.176366 
L 274.742042 250.960172 
L 274.859159 250.888108 
L 274.898198 250.671915 
L 275.093393 250.59985 
L 275.197497 250.383657 
L 275.275575 250.311592 
L 275.379679 250.023335 
L 275.457757 249.95127 
L 275.457757 249.879206 
L 275.796095 249.807141 
L 275.874173 249.663013 
L 276.095394 249.590948 
L 276.095394 249.518884 
L 276.303602 249.446819 
L 276.303602 249.374755 
L 276.446745 249.30269 
L 276.550849 249.158562 
L 276.993291 249.086497 
L 277.019317 248.942368 
L 277.266564 248.870304 
L 277.279577 248.654111 
L 277.526824 248.582046 
L 277.630928 248.437917 
L 277.656954 248.437917 
L 277.748045 248.077595 
L 277.930227 248.005531 
L 278.008305 247.645209 
L 278.242539 247.573144 
L 278.294591 247.356951 
L 278.502798 247.284886 
L 278.541837 247.140758 
L 278.632928 247.140758 
L 278.737032 246.708371 
L 278.854149 246.636307 
L 278.854149 246.564242 
L 279.296591 246.492178 
L 279.374669 246.131856 
L 279.46576 246.131856 
L 279.517812 245.915662 
L 279.582877 245.915662 
L 279.621916 245.699469 
L 279.817111 245.699469 
L 279.869163 245.411211 
L 280.051345 245.339147 
L 280.051345 245.267082 
L 280.194488 245.195018 
L 280.24654 244.90676 
L 280.37667 244.834696 
L 280.37667 244.690567 
L 280.76706 244.618503 
L 280.858151 244.330245 
L 280.910203 244.25818 
L 281.014307 243.825794 
L 281.105398 243.753729 
L 281.170463 243.537536 
L 281.248541 243.465472 
L 281.352645 243.321343 
L 281.469762 243.249278 
L 281.534827 242.816892 
L 281.717009 242.816892 
L 281.730022 242.600699 
L 282.185477 242.528634 
L 282.224516 242.312441 
L 282.45875 242.240376 
L 282.45875 242.096248 
L 282.601893 242.024183 
L 282.601893 241.952119 
L 282.823114 241.880054 
L 282.901192 241.663861 
L 283.005296 241.591797 
L 283.1094 241.447668 
L 283.577868 241.375603 
L 283.577868 241.231474 
L 283.89018 241.15941 
L 283.89018 241.015281 
L 284.137427 240.943217 
L 284.215505 240.654959 
L 284.423713 240.654959 
L 284.514804 240.222572 
L 284.749038 240.150508 
L 284.788077 239.934315 
L 285.074363 239.86225 
L 285.165454 239.718121 
L 285.204493 239.718121 
L 285.204493 239.573993 
L 285.334623 239.573993 
L 285.386675 239.285735 
L 285.712 239.213671 
L 285.712 239.141606 
L 285.855143 239.069542 
L 285.855143 238.997477 
L 286.050338 238.925413 
L 286.050338 238.853348 
L 286.245533 238.853348 
L 286.323611 238.637155 
L 286.518806 238.565091 
L 286.609897 238.276833 
L 286.948235 238.204769 
L 286.948235 238.132704 
L 287.338625 238.06064 
L 287.40369 237.916511 
L 287.572859 237.844446 
L 287.611898 237.556189 
L 287.716002 237.484124 
L 287.742028 237.339995 
L 287.92421 237.339995 
L 288.002288 237.123802 
L 288.197483 237.051738 
L 288.210496 236.907609 
L 288.44473 236.835544 
L 288.44473 236.76348 
L 288.57486 236.691416 
L 288.665951 236.331093 
L 288.991276 236.259029 
L 288.991276 236.186965 
L 289.030315 236.186965 
L 289.186471 236.1149 
L 289.251536 235.970771 
L 289.342627 235.898707 
L 289.433718 235.682514 
L 289.48577 235.610449 
L 289.563848 235.46632 
L 289.693978 235.394256 
L 289.785069 235.105998 
L 289.837121 235.033934 
L 289.837121 234.889805 
L 290.019303 234.81774 
L 290.071355 234.601547 
L 290.201485 234.529483 
L 290.240524 234.313289 
L 290.487771 234.241225 
L 290.487771 234.169161 
L 290.591875 234.169161 
L 290.78707 234.097096 
L 290.865148 233.66471 
L 290.904187 233.66471 
L 290.982265 233.376452 
L 291.034317 233.304387 
L 291.04733 233.160259 
L 291.359642 233.088194 
L 291.463746 232.944065 
L 291.502785 232.944065 
L 291.502785 232.799936 
L 291.619901 232.799936 
L 291.697979 232.583743 
L 291.763044 232.511679 
L 291.763044 232.439614 
L 291.932213 232.36755 
L 292.010291 232.223421 
L 292.075356 232.151357 
L 292.140421 231.935163 
L 292.413694 231.863099 
L 292.504785 231.502777 
L 292.582863 231.430712 
L 292.686967 231.07039 
L 292.817097 230.998326 
L 292.869149 230.710068 
L 292.947227 230.710068 
L 292.947227 230.565939 
L 293.324604 230.493875 
L 293.415695 230.277681 
L 294.027306 230.205617 
L 294.053332 230.061488 
L 294.5218 229.989424 
L 294.625904 229.845295 
L 294.769047 229.77323 
L 294.795073 229.629102 
L 294.964242 229.557037 
L 294.964242 229.484973 
L 295.237515 229.484973 
L 295.30258 229.124651 
L 295.484762 229.052586 
L 295.484762 228.980522 
L 295.549827 228.980522 
L 295.679957 228.908457 
L 295.771048 228.404006 
L 295.875152 228.331942 
L 295.940217 228.187813 
L 296.174451 228.115749 
L 296.226503 227.827491 
L 296.330607 227.755426 
L 296.382659 227.467169 
L 296.655932 227.395104 
L 296.747023 227.106847 
L 297.111387 227.034782 
L 297.215491 226.746524 
L 297.410686 226.67446 
L 297.501777 226.458267 
L 297.540816 226.386202 
L 297.605881 226.170009 
L 297.788063 226.097945 
L 297.879154 225.953816 
L 298.139414 225.881751 
L 298.230505 225.737622 
L 298.282557 225.665558 
L 298.282557 225.593494 
L 298.55583 225.521429 
L 298.633908 225.305236 
L 298.777051 225.233171 
L 298.777051 225.161107 
L 298.920194 225.089043 
L 298.933207 224.944914 
L 299.271545 224.872849 
L 299.310584 224.72872 
L 299.518792 224.656656 
L 299.609883 224.440463 
L 299.713987 224.368398 
L 299.766039 223.863947 
L 299.844117 223.791883 
L 299.935208 223.647754 
L 300.299572 223.57569 
L 300.37765 223.359496 
L 300.50778 223.287432 
L 300.50778 223.215367 
L 300.794066 223.143303 
L 300.833105 222.999174 
L 301.0283 222.92711 
L 301.080352 222.782981 
L 301.392664 222.710916 
L 301.392664 222.638852 
L 301.613885 222.566788 
L 301.613885 222.494723 
L 301.639911 222.494723 
L 301.80908 222.422659 
L 301.900171 222.27853 
L 302.173444 222.206465 
L 302.212483 222.062337 
L 302.316587 222.062337 
L 302.420691 221.774079 
L 302.511782 221.702014 
L 302.615886 221.557886 
L 302.71999 221.485821 
L 302.811081 221.269628 
L 302.993263 221.197563 
L 303.019289 220.98137 
L 303.526796 220.909306 
L 303.526796 220.765177 
L 303.656926 220.765177 
L 303.669939 220.476919 
L 303.826095 220.404855 
L 303.930199 220.044533 
L 303.943212 220.044533 
L 303.995264 219.68421 
L 304.125394 219.68421 
L 304.216485 219.395953 
L 304.333602 219.323888 
L 304.372641 219.107695 
L 304.528797 219.035631 
L 304.606875 218.819437 
L 304.841108 218.747373 
L 304.945212 218.603244 
L 305.049316 218.603244 
L 305.127394 218.314986 
L 305.270537 218.242922 
L 305.270537 218.098793 
L 305.517784 218.026729 
L 305.517784 217.954664 
L 305.869135 217.8826 
L 305.869135 217.738471 
L 305.986252 217.738471 
L 306.012278 217.450213 
L 306.311577 217.378149 
L 306.402668 217.089891 
L 306.636902 217.017827 
L 306.741006 216.801633 
L 306.84511 216.729569 
L 306.84511 216.58544 
L 307.36563 216.513376 
L 307.417682 216.369247 
L 307.860124 216.369247 
L 307.899163 216.008925 
L 308.081345 215.93686 
L 308.159423 215.792731 
L 308.419683 215.720667 
L 308.497761 215.504474 
L 308.914177 215.432409 
L 308.979242 215.28828 
L 309.161424 215.28828 
L 309.161424 215.144151 
L 309.512775 215.072087 
L 309.512775 215.000023 
L 309.694957 214.927958 
L 309.694957 214.855894 
L 309.773035 214.855894 
L 310.020282 214.783829 
L 310.09836 214.6397 
L 310.254516 214.567636 
L 310.254516 214.495572 
L 310.306568 214.495572 
L 310.410672 214.423507 
L 310.423685 214.207314 
L 310.605867 214.135249 
L 310.605867 214.063185 
L 310.670932 214.063185 
L 310.957218 213.991121 
L 310.957218 213.919056 
L 311.217478 213.846992 
L 311.256517 213.630798 
L 311.52979 213.558734 
L 311.568829 213.342541 
L 311.816076 213.270476 
L 311.842102 213.126347 
L 312.063323 213.054283 
L 312.167427 212.766025 
L 312.505765 212.693961 
L 312.596856 212.477768 
L 312.987246 212.405703 
L 313.117376 212.18951 
L 313.911169 212.117445 
L 313.976234 211.901252 
L 314.197455 211.901252 
L 314.288546 211.612994 
L 314.509767 211.54093 
L 314.509767 211.468866 
L 314.91317 211.396801 
L 314.91317 211.324737 
L 315.134391 211.252672 
L 315.199456 210.964415 
L 315.290547 210.89235 
L 315.381638 210.676157 
L 315.550807 210.604092 
L 315.641898 210.387899 
L 315.82408 210.315835 
L 315.82408 210.24377 
L 315.941197 210.24377 
L 315.941197 210.099641 
L 316.149405 210.027577 
L 316.21447 209.739319 
L 316.409665 209.667255 
L 316.409665 209.59519 
L 316.60486 209.523126 
L 316.669925 209.018675 
L 316.891146 208.946611 
L 316.904159 208.802482 
L 317.060315 208.730417 
L 317.060315 208.658353 
L 317.164419 208.658353 
L 317.268523 208.586288 
L 317.359614 208.225966 
L 317.476731 208.153902 
L 317.476731 208.009773 
L 317.802055 207.937709 
L 317.802055 207.865644 
L 318.25751 207.79358 
L 318.361614 207.649451 
L 318.374627 207.649451 
L 318.374627 207.505322 
L 318.595848 207.433258 
L 318.686939 206.856742 
L 318.843095 206.856742 
L 318.947199 206.49642 
L 319.051303 206.424356 
L 319.090342 206.280227 
L 319.389641 206.208162 
L 319.389641 206.136098 
L 319.727979 206.064033 
L 319.793044 205.84784 
L 319.832083 205.84784 
L 320.027278 205.775776 
L 320.027278 205.703711 
L 320.300551 205.631647 
L 320.300551 205.559582 
L 320.482733 205.559582 
L 320.573824 205.343389 
L 320.612863 205.271325 
L 320.677928 205.127196 
L 320.742993 205.055131 
L 320.834084 204.766874 
L 320.886136 204.694809 
L 320.977227 204.55068 
L 321.159409 204.478616 
L 321.159409 204.406552 
L 321.445695 204.334487 
L 321.549799 204.118294 
L 321.588838 204.118294 
L 321.679929 203.830036 
L 321.810059 203.757972 
L 321.90115 203.685907 
L 322.460709 203.613843 
L 322.5518 203.39765 
L 322.877125 203.325585 
L 322.877125 203.253521 
L 323.150398 203.181456 
L 323.189437 203.037327 
L 323.449697 202.965263 
L 323.46271 202.893199 
L 323.775022 202.821134 
L 323.8531 202.677005 
L 324.087334 202.604941 
L 324.087334 202.532876 
L 324.360607 202.460812 
L 324.360607 202.388748 
L 324.881127 202.316683 
L 324.972218 202.172554 
L 325.310556 202.10049 
L 325.41466 201.668103 
L 325.505751 201.596039 
L 325.505751 201.523974 
L 325.987232 201.45191 
L 325.987232 201.379846 
L 326.312557 201.307781 
L 326.364609 201.019523 
L 326.4557 200.947459 
L 326.533778 200.731266 
L 326.898142 200.659201 
L 326.97622 200.515072 
L 327.249493 200.443008 
L 327.288532 200.226815 
L 327.600844 200.15475 
L 327.704948 200.010621 
L 327.900143 200.010621 
L 327.900143 199.866493 
L 328.264507 199.794428 
L 328.264507 199.722364 
L 328.420663 199.722364 
L 328.524767 199.434106 
L 328.889131 199.362042 
L 328.889131 199.289977 
L 329.357599 199.217913 
L 329.435677 199.073784 
L 329.565807 199.001719 
L 329.565807 198.929655 
L 330.789029 198.857591 
L 330.893132 198.713462 
L 331.088327 198.641397 
L 331.088327 198.569333 
L 331.478717 198.497268 
L 331.478717 198.425204 
L 331.895133 198.35314 
L 331.960198 197.992817 
L 332.181419 197.992817 
L 332.207445 197.776624 
L 332.27251 197.776624 
L 332.441679 197.70456 
L 332.506744 197.560431 
L 332.988225 197.488366 
L 333.027264 197.344238 
L 333.261498 197.272173 
L 333.261498 197.200109 
L 333.287524 197.200109 
L 333.44368 197.128044 
L 333.534771 196.839787 
L 333.83407 196.767722 
L 333.83407 196.695658 
L 334.61485 196.623593 
L 334.61485 196.551529 
L 334.823058 196.479464 
L 334.823058 196.4074 
L 334.940175 196.4074 
L 334.940175 196.263271 
L 335.486721 196.191207 
L 335.590825 196.047078 
L 335.838072 195.975013 
L 335.838072 195.902949 
L 335.864098 195.902949 
L 336.098332 195.830885 
L 336.163397 195.542627 
L 336.423657 195.470562 
L 336.501735 195.326434 
L 336.761995 195.254369 
L 336.761995 195.182305 
L 336.931164 195.182305 
L 336.944177 194.966111 
L 337.360593 194.894047 
L 337.360593 194.821983 
L 338.102334 194.749918 
L 338.115347 194.605789 
L 338.193425 194.605789 
L 338.310542 194.533725 
L 338.310542 194.46166 
L 338.596828 194.389596 
L 338.596828 194.317532 
L 338.792023 194.245467 
L 338.844075 194.101338 
L 339.000231 194.029274 
L 339.03927 193.885145 
L 339.195426 193.885145 
L 339.195426 193.741016 
L 339.794024 193.741016 
L 339.833063 193.524823 
L 340.041271 193.452758 
L 340.054284 193.30863 
L 340.457687 193.236565 
L 340.483713 193.092436 
L 340.756986 193.020372 
L 340.848077 192.876243 
L 341.030259 192.804179 
L 341.069298 192.66005 
L 341.186415 192.587985 
L 341.225454 192.443856 
L 341.342571 192.443856 
L 341.342571 192.299728 
L 341.719948 192.227663 
L 341.798026 191.939405 
L 341.915143 191.939405 
L 341.915143 191.795277 
L 342.110338 191.723212 
L 342.175403 191.507019 
L 342.29252 191.507019 
L 342.29252 191.36289 
L 342.526754 191.290826 
L 342.526754 191.218761 
L 342.708936 191.146697 
L 342.81304 190.71431 
L 342.956183 190.642246 
L 342.969196 190.570181 
L 343.099326 190.570181 
L 343.125352 190.209859 
L 343.320547 190.137795 
L 343.320547 190.06573 
L 343.515742 189.993666 
L 343.515742 189.921601 
L 343.85408 189.849537 
L 343.85408 189.777473 
L 344.023248 189.705408 
L 344.023248 189.633344 
L 344.439664 189.561279 
L 344.439664 189.489215 
L 344.934158 189.41715 
L 344.98621 189.273022 
L 345.025249 189.273022 
L 345.24647 189.200957 
L 345.311535 189.056828 
L 345.675899 188.984764 
L 345.675899 188.912699 
L 345.701925 188.912699 
L 346.274497 188.840635 
L 346.274497 188.696506 
L 346.482705 188.624442 
L 346.586809 188.408248 
L 346.964186 188.336184 
L 346.964186 188.26412 
L 347.679901 188.192055 
L 347.679901 188.119991 
L 347.84907 188.047926 
L 347.953174 187.903797 
L 348.070291 187.831733 
L 348.070291 187.759669 
L 348.226447 187.687604 
L 348.330551 187.543475 
L 348.551772 187.471411 
L 348.642863 187.255218 
L 348.955175 187.183153 
L 348.955175 187.111089 
L 349.332552 187.039024 
L 349.332552 186.894895 
L 349.514734 186.822831 
L 349.618838 186.678702 
L 349.722942 186.606638 
L 349.735955 186.462509 
L 349.957176 186.390444 
L 349.957176 186.31838 
L 350.282501 186.246316 
L 350.282501 186.174251 
L 350.373592 186.174251 
L 350.594813 186.102187 
L 350.594813 186.030122 
L 350.84206 185.958058 
L 350.84206 185.885993 
L 351.115333 185.813929 
L 351.180398 185.597736 
L 351.440658 185.525671 
L 351.440658 185.453607 
L 351.661879 185.381542 
L 351.75297 185.165349 
L 352.130347 185.093285 
L 352.130347 185.02122 
L 352.299516 184.949156 
L 352.40362 184.660898 
L 352.767984 184.660898 
L 352.767984 184.588834 
L 352.898114 184.300576 
L 353.171387 184.228512 
L 353.171387 184.156447 
L 353.522738 184.084383 
L 353.600816 183.940254 
L 354.004219 183.868189 
L 354.069284 183.651996 
L 354.238453 183.651996 
L 354.277492 183.435803 
L 354.407622 183.363738 
L 354.407622 183.291674 
L 354.902116 183.21961 
L 354.980194 182.931352 
L 355.513727 182.859287 
L 355.513727 182.787223 
L 356.17739 182.715159 
L 356.17739 182.643094 
L 356.372585 182.57103 
L 356.372585 182.498965 
L 356.489702 182.498965 
L 356.489702 182.282772 
L 357.04926 182.210708 
L 357.04926 181.994514 
L 357.387598 181.92245 
L 357.387598 181.850385 
L 357.738949 181.778321 
L 357.843053 181.562128 
L 358.038248 181.490063 
L 358.0903 181.345934 
L 358.246456 181.27387 
L 358.35056 181.129741 
L 358.389599 181.057677 
L 358.467677 180.913548 
L 358.493703 180.913548 
L 358.584794 180.841483 
L 358.623833 180.697355 
L 358.858067 180.697355 
L 358.858067 180.481161 
L 359.144353 180.409097 
L 359.144353 180.337032 
L 359.326535 180.264968 
L 359.404613 179.97671 
L 359.768977 179.904646 
L 359.834042 179.616388 
L 360.068276 179.544324 
L 360.133341 179.32813 
L 360.289497 179.32813 
L 360.289497 179.184002 
L 360.549757 179.111937 
L 360.549757 179.039873 
L 360.901108 178.967808 
L 360.901108 178.895744 
L 361.135342 178.823679 
L 361.226433 178.679551 
L 361.447654 178.679551 
L 361.447654 178.535422 
L 361.799005 178.463357 
L 361.799005 178.391293 
L 362.423629 178.319228 
L 362.501707 178.1751 
L 362.892097 178.103035 
L 362.892097 178.030971 
L 363.776981 177.958906 
L 363.776981 177.886842 
L 364.037241 177.814777 
L 364.141345 177.454455 
L 364.284488 177.382391 
L 364.388592 177.022069 
L 364.635839 176.950004 
L 364.687891 176.733811 
L 365.403606 176.661747 
L 365.494697 176.373489 
L 365.598801 176.301424 
L 365.702905 176.085231 
L 365.911113 176.013167 
L 366.015217 175.869038 
L 366.093295 175.869038 
L 366.132334 175.652845 
L 366.535737 175.58078 
L 366.639841 175.436651 
L 366.717919 175.364587 
L 366.795997 175.148394 
L 367.524725 175.076329 
L 367.58979 174.860136 
L 367.797998 174.788071 
L 367.85005 174.643943 
L 368.123323 174.571878 
L 368.136336 174.499814 
L 368.331531 174.427749 
L 368.422622 174.139492 
L 368.5007 174.139492 
L 368.604804 173.851234 
L 369.086285 173.779169 
L 369.086285 173.707105 
L 369.463662 173.635041 
L 369.463662 173.562976 
L 369.854052 173.490912 
L 369.93213 173.274718 
L 370.023221 173.202654 
L 370.023221 173.13059 
L 370.67387 173.058525 
L 370.67387 172.986461 
L 371.32452 172.914396 
L 371.32452 172.842332 
L 371.519715 172.770267 
L 371.58478 172.626139 
L 372.313508 172.554074 
L 372.326521 172.409945 
L 372.612807 172.337881 
L 372.690885 172.193752 
L 372.834028 172.121688 
L 372.834028 172.049623 
L 372.964158 172.049623 
L 372.964158 171.905494 
L 373.211405 171.83343 
L 373.237431 171.617237 
L 373.354548 171.545172 
L 373.354548 171.473108 
L 374.070263 171.401043 
L 374.070263 171.328979 
L 374.44764 171.256914 
L 374.44764 171.18485 
L 374.668861 171.112786 
L 374.772965 170.968657 
L 375.007199 170.896592 
L 375.059251 170.752463 
L 375.150342 170.680399 
L 375.254446 170.53627 
L 375.644836 170.464206 
L 375.644836 170.392141 
L 375.931122 170.320077 
L 375.931122 170.248012 
L 376.438629 170.175948 
L 376.438629 170.031819 
L 376.607798 170.031819 
L 376.607798 169.88769 
L 377.115305 169.815626 
L 377.115305 169.743561 
L 377.427617 169.671497 
L 377.44063 169.527368 
L 377.778968 169.455304 
L 377.778968 169.383239 
L 377.870059 169.383239 
L 378.09128 169.311175 
L 378.195384 168.878788 
L 378.780969 168.806724 
L 378.780969 168.734659 
L 379.171359 168.662595 
L 379.236424 168.446402 
L 379.431619 168.374337 
L 379.496684 168.230208 
L 379.717905 168.158144 
L 379.78297 167.941951 
L 380.264451 167.869886 
L 380.316503 167.725757 
L 380.485672 167.725757 
L 380.511698 167.509564 
L 380.589776 167.509564 
L 380.771958 167.4375 
L 380.771958 167.365435 
L 381.006192 167.293371 
L 381.006192 167.221306 
L 381.500686 167.149242 
L 381.526712 167.005113 
L 381.695881 166.933049 
L 381.786972 166.500662 
L 382.333518 166.428598 
L 382.333518 166.356533 
L 382.736921 166.284469 
L 382.814999 166.14034 
L 383.25744 166.068276 
L 383.348531 165.707953 
L 383.595778 165.635889 
L 383.595778 165.563825 
L 383.790973 165.49176 
L 383.895077 165.275567 
L 383.973155 165.203502 
L 383.973155 165.131438 
L 384.337519 165.059374 
L 384.337519 164.987309 
L 384.584766 164.915245 
L 384.584766 164.84318 
L 385.235416 164.771116 
L 385.235416 164.699051 
L 385.430611 164.626987 
L 385.430611 164.554923 
L 385.456637 164.554923 
L 385.86004 164.482858 
L 385.886066 164.338729 
L 386.354534 164.266665 
L 386.38056 164.122536 
L 386.783963 164.050472 
L 386.783963 163.978407 
L 387.55173 163.906343 
L 387.55173 163.834278 
L 387.81199 163.762214 
L 387.81199 163.690149 
L 387.955133 163.618085 
L 387.968146 163.546021 
L 388.306484 163.473956 
L 388.306484 163.401892 
L 388.501679 163.329827 
L 388.501679 163.257763 
L 388.553731 163.257763 
L 388.85303 163.185698 
L 388.85303 163.04157 
L 388.98316 163.04157 
L 388.98316 162.897441 
L 389.256433 162.825376 
L 389.347524 162.681247 
L 389.750927 162.609183 
L 389.868044 162.39299 
L 390.115291 162.39299 
L 390.206382 162.104732 
L 390.297473 162.032668 
L 390.297473 161.960603 
L 391.351526 161.888539 
L 391.416591 161.672345 
L 392.10628 161.600281 
L 392.10628 161.528217 
L 392.509683 161.456152 
L 392.613787 161.167894 
L 392.782956 161.09583 
L 392.782956 161.023766 
L 393.121294 160.951701 
L 393.121294 160.879637 
L 393.199372 160.879637 
L 393.511684 160.807572 
L 393.511684 160.735508 
L 393.563736 160.735508 
L 393.9281 160.663443 
L 393.9281 160.519315 
L 394.240412 160.44725 
L 394.253425 160.375186 
L 394.930101 160.303121 
L 394.930101 160.231057 
L 394.96914 160.231057 
L 395.177348 160.158992 
L 395.268439 159.942799 
L 395.424595 159.870735 
L 395.424595 159.79867 
L 395.74992 159.79867 
L 395.775946 159.582477 
L 395.827998 159.582477 
L 396.309479 159.510413 
L 396.309479 159.438348 
L 396.400569 159.438348 
L 398.118285 159.366284 
L 398.222389 159.222155 
L 398.287454 159.15009 
L 398.287454 159.078026 
L 398.31348 159.078026 
L 398.417584 159.005962 
L 398.521688 158.861833 
L 398.768935 158.789768 
L 398.794961 158.645639 
L 398.96413 158.573575 
L 398.96413 158.501511 
L 399.185351 158.429446 
L 399.185351 158.357382 
L 399.432598 158.285317 
L 399.432598 158.213253 
L 399.927092 158.141188 
L 400.018183 157.852931 
L 400.330495 157.780866 
L 400.39556 157.492609 
L 400.994158 157.420544 
L 401.072236 157.132286 
L 401.501665 157.060222 
L 401.553717 156.916093 
L 401.787951 156.844029 
L 401.853016 156.6999 
L 402.022185 156.627835 
L 402.022185 156.555771 
L 402.191354 156.483707 
L 402.21738 156.339578 
L 402.946108 156.267513 
L 402.946108 156.195449 
L 403.024186 156.195449 
L 403.154316 156.123384 
L 403.154316 156.05132 
L 403.466628 155.979256 
L 403.466628 155.907191 
L 403.935096 155.835127 
L 403.935096 155.763062 
L 404.520681 155.690998 
L 404.611772 155.618933 
L 405.145305 155.546869 
L 405.145305 155.40274 
L 405.171331 155.40274 
L 405.47063 155.330676 
L 405.561721 155.186547 
L 405.73089 155.114482 
L 405.821981 154.826225 
L 406.186345 154.75416 
L 406.186345 154.682096 
L 406.277436 154.682096 
L 407.03219 154.610031 
L 407.110268 154.393838 
L 407.68284 154.321774 
L 407.747905 154.177645 
L 408.034191 154.10558 
L 408.112269 153.889387 
L 408.372529 153.817323 
L 408.372529 153.745258 
L 408.580737 153.673194 
L 408.580737 153.601129 
L 408.632789 153.601129 
L 409.218374 153.529065 
L 409.283439 153.384936 
L 409.673828 153.312872 
L 409.699854 153.096678 
L 410.311465 153.024614 
L 410.311465 152.95255 
L 410.37653 152.95255 
L 410.805959 152.880485 
L 410.910063 152.664292 
L 411.105258 152.592227 
L 411.105258 152.520163 
L 411.456609 152.448099 
L 411.456609 152.376034 
L 411.742895 152.30397 
L 411.742895 152.231905 
L 411.899051 152.159841 
L 411.899051 152.087776 
L 412.536688 152.015712 
L 412.614766 151.871583 
L 412.888039 151.799519 
L 412.927078 151.367132 
L 412.966117 151.367132 
L 413.23939 151.295068 
L 413.304455 151.150939 
L 413.408559 151.078874 
L 413.512663 150.862681 
L 414.02017 150.790617 
L 414.033183 150.646488 
L 414.970119 150.574423 
L 415.009158 150.430295 
L 415.19134 150.35823 
L 415.217366 150.214101 
L 415.243392 150.214101 
L 415.438587 150.142037 
L 415.438587 150.069972 
L 415.815964 149.997908 
L 415.907055 149.853779 
L 416.700848 149.781715 
L 416.726874 149.565521 
L 416.987134 149.565521 
L 417.091238 149.349328 
L 417.976122 149.277264 
L 417.976122 149.205199 
L 418.418564 149.133135 
L 418.418564 149.06107 
L 418.730876 148.989006 
L 418.795941 148.844877 
L 419.160305 148.772813 
L 419.251396 148.628684 
L 419.381526 148.556619 
L 419.433578 148.340426 
L 420.175319 148.268362 
L 420.175319 148.196297 
L 420.435579 148.124233 
L 420.435579 148.052168 
L 420.552696 148.052168 
L 420.630774 147.835975 
L 421.17732 147.763911 
L 421.17732 147.691846 
L 421.424567 147.619782 
L 421.424567 147.547717 
L 422.322464 147.475653 
L 422.400542 147.187395 
L 422.517658 147.115331 
L 422.517658 147.043266 
L 422.582723 147.043266 
L 423.09023 146.971202 
L 423.116256 146.827073 
L 423.506646 146.755009 
L 423.506646 146.682944 
L 423.988127 146.61088 
L 423.988127 146.538815 
L 425.094232 146.466751 
L 425.094232 146.394687 
L 425.146284 146.394687 
L 425.901038 146.322622 
L 425.927064 146.178493 
L 426.538675 146.106429 
L 426.590727 145.9623 
L 427.488624 145.890236 
L 427.488624 145.818171 
L 428.230365 145.746107 
L 428.230365 145.674042 
L 429.141275 145.601978 
L 429.245379 145.457849 
L 429.388522 145.385785 
L 429.427561 145.169591 
L 429.935068 145.097527 
L 429.935068 145.025462 
L 430.208341 144.953398 
L 430.260393 144.809269 
L 430.455588 144.809269 
L 430.468601 144.593076 
L 430.924056 144.521012 
L 430.924056 144.448947 
L 431.613745 144.376883 
L 431.613745 144.304818 
L 431.900031 144.232754 
L 431.900031 144.160689 
L 432.082213 144.160689 
L 432.173304 143.944496 
L 432.615746 143.872432 
L 432.615746 143.800367 
L 432.98011 143.728303 
L 432.98011 143.656238 
L 433.917046 143.584174 
L 433.917046 143.51211 
L 434.359488 143.440045 
L 434.41154 143.295916 
L 434.749878 143.223852 
L 434.749878 143.151787 
L 435.413541 143.079723 
L 435.413541 143.007659 
L 435.439567 143.007659 
L 435.621748 142.935594 
L 435.621748 142.86353 
L 435.882008 142.791465 
L 435.882008 142.719401 
L 436.168294 142.647336 
L 436.246372 142.503208 
L 437.10523 142.431143 
L 437.10523 142.359079 
L 437.664789 142.287014 
L 437.664789 142.21495 
L 438.224348 142.142885 
L 438.224348 141.998757 
L 438.731855 141.926692 
L 438.809933 141.710499 
L 439.642765 141.638434 
L 439.70783 141.494306 
L 439.929051 141.422241 
L 439.929051 141.350177 
L 440.09822 141.278112 
L 440.150272 141.133983 
L 440.384506 141.061919 
L 440.423545 140.773661 
L 441.13926 140.701597 
L 441.152273 140.557468 
L 441.425546 140.485404 
L 441.52965 140.26921 
L 441.646767 140.197146 
L 441.646767 140.125081 
L 441.78991 140.053017 
L 441.841962 139.908888 
L 442.635755 139.836824 
L 442.635755 139.764759 
L 442.687807 139.764759 
L 442.869989 139.692695 
L 442.869989 139.62063 
L 443.247366 139.548566 
L 443.247366 139.476502 
L 443.338457 139.476502 
L 443.819938 139.404437 
L 443.819938 139.332373 
L 444.145263 139.260308 
L 444.145263 139.188244 
L 445.056173 139.116179 
L 445.056173 139.044115 
L 445.355472 138.972051 
L 445.368485 138.827922 
L 445.56368 138.755857 
L 445.56368 138.683793 
L 445.784901 138.683793 
L 445.862979 138.323471 
L 446.86498 138.251406 
L 446.917032 138.107277 
L 447.073188 138.035213 
L 447.073188 137.963149 
L 448.322436 137.891084 
L 448.322436 137.81902 
L 448.348462 137.81902 
L 448.595709 137.746955 
L 448.595709 137.674891 
L 449.246358 137.602826 
L 449.311423 137.386633 
L 450.105216 137.314569 
L 450.131242 137.098375 
L 451.081191 137.026311 
L 451.081191 136.954247 
L 451.809919 136.882182 
L 451.809919 136.810118 
L 452.356465 136.738053 
L 452.434543 136.593924 
L 453.176284 136.52186 
L 453.254362 136.305667 
L 453.85296 136.233602 
L 453.85296 136.161538 
L 454.087194 136.089473 
L 454.087194 136.017409 
L 454.334441 135.945345 
L 454.334441 135.87328 
L 454.802909 135.801216 
L 454.920026 135.585022 
L 455.232338 135.512958 
L 455.28439 135.368829 
L 456.221326 135.296765 
L 456.221326 135.2247 
L 456.767872 135.152636 
L 456.767872 135.080571 
L 456.819924 135.080571 
L 457.301405 135.008507 
L 457.301405 134.864378 
L 457.769873 134.792314 
L 457.769873 134.720249 
L 457.965068 134.648185 
L 457.965068 134.57612 
L 458.01712 134.57612 
L 459.279381 134.504056 
L 459.344446 134.359927 
L 459.734836 134.287863 
L 459.760862 134.143734 
L 459.930031 134.071669 
L 460.034135 133.855476 
L 460.48959 133.783412 
L 460.48959 133.711347 
L 461.309409 133.639283 
L 461.309409 133.567218 
L 461.374474 133.567218 
L 461.816915 133.495154 
L 461.816915 133.42309 
L 462.01211 133.42309 
L 462.129227 133.206896 
L 462.311409 133.134832 
L 462.4025 132.918639 
L 462.571669 132.846574 
L 462.623721 132.630381 
L 462.766864 132.558316 
L 462.870968 132.414188 
L 463.508605 132.342123 
L 463.508605 132.270059 
L 463.586683 132.270059 
L 464.432528 132.197994 
L 464.432528 132.12593 
L 464.536632 132.12593 
L 465.148243 132.053865 
L 465.187282 131.909737 
L 465.226321 131.909737 
L 465.499594 131.837672 
L 465.499594 131.765608 
L 465.564659 131.765608 
L 465.837932 131.693543 
L 465.837932 131.621479 
L 466.280374 131.549414 
L 466.280374 131.47735 
L 466.735829 131.405286 
L 466.735829 131.333221 
L 467.425518 131.261157 
L 467.451544 131.044963 
L 467.763856 130.972899 
L 467.789882 130.82877 
L 468.427519 130.756706 
L 468.427519 130.684641 
L 468.987078 130.612577 
L 468.987078 130.540512 
L 469.078169 130.540512 
L 469.481572 130.468448 
L 469.572663 130.324319 
L 469.832923 130.252255 
L 469.832923 130.18019 
L 469.924014 130.18019 
L 470.314404 130.108126 
L 470.314404 130.036061 
L 470.847937 129.963997 
L 470.847937 129.891933 
L 471.784873 129.819868 
L 471.784873 129.747804 
L 471.849938 129.747804 
L 472.864952 129.675739 
L 472.864952 129.603675 
L 473.33342 129.53161 
L 473.33342 129.459546 
L 473.762849 129.459546 
L 473.762849 129.315417 
L 474.140226 129.315417 
L 474.140226 129.171288 
L 475.610694 129.099224 
L 475.701785 128.955095 
L 476.079162 128.883031 
L 476.079162 128.810966 
L 476.690773 128.738902 
L 476.690773 128.666837 
L 477.523605 128.594773 
L 477.523605 128.522708 
L 477.835917 128.450644 
L 477.874956 128.234451 
L 478.252333 128.162386 
L 478.356437 128.018257 
L 478.929009 127.946193 
L 478.929009 127.874129 
L 479.449529 127.802064 
L 479.449529 127.73 
L 479.904984 127.657935 
L 479.904984 127.585871 
L 480.646725 127.513806 
L 480.750829 127.369678 
L 480.802881 127.369678 
L 480.802881 127.225549 
L 481.557635 127.153484 
L 481.557635 127.08142 
L 481.765843 127.009355 
L 481.843921 126.793162 
L 482.052129 126.721098 
L 482.052129 126.649033 
L 482.130207 126.649033 
L 482.66374 126.576969 
L 482.66374 126.504904 
L 483.18426 126.43284 
L 483.18426 126.360776 
L 483.639715 126.288711 
L 483.639715 126.216647 
L 484.563638 126.144582 
L 484.563638 126.072518 
L 484.914989 126.000453 
L 484.914989 125.928389 
L 485.773847 125.856325 
L 485.773847 125.78426 
L 487.699771 125.712196 
L 487.712784 125.568067 
L 488.675745 125.496002 
L 488.675745 125.423938 
L 488.766836 125.423938 
L 489.066135 125.351874 
L 489.066135 125.207745 
L 489.768837 125.13568 
L 489.820889 124.991551 
L 490.69276 124.919487 
L 490.69276 124.847423 
L 490.770838 124.847423 
L 491.174241 124.775358 
L 491.239306 124.631229 
L 491.434501 124.559165 
L 491.460527 124.415036 
L 491.824891 124.342972 
L 491.837904 124.198843 
L 491.876943 124.198843 
L 492.527593 124.126778 
L 492.527593 124.054714 
L 493.620685 123.982649 
L 493.620685 123.910585 
L 494.739803 123.838521 
L 494.804868 123.694392 
L 495.572635 123.622327 
L 495.572635 123.550263 
L 495.663726 123.550263 
L 496.67874 123.478198 
L 496.80887 123.33407 
L 497.186247 123.262005 
L 497.186247 123.189941 
L 497.277338 123.189941 
L 498.943002 123.117876 
L 498.943002 123.045812 
L 499.593652 122.973747 
L 499.593652 122.901683 
L 499.775834 122.901683 
L 499.827886 122.68549 
L 500.32238 122.613425 
L 500.32238 122.541361 
L 501.337393 122.469296 
L 501.350406 122.325168 
L 502.027082 122.253103 
L 502.118173 121.964845 
L 503.822876 121.892781 
L 503.92698 121.676588 
L 504.57763 121.604523 
L 504.57763 121.532459 
L 506.334385 121.460394 
L 506.334385 121.38833 
L 506.880931 121.38833 
L 506.880931 121.172137 
L 507.076126 121.100072 
L 507.076126 121.028008 
L 507.648698 120.955943 
L 507.70075 120.811815 
L 508.065114 120.73975 
L 508.065114 120.667686 
L 508.923972 120.595621 
L 508.989037 120.451492 
L 509.795843 120.379428 
L 509.795843 120.235299 
L 510.134181 120.163235 
L 510.238285 120.019106 
L 510.797844 119.947041 
L 510.797844 119.874977 
L 511.708754 119.802913 
L 511.708754 119.730848 
L 512.580625 119.658784 
L 512.632677 119.514655 
L 513.348392 119.44259 
L 513.439483 119.298462 
L 514.259301 119.226397 
L 514.259301 119.154333 
L 514.415457 119.082268 
L 514.415457 119.010204 
L 515.183224 118.938139 
L 515.183224 118.794011 
L 515.768809 118.721946 
L 515.768809 118.649882 
L 515.8599 118.649882 
L 516.211251 118.577817 
L 516.211251 118.505753 
L 516.445485 118.433688 
L 516.445485 118.361624 
L 517.434473 118.28956 
L 517.434473 118.217495 
L 518.267305 118.145431 
L 518.267305 118.073366 
L 518.917955 118.001302 
L 518.996033 117.785109 
L 519.126163 117.713044 
L 519.126163 117.64098 
L 519.529566 117.568915 
L 519.529566 117.496851 
L 520.583619 117.496851 
L 520.583619 117.352722 
L 520.817853 117.280658 
L 520.817853 117.208593 
L 521.702737 117.136529 
L 521.806841 116.920335 
L 522.23627 116.848271 
L 522.23627 116.776207 
L 522.288322 116.776207 
L 522.717751 116.704142 
L 522.717751 116.632078 
L 523.199232 116.560013 
L 523.199232 116.487949 
L 524.18822 116.415884 
L 524.18822 116.34382 
L 524.929961 116.271756 
L 524.929961 116.199691 
L 525.762793 116.127627 
L 525.866897 115.983498 
L 526.738768 115.911433 
L 526.738768 115.839369 
L 526.777807 115.839369 
L 527.545573 115.767305 
L 527.545573 115.69524 
L 529.458484 115.623176 
L 529.471497 115.551111 
L 529.705731 115.479047 
L 529.705731 115.406982 
L 530.200225 115.334918 
L 530.200225 115.262854 
L 530.629654 115.190789 
L 530.720745 115.04666 
L 531.267291 114.974596 
L 531.30633 114.830467 
L 532.061084 114.758403 
L 532.061084 114.686338 
L 532.451474 114.614274 
L 532.451474 114.542209 
L 532.555578 114.542209 
L 532.724747 114.470145 
L 532.724747 114.39808 
L 533.076098 114.326016 
L 533.076098 114.253952 
L 535.366386 114.181887 
L 535.366386 114.109823 
L 536.017036 114.037758 
L 536.043062 113.893629 
L 536.524543 113.821565 
L 536.589608 113.677436 
L 537.071089 113.605372 
L 537.071089 113.533307 
L 538.372389 113.461243 
L 538.372389 113.389178 
L 539.387403 113.317114 
L 539.387403 113.24505 
L 540.077092 113.172985 
L 540.168183 112.956792 
L 540.337352 112.884727 
L 540.337352 112.812663 
L 541.079092 112.740599 
L 541.183196 112.59647 
L 541.404417 112.524405 
L 541.404417 112.452341 
L 542.484496 112.380276 
L 542.497509 112.236148 
L 543.681692 112.164083 
L 543.681692 112.092019 
L 544.644654 112.019954 
L 544.644654 111.94789 
L 545.867876 111.875825 
L 545.867876 111.803761 
L 546.323331 111.731697 
L 546.401409 111.587568 
L 546.544552 111.515503 
L 546.544552 111.443439 
L 548.496502 111.371374 
L 548.496502 111.29931 
L 549.147152 111.227246 
L 549.147152 111.155181 
L 549.511516 111.083117 
L 549.511516 111.011052 
L 550.513517 110.938988 
L 550.513517 110.866923 
L 552.517519 110.794859 
L 552.517519 110.722795 
L 553.298299 110.65073 
L 553.38939 110.506601 
L 554.885884 110.434537 
L 554.885884 110.362472 
L 555.224222 110.290408 
L 555.263261 110.146279 
L 555.289287 110.146279 
L 558.230225 110.074215 
L 558.269264 109.930086 
L 559.388382 109.858021 
L 559.388382 109.785957 
L 560.624617 109.713893 
L 560.624617 109.641828 
L 563.318308 109.569764 
L 563.318308 109.497699 
L 566.402389 109.425635 
L 566.402389 109.35357 
L 567.976961 109.281506 
L 567.976961 109.209442 
L 568.002987 109.209442 
L 569.031014 109.137377 
L 569.031014 109.065313 
L 570.280262 108.993248 
L 570.345327 108.777055 
L 570.384366 108.777055 
L 570.410392 108.704991 
L 571.438419 108.632926 
L 571.516497 108.488797 
L 573.975954 108.416733 
L 573.975954 108.344668 
L 574.613591 108.272604 
L 574.613591 108.20054 
L 575.134111 108.128475 
L 575.199176 107.984346 
L 577.424399 107.912282 
L 577.424399 107.840217 
L 578.309283 107.768153 
L 578.309283 107.696089 
L 578.985959 107.624024 
L 578.985959 107.55196 
L 579.07705 107.55196 
L 579.675648 107.479895 
L 579.675648 107.407831 
L 581.25022 107.335766 
L 581.25022 107.263702 
L 582.200169 107.191638 
L 582.252221 107.047509 
L 586.091056 106.975444 
L 586.091056 106.90338 
L 587.730694 106.831315 
L 587.730694 106.759251 
L 588.485448 106.687187 
L 588.576539 106.543058 
L 589.994956 106.470993 
L 589.994956 106.398929 
L 592.454413 106.326864 
L 592.454413 106.182736 
L 594.718674 106.110671 
L 594.718674 106.038607 
L 594.770726 106.038607 
L 596.930884 105.966542 
L 596.930884 105.894478 
L 598.063015 105.822413 
L 598.076028 105.678285 
L 600.392342 105.60622 
L 600.392342 105.534156 
L 601.264213 105.462091 
L 601.368317 105.317962 
L 601.914863 105.245898 
L 601.914863 105.173834 
L 608.148089 105.101769 
L 608.148089 105.029705 
L 610.399338 104.95764 
L 610.399338 104.885576 
L 610.607546 104.813511 
L 610.607546 104.741447 
L 611.791729 104.669383 
L 611.791729 104.597318 
L 612.832769 104.525254 
L 612.832769 104.453189 
L 613.405341 104.381125 
L 613.405341 104.30906 
L 615.929863 104.236996 
L 615.942876 104.164932 
L 617.530462 104.092867 
L 617.530462 104.020803 
L 617.816748 103.948738 
L 617.816748 103.876674 
L 618.441372 103.804609 
L 618.441372 103.732545 
L 619.326255 103.660481 
L 619.326255 103.588416 
L 620.991919 103.516352 
L 621.056984 103.372223 
L 621.096023 103.372223 
L 621.525452 103.300158 
L 621.525452 103.228094 
L 621.629556 103.228094 
L 623.386311 103.15603 
L 623.386311 103.083965 
L 625.351274 103.011901 
L 625.351274 102.939836 
L 628.838758 102.867772 
L 628.838758 102.795707 
L 629.697616 102.723643 
L 629.697616 102.651579 
L 630.556474 102.579514 
L 630.556474 102.50745 
L 631.076994 102.435385 
L 631.076994 102.363321 
L 633.041956 102.291256 
L 633.041956 102.219192 
L 634.109022 102.147128 
L 634.148061 102.002999 
L 637.167077 101.930934 
L 637.167077 101.85887 
L 637.765675 101.786805 
L 637.765675 101.714741 
L 640.277184 101.642677 
L 640.277184 101.570612 
L 640.368275 101.570612 
L 641.487393 101.498548 
L 641.487393 101.426483 
L 642.046952 101.354419 
L 642.046952 101.282354 
L 642.866771 101.21029 
L 642.866771 101.138226 
L 643.270174 101.066161 
L 643.270174 100.994097 
L 644.350253 100.922032 
L 644.350253 100.849968 
L 644.636539 100.777903 
L 644.636539 100.705839 
L 645.911812 100.633775 
L 645.911812 100.56171 
L 646.588488 100.489646 
L 646.588488 100.417581 
L 647.356255 100.345517 
L 647.395294 100.201388 
L 648.33223 100.129324 
L 648.33223 100.057259 
L 650.219115 99.985195 
L 650.219115 99.91313 
L 651.559454 99.841066 
L 651.559454 99.769001 
L 652.262156 99.696937 
L 652.262156 99.624873 
L 652.36626 99.624873 
L 652.548442 99.552808 
L 652.548442 99.480744 
L 653.433326 99.408679 
L 653.433326 99.336615 
L 654.96886 99.26455 
L 654.96886 99.192486 
L 655.48938 99.120422 
L 655.48938 99.048357 
L 655.593484 99.048357 
L 657.818707 98.976293 
L 657.818707 98.904228 
L 659.106993 98.832164 
L 659.106993 98.760099 
L 659.887773 98.688035 
L 659.887773 98.615971 
L 663.12801 98.543906 
L 663.154036 98.399777 
L 668.307184 98.327713 
L 668.307184 98.255648 
L 668.346223 98.255648 
L 668.59347 98.183584 
L 668.59347 98.11152 
L 670.207082 98.039455 
L 670.220095 97.895326 
L 670.870745 97.823262 
L 670.870745 97.751197 
L 672.237109 97.679133 
L 672.250122 97.607069 
L 675.086956 97.535004 
L 675.086956 97.46294 
L 676.869737 97.390875 
L 676.869737 97.318811 
L 678.001868 97.246746 
L 678.001868 97.174682 
L 679.303168 97.102618 
L 679.303168 97.030553 
L 681.632495 96.958489 
L 681.632495 96.81436 
L 687.826682 96.742295 
L 687.826682 96.670231 
L 692.602453 96.598167 
L 692.602453 96.526102 
L 695.035884 96.454038 
L 695.113962 96.309909 
L 696.10295 96.237844 
L 696.10295 96.16578 
L 698.237081 96.093716 
L 698.237081 96.021651 
L 698.887731 95.949587 
L 698.887731 95.877522 
L 700.696538 95.805458 
L 700.696538 95.733393 
L 702.882722 95.661329 
L 702.882722 95.589265 
L 702.986826 95.589265 
L 703.585424 95.5172 
L 703.585424 95.445136 
L 706.096933 95.373071 
L 706.096933 95.301007 
L 708.764598 95.228942 
L 708.764598 95.156878 
L 708.855689 95.156878 
L 713.904732 95.084814 
L 713.904732 95.012749 
L 713.98281 95.012749 
L 717.249073 94.940685 
L 717.249073 94.86862 
L 721.868688 94.796556 
L 721.868688 94.724491 
L 727.099913 94.652427 
L 727.099913 94.580363 
L 727.204017 94.580363 
L 727.490303 94.508298 
L 727.490303 94.436234 
L 728.088901 94.364169 
L 728.088901 94.292105 
L 733.098906 94.22004 
L 733.098906 94.147976 
L 733.20301 94.147976 
L 734.126933 94.075912 
L 734.126933 94.003847 
L 740.230029 93.931783 
L 740.230029 93.859718 
L 749.573363 93.787654 
L 749.573363 93.715589 
L 750.991779 93.643525 
L 750.991779 93.571461 
L 753.919704 93.499396 
L 753.919704 93.427332 
L 757.810591 93.355267 
L 757.810591 93.283203 
L 760.387165 93.211138 
L 760.387165 93.139074 
L 768.181951 93.06701 
L 768.181951 92.994945 
L 778.032791 92.922881 
L 778.032791 92.850816 
L 780.700456 92.778752 
L 780.700456 92.706687 
L 782.652406 92.634623 
L 782.652406 92.562559 
L 785.268019 92.490494 
L 785.268019 92.41843 
L 790.902647 92.346365 
L 790.902647 92.274301 
L 792.516259 92.202236 
L 792.516259 92.130172 
L 794.142884 92.058108 
L 794.142884 91.986043 
L 795.288028 91.913979 
L 795.288028 91.841914 
L 797.057796 91.76985 
L 797.057796 91.697785 
L 799.413149 91.625721 
L 799.413149 91.553657 
L 799.465201 91.553657 
L 801.755489 91.481592 
L 801.755489 91.409528 
L 804.735465 91.337463 
L 804.735465 91.265399 
L 808.170897 91.193334 
L 808.222949 91.049206 
L 812.491213 90.977141 
L 812.491213 90.905077 
L 812.595317 90.905077 
L 816.99371 90.833012 
L 816.99371 90.760948 
L 823.578288 90.688883 
L 823.578288 90.616819 
L 828.236942 90.544755 
L 828.236942 90.47269 
L 837.840535 90.400626 
L 837.840535 90.328561 
L 848.433116 90.256497 
L 848.433116 90.184432 
L 862.68235 90.112368 
L 862.68235 90.040304 
L 865.636301 89.968239 
L 865.636301 89.896175 
L 867.067731 89.82411 
L 867.067731 89.752046 
L 874.22488 89.679981 
L 874.22488 89.607917 
L 879.586236 89.535853 
L 879.586236 89.463788 
L 888.383023 89.391724 
L 888.383023 89.319659 
L 897.765395 89.247595 
L 897.765395 89.17553 
L 903.582206 89.103466 
L 903.582206 89.031402 
L 903.608232 89.031402 
L 929.5041 88.959337 
L 929.5041 88.887273 
L 933.954545 88.887273 
L 933.954545 88.887273 
" clip-path="url(#p062106dee3)" style="fill: none; stroke: #4c72b0; stroke-width: 2; stroke-linecap: round"/>
   </g>
   <g id="line2d_14">
    <path d="M 173.045455 484.232727 
L 933.954545 88.887273 
" clip-path="url(#p062106dee3)" style="fill: none; stroke-dasharray: 5.55,2.4; stroke-dashoffset: 0; stroke: #ee82ee; stroke-width: 1.5"/>
   </g>
   <g id="patch_3">
    <path d="M 135 504 
L 135 69.12 
" style="fill: none; stroke: #ffffff; stroke-width: 1.25; stroke-linejoin: miter; stroke-linecap: square"/>
   </g>
   <g id="patch_4">
    <path d="M 972 504 
L 972 69.12 
" style="fill: none; stroke: #ffffff; stroke-width: 1.25; stroke-linejoin: miter; stroke-linecap: square"/>
   </g>
   <g id="patch_5">
    <path d="M 135 504 
L 972 504 
" style="fill: none; stroke: #ffffff; stroke-width: 1.25; stroke-linejoin: miter; stroke-linecap: square"/>
   </g>
   <g id="patch_6">
    <path d="M 135 69.12 
L 972 69.12 
" style="fill: none; stroke: #ffffff; stroke-width: 1.25; stroke-linejoin: miter; stroke-linecap: square"/>
   </g>
   <g id="text_15">
    <!-- ROC Curve for Mapped Features -->
    <g style="fill: #262626" transform="translate(465.137812 63.12)scale(0.12 -0.12)">
     <defs>
      <path id="ArialMT-52" d="M 503 0 
L 503 4581 
L 2534 4581 
Q 3147 4581 3465 4457 
Q 3784 4334 3975 4021 
Q 4166 3709 4166 3331 
Q 4166 2844 3850 2509 
Q 3534 2175 2875 2084 
Q 3116 1969 3241 1856 
Q 3506 1613 3744 1247 
L 4541 0 
L 3778 0 
L 3172 953 
Q 2906 1366 2734 1584 
Q 2563 1803 2427 1890 
Q 2291 1978 2150 2013 
Q 2047 2034 1813 2034 
L 1109 2034 
L 1109 0 
L 503 0 
z
M 1109 2559 
L 2413 2559 
Q 2828 2559 3062 2645 
Q 3297 2731 3419 2920 
Q 3541 3109 3541 3331 
Q 3541 3656 3305 3865 
Q 3069 4075 2559 4075 
L 1109 4075 
L 1109 2559 
z
" transform="scale(0.015625)"/>
      <path id="ArialMT-4f" d="M 309 2231 
Q 309 3372 921 4017 
Q 1534 4663 2503 4663 
Q 3138 4663 3647 4359 
Q 4156 4056 4423 3514 
Q 4691 2972 4691 2284 
Q 4691 1588 4409 1038 
Q 4128 488 3612 205 
Q 3097 -78 2500 -78 
Q 1853 -78 1343 234 
Q 834 547 571 1087 
Q 309 1628 309 2231 
z
M 934 2222 
Q 934 1394 1379 917 
Q 1825 441 2497 441 
Q 3181 441 3623 922 
Q 4066 1403 4066 2288 
Q 4066 2847 3877 3264 
Q 3688 3681 3323 3911 
Q 2959 4141 2506 4141 
Q 1863 4141 1398 3698 
Q 934 3256 934 2222 
z
" transform="scale(0.015625)"/>
      <path id="ArialMT-43" d="M 3763 1606 
L 4369 1453 
Q 4178 706 3683 314 
Q 3188 -78 2472 -78 
Q 1731 -78 1267 223 
Q 803 525 561 1097 
Q 319 1669 319 2325 
Q 319 3041 592 3573 
Q 866 4106 1370 4382 
Q 1875 4659 2481 4659 
Q 3169 4659 3637 4309 
Q 4106 3959 4291 3325 
L 3694 3184 
Q 3534 3684 3231 3912 
Q 2928 4141 2469 4141 
Q 1941 4141 1586 3887 
Q 1231 3634 1087 3207 
Q 944 2781 944 2328 
Q 944 1744 1114 1308 
Q 1284 872 1643 656 
Q 2003 441 2422 441 
Q 2931 441 3284 734 
Q 3638 1028 3763 1606 
z
" transform="scale(0.015625)"/>
      <path id="ArialMT-66" d="M 556 0 
L 556 2881 
L 59 2881 
L 59 3319 
L 556 3319 
L 556 3672 
Q 556 4006 616 4169 
Q 697 4388 901 4523 
Q 1106 4659 1475 4659 
Q 1713 4659 2000 4603 
L 1916 4113 
Q 1741 4144 1584 4144 
Q 1328 4144 1222 4034 
Q 1116 3925 1116 3625 
L 1116 3319 
L 1763 3319 
L 1763 2881 
L 1116 2881 
L 1116 0 
L 556 0 
z
" transform="scale(0.015625)"/>
      <path id="ArialMT-4d" d="M 475 0 
L 475 4581 
L 1388 4581 
L 2472 1338 
Q 2622 884 2691 659 
Q 2769 909 2934 1394 
L 4031 4581 
L 4847 4581 
L 4847 0 
L 4263 0 
L 4263 3834 
L 2931 0 
L 2384 0 
L 1059 3900 
L 1059 0 
L 475 0 
z
" transform="scale(0.015625)"/>
     </defs>
     <use xlink:href="#ArialMT-52"/>
     <use xlink:href="#ArialMT-4f" x="72.216797"/>
     <use xlink:href="#ArialMT-43" x="150"/>
     <use xlink:href="#ArialMT-20" x="222.216797"/>
     <use xlink:href="#ArialMT-43" x="250"/>
     <use xlink:href="#ArialMT-75" x="322.216797"/>
     <use xlink:href="#ArialMT-72" x="377.832031"/>
     <use xlink:href="#ArialMT-76" x="411.132812"/>
     <use xlink:href="#ArialMT-65" x="461.132812"/>
     <use xlink:href="#ArialMT-20" x="516.748047"/>
     <use xlink:href="#ArialMT-66" x="544.53125"/>
     <use xlink:href="#ArialMT-6f" x="572.314453"/>
     <use xlink:href="#ArialMT-72" x="627.929688"/>
     <use xlink:href="#ArialMT-20" x="661.230469"/>
     <use xlink:href="#ArialMT-4d" x="689.013672"/>
     <use xlink:href="#ArialMT-61" x="772.314453"/>
     <use xlink:href="#ArialMT-70" x="827.929688"/>
     <use xlink:href="#ArialMT-70" x="883.544922"/>
     <use xlink:href="#ArialMT-65" x="939.160156"/>
     <use xlink:href="#ArialMT-64" x="994.775391"/>
     <use xlink:href="#ArialMT-20" x="1050.390625"/>
     <use xlink:href="#ArialMT-46" x="1078.173828"/>
     <use xlink:href="#ArialMT-65" x="1139.257812"/>
     <use xlink:href="#ArialMT-61" x="1194.873047"/>
     <use xlink:href="#ArialMT-74" x="1250.488281"/>
     <use xlink:href="#ArialMT-75" x="1278.271484"/>
     <use xlink:href="#ArialMT-72" x="1333.886719"/>
     <use xlink:href="#ArialMT-65" x="1367.1875"/>
     <use xlink:href="#ArialMT-73" x="1422.802734"/>
    </g>
   </g>
  </g>
 </g>
 <defs>
  <clipPath id="p062106dee3">
   <rect x="135" y="69.12" width="837" height="434.88"/>
  </clipPath>
 </defs>
</svg>
