<?xml version="1.0" encoding="utf-8" standalone="no"?>
<!DOCTYPE svg PUBLIC "-//W3C//DTD SVG 1.1//EN"
  "http://www.w3.org/Graphics/SVG/1.1/DTD/svg11.dtd">
<svg xmlns:xlink="http://www.w3.org/1999/xlink" width="1080pt" height="576pt" viewBox="0 0 1080 576" xmlns="http://www.w3.org/2000/svg" version="1.1">
 <metadata>
  <rdf:RDF xmlns:dc="http://purl.org/dc/elements/1.1/" xmlns:cc="http://creativecommons.org/ns#" xmlns:rdf="http://www.w3.org/1999/02/22-rdf-syntax-ns#">
   <cc:Work>
    <dc:type rdf:resource="http://purl.org/dc/dcmitype/StillImage"/>
    <dc:date>2022-05-07T19:18:37.173088</dc:date>
    <dc:format>image/svg+xml</dc:format>
    <dc:creator>
     <cc:Agent>
      <dc:title>Matplotlib v3.5.1, https://matplotlib.org/</dc:title>
     </cc:Agent>
    </dc:creator>
   </cc:Work>
  </rdf:RDF>
 </metadata>
 <defs>
  <style type="text/css">*{stroke-linejoin: round; stroke-linecap: butt}</style>
 </defs>
 <g id="figure_1">
  <g id="patch_1">
   <path d="M 0 576 
L 1080 576 
L 1080 0 
L 0 0 
z
" style="fill: #ffffff"/>
  </g>
  <g id="axes_1">
   <g id="patch_2">
    <path d="M 135 504 
L 972 504 
L 972 69.12 
L 135 69.12 
z
" style="fill: #eaeaf2"/>
   </g>
   <g id="matplotlib.axis_1">
    <g id="xtick_1">
     <g id="line2d_1">
      <path d="M 173.045455 504 
L 173.045455 69.12 
" clip-path="url(#pdadfcc7091)" style="fill: none; stroke: #ffffff; stroke-linecap: round"/>
     </g>
     <g id="text_1">
      <!-- 0.0 -->
      <g style="fill: #262626" transform="translate(165.400455 521.373594)scale(0.11 -0.11)">
       <defs>
        <path id="ArialMT-30" d="M 266 2259 
Q 266 3072 433 3567 
Q 600 4063 929 4331 
Q 1259 4600 1759 4600 
Q 2128 4600 2406 4451 
Q 2684 4303 2865 4023 
Q 3047 3744 3150 3342 
Q 3253 2941 3253 2259 
Q 3253 1453 3087 958 
Q 2922 463 2592 192 
Q 2263 -78 1759 -78 
Q 1097 -78 719 397 
Q 266 969 266 2259 
z
M 844 2259 
Q 844 1131 1108 757 
Q 1372 384 1759 384 
Q 2147 384 2411 759 
Q 2675 1134 2675 2259 
Q 2675 3391 2411 3762 
Q 2147 4134 1753 4134 
Q 1366 4134 1134 3806 
Q 844 3388 844 2259 
z
" transform="scale(0.015625)"/>
        <path id="ArialMT-2e" d="M 581 0 
L 581 641 
L 1222 641 
L 1222 0 
L 581 0 
z
" transform="scale(0.015625)"/>
       </defs>
       <use xlink:href="#ArialMT-30"/>
       <use xlink:href="#ArialMT-2e" x="55.615234"/>
       <use xlink:href="#ArialMT-30" x="83.398438"/>
      </g>
     </g>
    </g>
    <g id="xtick_2">
     <g id="line2d_2">
      <path d="M 325.227273 504 
L 325.227273 69.12 
" clip-path="url(#pdadfcc7091)" style="fill: none; stroke: #ffffff; stroke-linecap: round"/>
     </g>
     <g id="text_2">
      <!-- 0.2 -->
      <g style="fill: #262626" transform="translate(317.582273 521.373594)scale(0.11 -0.11)">
       <defs>
        <path id="ArialMT-32" d="M 3222 541 
L 3222 0 
L 194 0 
Q 188 203 259 391 
Q 375 700 629 1000 
Q 884 1300 1366 1694 
Q 2113 2306 2375 2664 
Q 2638 3022 2638 3341 
Q 2638 3675 2398 3904 
Q 2159 4134 1775 4134 
Q 1369 4134 1125 3890 
Q 881 3647 878 3216 
L 300 3275 
Q 359 3922 746 4261 
Q 1134 4600 1788 4600 
Q 2447 4600 2831 4234 
Q 3216 3869 3216 3328 
Q 3216 3053 3103 2787 
Q 2991 2522 2730 2228 
Q 2469 1934 1863 1422 
Q 1356 997 1212 845 
Q 1069 694 975 541 
L 3222 541 
z
" transform="scale(0.015625)"/>
       </defs>
       <use xlink:href="#ArialMT-30"/>
       <use xlink:href="#ArialMT-2e" x="55.615234"/>
       <use xlink:href="#ArialMT-32" x="83.398438"/>
      </g>
     </g>
    </g>
    <g id="xtick_3">
     <g id="line2d_3">
      <path d="M 477.409091 504 
L 477.409091 69.12 
" clip-path="url(#pdadfcc7091)" style="fill: none; stroke: #ffffff; stroke-linecap: round"/>
     </g>
     <g id="text_3">
      <!-- 0.4 -->
      <g style="fill: #262626" transform="translate(469.764091 521.373594)scale(0.11 -0.11)">
       <defs>
        <path id="ArialMT-34" d="M 2069 0 
L 2069 1097 
L 81 1097 
L 81 1613 
L 2172 4581 
L 2631 4581 
L 2631 1613 
L 3250 1613 
L 3250 1097 
L 2631 1097 
L 2631 0 
L 2069 0 
z
M 2069 1613 
L 2069 3678 
L 634 1613 
L 2069 1613 
z
" transform="scale(0.015625)"/>
       </defs>
       <use xlink:href="#ArialMT-30"/>
       <use xlink:href="#ArialMT-2e" x="55.615234"/>
       <use xlink:href="#ArialMT-34" x="83.398438"/>
      </g>
     </g>
    </g>
    <g id="xtick_4">
     <g id="line2d_4">
      <path d="M 629.590909 504 
L 629.590909 69.12 
" clip-path="url(#pdadfcc7091)" style="fill: none; stroke: #ffffff; stroke-linecap: round"/>
     </g>
     <g id="text_4">
      <!-- 0.6 -->
      <g style="fill: #262626" transform="translate(621.945909 521.373594)scale(0.11 -0.11)">
       <defs>
        <path id="ArialMT-36" d="M 3184 3459 
L 2625 3416 
Q 2550 3747 2413 3897 
Q 2184 4138 1850 4138 
Q 1581 4138 1378 3988 
Q 1113 3794 959 3422 
Q 806 3050 800 2363 
Q 1003 2672 1297 2822 
Q 1591 2972 1913 2972 
Q 2475 2972 2870 2558 
Q 3266 2144 3266 1488 
Q 3266 1056 3080 686 
Q 2894 316 2569 119 
Q 2244 -78 1831 -78 
Q 1128 -78 684 439 
Q 241 956 241 2144 
Q 241 3472 731 4075 
Q 1159 4600 1884 4600 
Q 2425 4600 2770 4297 
Q 3116 3994 3184 3459 
z
M 888 1484 
Q 888 1194 1011 928 
Q 1134 663 1356 523 
Q 1578 384 1822 384 
Q 2178 384 2434 671 
Q 2691 959 2691 1453 
Q 2691 1928 2437 2201 
Q 2184 2475 1800 2475 
Q 1419 2475 1153 2201 
Q 888 1928 888 1484 
z
" transform="scale(0.015625)"/>
       </defs>
       <use xlink:href="#ArialMT-30"/>
       <use xlink:href="#ArialMT-2e" x="55.615234"/>
       <use xlink:href="#ArialMT-36" x="83.398438"/>
      </g>
     </g>
    </g>
    <g id="xtick_5">
     <g id="line2d_5">
      <path d="M 781.772727 504 
L 781.772727 69.12 
" clip-path="url(#pdadfcc7091)" style="fill: none; stroke: #ffffff; stroke-linecap: round"/>
     </g>
     <g id="text_5">
      <!-- 0.8 -->
      <g style="fill: #262626" transform="translate(774.127727 521.373594)scale(0.11 -0.11)">
       <defs>
        <path id="ArialMT-38" d="M 1131 2484 
Q 781 2613 612 2850 
Q 444 3088 444 3419 
Q 444 3919 803 4259 
Q 1163 4600 1759 4600 
Q 2359 4600 2725 4251 
Q 3091 3903 3091 3403 
Q 3091 3084 2923 2848 
Q 2756 2613 2416 2484 
Q 2838 2347 3058 2040 
Q 3278 1734 3278 1309 
Q 3278 722 2862 322 
Q 2447 -78 1769 -78 
Q 1091 -78 675 323 
Q 259 725 259 1325 
Q 259 1772 486 2073 
Q 713 2375 1131 2484 
z
M 1019 3438 
Q 1019 3113 1228 2906 
Q 1438 2700 1772 2700 
Q 2097 2700 2305 2904 
Q 2513 3109 2513 3406 
Q 2513 3716 2298 3927 
Q 2084 4138 1766 4138 
Q 1444 4138 1231 3931 
Q 1019 3725 1019 3438 
z
M 838 1322 
Q 838 1081 952 856 
Q 1066 631 1291 507 
Q 1516 384 1775 384 
Q 2178 384 2440 643 
Q 2703 903 2703 1303 
Q 2703 1709 2433 1975 
Q 2163 2241 1756 2241 
Q 1359 2241 1098 1978 
Q 838 1716 838 1322 
z
" transform="scale(0.015625)"/>
       </defs>
       <use xlink:href="#ArialMT-30"/>
       <use xlink:href="#ArialMT-2e" x="55.615234"/>
       <use xlink:href="#ArialMT-38" x="83.398438"/>
      </g>
     </g>
    </g>
    <g id="xtick_6">
     <g id="line2d_6">
      <path d="M 933.954545 504 
L 933.954545 69.12 
" clip-path="url(#pdadfcc7091)" style="fill: none; stroke: #ffffff; stroke-linecap: round"/>
     </g>
     <g id="text_6">
      <!-- 1.0 -->
      <g style="fill: #262626" transform="translate(926.309545 521.373594)scale(0.11 -0.11)">
       <defs>
        <path id="ArialMT-31" d="M 2384 0 
L 1822 0 
L 1822 3584 
Q 1619 3391 1289 3197 
Q 959 3003 697 2906 
L 697 3450 
Q 1169 3672 1522 3987 
Q 1875 4303 2022 4600 
L 2384 4600 
L 2384 0 
z
" transform="scale(0.015625)"/>
       </defs>
       <use xlink:href="#ArialMT-31"/>
       <use xlink:href="#ArialMT-2e" x="55.615234"/>
       <use xlink:href="#ArialMT-30" x="83.398438"/>
      </g>
     </g>
    </g>
    <g id="text_7">
     <!-- False positive rate -->
     <g style="fill: #262626" transform="translate(504.814687 536.149219)scale(0.12 -0.12)">
      <defs>
       <path id="ArialMT-46" d="M 525 0 
L 525 4581 
L 3616 4581 
L 3616 4041 
L 1131 4041 
L 1131 2622 
L 3281 2622 
L 3281 2081 
L 1131 2081 
L 1131 0 
L 525 0 
z
" transform="scale(0.015625)"/>
       <path id="ArialMT-61" d="M 2588 409 
Q 2275 144 1986 34 
Q 1697 -75 1366 -75 
Q 819 -75 525 192 
Q 231 459 231 875 
Q 231 1119 342 1320 
Q 453 1522 633 1644 
Q 813 1766 1038 1828 
Q 1203 1872 1538 1913 
Q 2219 1994 2541 2106 
Q 2544 2222 2544 2253 
Q 2544 2597 2384 2738 
Q 2169 2928 1744 2928 
Q 1347 2928 1158 2789 
Q 969 2650 878 2297 
L 328 2372 
Q 403 2725 575 2942 
Q 747 3159 1072 3276 
Q 1397 3394 1825 3394 
Q 2250 3394 2515 3294 
Q 2781 3194 2906 3042 
Q 3031 2891 3081 2659 
Q 3109 2516 3109 2141 
L 3109 1391 
Q 3109 606 3145 398 
Q 3181 191 3288 0 
L 2700 0 
Q 2613 175 2588 409 
z
M 2541 1666 
Q 2234 1541 1622 1453 
Q 1275 1403 1131 1340 
Q 988 1278 909 1158 
Q 831 1038 831 891 
Q 831 666 1001 516 
Q 1172 366 1500 366 
Q 1825 366 2078 508 
Q 2331 650 2450 897 
Q 2541 1088 2541 1459 
L 2541 1666 
z
" transform="scale(0.015625)"/>
       <path id="ArialMT-6c" d="M 409 0 
L 409 4581 
L 972 4581 
L 972 0 
L 409 0 
z
" transform="scale(0.015625)"/>
       <path id="ArialMT-73" d="M 197 991 
L 753 1078 
Q 800 744 1014 566 
Q 1228 388 1613 388 
Q 2000 388 2187 545 
Q 2375 703 2375 916 
Q 2375 1106 2209 1216 
Q 2094 1291 1634 1406 
Q 1016 1563 777 1677 
Q 538 1791 414 1992 
Q 291 2194 291 2438 
Q 291 2659 392 2848 
Q 494 3038 669 3163 
Q 800 3259 1026 3326 
Q 1253 3394 1513 3394 
Q 1903 3394 2198 3281 
Q 2494 3169 2634 2976 
Q 2775 2784 2828 2463 
L 2278 2388 
Q 2241 2644 2061 2787 
Q 1881 2931 1553 2931 
Q 1166 2931 1000 2803 
Q 834 2675 834 2503 
Q 834 2394 903 2306 
Q 972 2216 1119 2156 
Q 1203 2125 1616 2013 
Q 2213 1853 2448 1751 
Q 2684 1650 2818 1456 
Q 2953 1263 2953 975 
Q 2953 694 2789 445 
Q 2625 197 2315 61 
Q 2006 -75 1616 -75 
Q 969 -75 630 194 
Q 291 463 197 991 
z
" transform="scale(0.015625)"/>
       <path id="ArialMT-65" d="M 2694 1069 
L 3275 997 
Q 3138 488 2766 206 
Q 2394 -75 1816 -75 
Q 1088 -75 661 373 
Q 234 822 234 1631 
Q 234 2469 665 2931 
Q 1097 3394 1784 3394 
Q 2450 3394 2872 2941 
Q 3294 2488 3294 1666 
Q 3294 1616 3291 1516 
L 816 1516 
Q 847 969 1125 678 
Q 1403 388 1819 388 
Q 2128 388 2347 550 
Q 2566 713 2694 1069 
z
M 847 1978 
L 2700 1978 
Q 2663 2397 2488 2606 
Q 2219 2931 1791 2931 
Q 1403 2931 1139 2672 
Q 875 2413 847 1978 
z
" transform="scale(0.015625)"/>
       <path id="ArialMT-20" transform="scale(0.015625)"/>
       <path id="ArialMT-70" d="M 422 -1272 
L 422 3319 
L 934 3319 
L 934 2888 
Q 1116 3141 1344 3267 
Q 1572 3394 1897 3394 
Q 2322 3394 2647 3175 
Q 2972 2956 3137 2557 
Q 3303 2159 3303 1684 
Q 3303 1175 3120 767 
Q 2938 359 2589 142 
Q 2241 -75 1856 -75 
Q 1575 -75 1351 44 
Q 1128 163 984 344 
L 984 -1272 
L 422 -1272 
z
M 931 1641 
Q 931 1000 1190 694 
Q 1450 388 1819 388 
Q 2194 388 2461 705 
Q 2728 1022 2728 1688 
Q 2728 2322 2467 2637 
Q 2206 2953 1844 2953 
Q 1484 2953 1207 2617 
Q 931 2281 931 1641 
z
" transform="scale(0.015625)"/>
       <path id="ArialMT-6f" d="M 213 1659 
Q 213 2581 725 3025 
Q 1153 3394 1769 3394 
Q 2453 3394 2887 2945 
Q 3322 2497 3322 1706 
Q 3322 1066 3130 698 
Q 2938 331 2570 128 
Q 2203 -75 1769 -75 
Q 1072 -75 642 372 
Q 213 819 213 1659 
z
M 791 1659 
Q 791 1022 1069 705 
Q 1347 388 1769 388 
Q 2188 388 2466 706 
Q 2744 1025 2744 1678 
Q 2744 2294 2464 2611 
Q 2184 2928 1769 2928 
Q 1347 2928 1069 2612 
Q 791 2297 791 1659 
z
" transform="scale(0.015625)"/>
       <path id="ArialMT-69" d="M 425 3934 
L 425 4581 
L 988 4581 
L 988 3934 
L 425 3934 
z
M 425 0 
L 425 3319 
L 988 3319 
L 988 0 
L 425 0 
z
" transform="scale(0.015625)"/>
       <path id="ArialMT-74" d="M 1650 503 
L 1731 6 
Q 1494 -44 1306 -44 
Q 1000 -44 831 53 
Q 663 150 594 308 
Q 525 466 525 972 
L 525 2881 
L 113 2881 
L 113 3319 
L 525 3319 
L 525 4141 
L 1084 4478 
L 1084 3319 
L 1650 3319 
L 1650 2881 
L 1084 2881 
L 1084 941 
Q 1084 700 1114 631 
Q 1144 563 1211 522 
Q 1278 481 1403 481 
Q 1497 481 1650 503 
z
" transform="scale(0.015625)"/>
       <path id="ArialMT-76" d="M 1344 0 
L 81 3319 
L 675 3319 
L 1388 1331 
Q 1503 1009 1600 663 
Q 1675 925 1809 1294 
L 2547 3319 
L 3125 3319 
L 1869 0 
L 1344 0 
z
" transform="scale(0.015625)"/>
       <path id="ArialMT-72" d="M 416 0 
L 416 3319 
L 922 3319 
L 922 2816 
Q 1116 3169 1280 3281 
Q 1444 3394 1641 3394 
Q 1925 3394 2219 3213 
L 2025 2691 
Q 1819 2813 1613 2813 
Q 1428 2813 1281 2702 
Q 1134 2591 1072 2394 
Q 978 2094 978 1738 
L 978 0 
L 416 0 
z
" transform="scale(0.015625)"/>
      </defs>
      <use xlink:href="#ArialMT-46"/>
      <use xlink:href="#ArialMT-61" x="61.083984"/>
      <use xlink:href="#ArialMT-6c" x="116.699219"/>
      <use xlink:href="#ArialMT-73" x="138.916016"/>
      <use xlink:href="#ArialMT-65" x="188.916016"/>
      <use xlink:href="#ArialMT-20" x="244.53125"/>
      <use xlink:href="#ArialMT-70" x="272.314453"/>
      <use xlink:href="#ArialMT-6f" x="327.929688"/>
      <use xlink:href="#ArialMT-73" x="383.544922"/>
      <use xlink:href="#ArialMT-69" x="433.544922"/>
      <use xlink:href="#ArialMT-74" x="455.761719"/>
      <use xlink:href="#ArialMT-69" x="483.544922"/>
      <use xlink:href="#ArialMT-76" x="505.761719"/>
      <use xlink:href="#ArialMT-65" x="555.761719"/>
      <use xlink:href="#ArialMT-20" x="611.376953"/>
      <use xlink:href="#ArialMT-72" x="639.160156"/>
      <use xlink:href="#ArialMT-61" x="672.460938"/>
      <use xlink:href="#ArialMT-74" x="728.076172"/>
      <use xlink:href="#ArialMT-65" x="755.859375"/>
     </g>
    </g>
   </g>
   <g id="matplotlib.axis_2">
    <g id="ytick_1">
     <g id="line2d_7">
      <path d="M 135 484.232727 
L 972 484.232727 
" clip-path="url(#pdadfcc7091)" style="fill: none; stroke: #ffffff; stroke-linecap: round"/>
     </g>
     <g id="text_8">
      <!-- 0.0 -->
      <g style="fill: #262626" transform="translate(110.21 488.169524)scale(0.11 -0.11)">
       <use xlink:href="#ArialMT-30"/>
       <use xlink:href="#ArialMT-2e" x="55.615234"/>
       <use xlink:href="#ArialMT-30" x="83.398438"/>
      </g>
     </g>
    </g>
    <g id="ytick_2">
     <g id="line2d_8">
      <path d="M 135 405.163636 
L 972 405.163636 
" clip-path="url(#pdadfcc7091)" style="fill: none; stroke: #ffffff; stroke-linecap: round"/>
     </g>
     <g id="text_9">
      <!-- 0.2 -->
      <g style="fill: #262626" transform="translate(110.21 409.100433)scale(0.11 -0.11)">
       <use xlink:href="#ArialMT-30"/>
       <use xlink:href="#ArialMT-2e" x="55.615234"/>
       <use xlink:href="#ArialMT-32" x="83.398438"/>
      </g>
     </g>
    </g>
    <g id="ytick_3">
     <g id="line2d_9">
      <path d="M 135 326.094545 
L 972 326.094545 
" clip-path="url(#pdadfcc7091)" style="fill: none; stroke: #ffffff; stroke-linecap: round"/>
     </g>
     <g id="text_10">
      <!-- 0.4 -->
      <g style="fill: #262626" transform="translate(110.21 330.031342)scale(0.11 -0.11)">
       <use xlink:href="#ArialMT-30"/>
       <use xlink:href="#ArialMT-2e" x="55.615234"/>
       <use xlink:href="#ArialMT-34" x="83.398438"/>
      </g>
     </g>
    </g>
    <g id="ytick_4">
     <g id="line2d_10">
      <path d="M 135 247.025455 
L 972 247.025455 
" clip-path="url(#pdadfcc7091)" style="fill: none; stroke: #ffffff; stroke-linecap: round"/>
     </g>
     <g id="text_11">
      <!-- 0.6 -->
      <g style="fill: #262626" transform="translate(110.21 250.962251)scale(0.11 -0.11)">
       <use xlink:href="#ArialMT-30"/>
       <use xlink:href="#ArialMT-2e" x="55.615234"/>
       <use xlink:href="#ArialMT-36" x="83.398438"/>
      </g>
     </g>
    </g>
    <g id="ytick_5">
     <g id="line2d_11">
      <path d="M 135 167.956364 
L 972 167.956364 
" clip-path="url(#pdadfcc7091)" style="fill: none; stroke: #ffffff; stroke-linecap: round"/>
     </g>
     <g id="text_12">
      <!-- 0.8 -->
      <g style="fill: #262626" transform="translate(110.21 171.893161)scale(0.11 -0.11)">
       <use xlink:href="#ArialMT-30"/>
       <use xlink:href="#ArialMT-2e" x="55.615234"/>
       <use xlink:href="#ArialMT-38" x="83.398438"/>
      </g>
     </g>
    </g>
    <g id="ytick_6">
     <g id="line2d_12">
      <path d="M 135 88.887273 
L 972 88.887273 
" clip-path="url(#pdadfcc7091)" style="fill: none; stroke: #ffffff; stroke-linecap: round"/>
     </g>
     <g id="text_13">
      <!-- 1.0 -->
      <g style="fill: #262626" transform="translate(110.21 92.82407)scale(0.11 -0.11)">
       <use xlink:href="#ArialMT-31"/>
       <use xlink:href="#ArialMT-2e" x="55.615234"/>
       <use xlink:href="#ArialMT-30" x="83.398438"/>
      </g>
     </g>
    </g>
    <g id="text_14">
     <!-- True positive rate -->
     <g style="fill: #262626" transform="translate(103.825 332.685)rotate(-90)scale(0.12 -0.12)">
      <defs>
       <path id="ArialMT-54" d="M 1659 0 
L 1659 4041 
L 150 4041 
L 150 4581 
L 3781 4581 
L 3781 4041 
L 2266 4041 
L 2266 0 
L 1659 0 
z
" transform="scale(0.015625)"/>
       <path id="ArialMT-75" d="M 2597 0 
L 2597 488 
Q 2209 -75 1544 -75 
Q 1250 -75 995 37 
Q 741 150 617 320 
Q 494 491 444 738 
Q 409 903 409 1263 
L 409 3319 
L 972 3319 
L 972 1478 
Q 972 1038 1006 884 
Q 1059 663 1231 536 
Q 1403 409 1656 409 
Q 1909 409 2131 539 
Q 2353 669 2445 892 
Q 2538 1116 2538 1541 
L 2538 3319 
L 3100 3319 
L 3100 0 
L 2597 0 
z
" transform="scale(0.015625)"/>
      </defs>
      <use xlink:href="#ArialMT-54"/>
      <use xlink:href="#ArialMT-72" x="57.333984"/>
      <use xlink:href="#ArialMT-75" x="90.634766"/>
      <use xlink:href="#ArialMT-65" x="146.25"/>
      <use xlink:href="#ArialMT-20" x="201.865234"/>
      <use xlink:href="#ArialMT-70" x="229.648438"/>
      <use xlink:href="#ArialMT-6f" x="285.263672"/>
      <use xlink:href="#ArialMT-73" x="340.878906"/>
      <use xlink:href="#ArialMT-69" x="390.878906"/>
      <use xlink:href="#ArialMT-74" x="413.095703"/>
      <use xlink:href="#ArialMT-69" x="440.878906"/>
      <use xlink:href="#ArialMT-76" x="463.095703"/>
      <use xlink:href="#ArialMT-65" x="513.095703"/>
      <use xlink:href="#ArialMT-20" x="568.710938"/>
      <use xlink:href="#ArialMT-72" x="596.494141"/>
      <use xlink:href="#ArialMT-61" x="629.794922"/>
      <use xlink:href="#ArialMT-74" x="685.410156"/>
      <use xlink:href="#ArialMT-65" x="713.193359"/>
     </g>
    </g>
   </g>
   <g id="line2d_13">
    <path d="M 173.045455 484.232727 
L 173.149365 481.291716 
L 173.162354 481.291716 
L 173.240286 479.600634 
L 173.279253 479.600634 
L 173.383163 478.350705 
L 173.409141 478.277179 
L 173.500062 477.247825 
L 173.577995 477.1743 
L 173.668916 476.291997 
L 173.73386 476.218471 
L 173.811793 475.556744 
L 173.850759 475.556744 
L 173.95467 474.159763 
L 173.967658 474.159763 
L 174.032602 473.645086 
L 174.110535 473.645086 
L 174.201457 472.836308 
L 174.227434 472.836308 
L 174.331344 471.880479 
L 174.370311 471.806954 
L 174.474221 469.895297 
L 174.513187 469.821772 
L 174.565143 469.086519 
L 174.669053 469.012993 
L 174.759974 468.792418 
L 174.81193 468.718892 
L 174.902851 467.983639 
L 174.941817 467.910114 
L 175.032739 467.468962 
L 175.058716 467.468962 
L 175.149638 466.439608 
L 175.188604 466.366083 
L 175.292515 465.704356 
L 175.305503 465.704356 
L 175.383436 465.410254 
L 175.55229 465.336729 
L 175.643212 464.895577 
L 175.682178 464.895577 
L 175.786088 463.130971 
L 175.812066 463.057445 
L 175.87701 462.542768 
L 175.928965 462.542768 
L 176.032875 461.439889 
L 176.071842 461.366364 
L 176.162763 460.557586 
L 176.20173 460.557586 
L 176.30564 459.895858 
L 176.331618 459.895858 
L 176.435528 459.601757 
L 176.487483 459.528232 
L 176.591393 458.498878 
L 176.643348 458.425352 
L 176.708292 457.6901 
L 176.760247 457.6901 
L 176.864158 456.513695 
L 176.903124 456.44017 
L 177.007034 455.557866 
L 177.046001 455.484341 
L 177.149911 454.969664 
L 177.175889 454.969664 
L 177.253821 454.160886 
L 177.331754 454.160886 
L 177.422676 453.646209 
L 177.48762 453.572684 
L 177.565552 452.837431 
L 177.617507 452.763906 
L 177.721418 452.396279 
L 177.747395 452.396279 
L 177.851306 451.219875 
L 177.877283 451.146349 
L 177.981193 450.631672 
L 178.033149 450.558147 
L 178.137059 450.190521 
L 178.163036 450.190521 
L 178.266947 449.822894 
L 178.331891 449.822894 
L 178.383846 449.528793 
L 178.44879 449.528793 
L 178.539711 449.161167 
L 178.578678 449.161167 
L 178.682588 448.205338 
L 178.747532 448.131813 
L 178.851442 447.470085 
L 178.890408 447.39656 
L 178.98133 446.734832 
L 179.007308 446.734832 
L 179.111218 445.484902 
L 179.215128 445.411377 
L 179.319038 444.529074 
L 179.358005 444.529074 
L 179.461915 444.087922 
L 179.51387 444.014397 
L 179.617781 443.352669 
L 179.643758 443.352669 
L 179.73468 442.690942 
L 179.786635 442.617416 
L 179.864567 442.102739 
L 179.916523 442.029214 
L 180.007444 441.661588 
L 180.04641 441.588062 
L 180.059399 441.293961 
L 180.176298 441.220436 
L 180.280209 440.705759 
L 180.306186 440.632234 
L 180.358141 440.117557 
L 180.436074 440.117557 
L 180.539984 439.308778 
L 180.565962 439.235253 
L 180.630906 438.647051 
L 180.69585 438.573526 
L 180.79976 437.911798 
L 180.968614 437.838273 
L 181.072525 437.470646 
L 181.137469 437.397121 
L 181.22839 437.029495 
L 181.319312 436.955969 
L 181.423222 436.147191 
L 181.449199 436.147191 
L 181.501155 435.926615 
L 181.592076 435.85309 
L 181.670009 435.485464 
L 181.734953 435.485464 
L 181.812885 435.191363 
L 181.942773 435.117837 
L 182.007717 434.45611 
L 182.111628 434.382584 
L 182.18956 433.720857 
L 182.267493 433.647332 
L 182.371403 432.617978 
L 182.384392 432.617978 
L 182.462325 432.103301 
L 182.540257 432.029775 
L 182.644168 431.735674 
L 182.657157 431.735674 
L 182.761067 431.515098 
L 182.787044 431.441573 
L 182.890955 431.000421 
L 182.916932 430.926896 
L 182.994865 430.412219 
L 183.04682 430.338694 
L 183.098775 429.824017 
L 183.215674 429.824017 
L 183.306596 429.529916 
L 183.345562 429.529916 
L 183.423495 429.015239 
L 183.462461 429.015239 
L 183.566372 428.427036 
L 183.631316 428.353511 
L 183.735226 427.471208 
L 183.80017 427.397682 
L 183.90408 426.956531 
L 184.085923 426.883005 
L 184.163856 425.853651 
L 184.2288 425.853651 
L 184.306732 425.486025 
L 184.397654 425.4125 
L 184.488575 424.16257 
L 184.579497 424.16257 
L 184.683407 423.574368 
L 184.696396 423.574368 
L 184.787318 422.545014 
L 184.826284 422.471488 
L 184.904217 422.103862 
L 185.021116 422.030337 
L 185.125026 421.442134 
L 185.215947 421.368609 
L 185.319858 420.706881 
L 185.358824 420.706881 
L 185.449746 420.045154 
L 185.566645 419.971629 
L 185.670555 419.309901 
L 185.696533 419.236376 
L 185.800443 418.574648 
L 185.930331 418.501123 
L 186.034241 418.133497 
L 186.229073 418.059971 
L 186.281028 417.61882 
L 186.397927 417.545294 
L 186.397927 417.471769 
L 186.592759 417.398244 
L 186.696669 416.736516 
L 186.748624 416.662991 
L 186.813568 416.148314 
L 186.878512 416.148314 
L 186.982422 415.633637 
L 187.047366 415.560112 
L 187.099322 415.26601 
L 187.268176 415.192485 
L 187.372086 414.530758 
L 187.411052 414.457232 
L 187.463008 414.089606 
L 187.566918 414.016081 
L 187.657839 413.648454 
L 187.800716 413.574929 
L 187.891638 412.839676 
L 187.930604 412.839676 
L 188.021525 411.883847 
L 188.099458 411.883847 
L 188.164402 411.516221 
L 188.242335 411.516221 
L 188.320267 411.295645 
L 188.437167 411.22212 
L 188.541077 410.707443 
L 188.644987 410.633918 
L 188.748897 409.898665 
L 188.761886 409.898665 
L 188.865797 409.457513 
L 189.099595 409.383988 
L 189.203505 408.648735 
L 189.294426 408.57521 
L 189.398337 407.987007 
L 189.437303 407.913482 
L 189.515236 407.178229 
L 189.632135 407.104704 
L 189.710068 406.737077 
L 189.775012 406.663552 
L 189.839955 405.928299 
L 189.904899 405.854774 
L 189.969843 405.634198 
L 190.073754 405.560673 
L 190.11272 405.266572 
L 190.21663 405.193046 
L 190.320541 404.82542 
L 190.398473 404.82542 
L 190.502384 404.384268 
L 190.580316 404.384268 
L 190.64526 403.501965 
L 190.697215 403.501965 
L 190.762159 402.987288 
L 190.853081 402.913763 
L 190.931014 402.693187 
L 190.995957 402.619662 
L 191.086879 401.957934 
L 191.164812 401.884409 
L 191.242744 401.590308 
L 191.39861 401.516782 
L 191.50252 401.222681 
L 191.567464 401.222681 
L 191.658386 400.92858 
L 191.788273 400.855055 
L 191.853217 400.413903 
L 191.970116 400.340378 
L 191.970116 400.266852 
L 192.125982 400.193327 
L 192.229892 399.458074 
L 192.268859 399.384549 
L 192.346791 398.796347 
L 192.46369 398.722821 
L 192.541623 398.061094 
L 192.606567 398.061094 
L 192.710477 397.619942 
L 192.775421 397.546417 
L 192.866343 396.884689 
L 192.931287 396.884689 
L 193.035197 396.370012 
L 193.204051 396.296487 
L 193.294973 395.561234 
L 193.346928 395.487709 
L 193.424861 394.752456 
L 193.502793 394.752456 
L 193.606704 394.458355 
L 193.632681 394.38483 
L 193.736591 394.017203 
L 193.827513 393.943678 
L 193.931423 393.28195 
L 193.983378 393.208425 
L 194.035334 392.546698 
L 194.165221 392.473172 
L 194.269132 391.958495 
L 194.334076 391.88497 
L 194.424997 391.296768 
L 194.528907 391.223242 
L 194.567874 390.855616 
L 194.645806 390.855616 
L 194.736728 390.193888 
L 194.853627 390.120363 
L 194.892593 389.899787 
L 195.061448 389.826262 
L 195.13938 389.605686 
L 195.243291 389.532161 
L 195.347201 388.723383 
L 195.386167 388.649857 
L 195.4641 388.282231 
L 195.632954 388.208706 
L 195.710887 387.694029 
L 195.840775 387.620503 
L 195.905719 387.326402 
L 195.970663 387.252877 
L 196.022618 386.811725 
L 196.152506 386.7382 
L 196.256416 386.002947 
L 196.308371 385.929422 
L 196.412281 385.267694 
L 196.490214 385.194169 
L 196.568147 384.973593 
L 196.607113 384.973593 
L 196.672057 384.311866 
L 196.840911 384.23834 
L 196.944822 384.017765 
L 197.035743 383.944239 
L 197.07471 383.650138 
L 197.191609 383.650138 
L 197.28253 383.356037 
L 197.425407 383.282512 
L 197.464373 382.694309 
L 197.555295 382.694309 
L 197.633227 382.106107 
L 197.71116 382.106107 
L 197.737138 381.738481 
L 197.983925 381.664955 
L 198.087835 381.076753 
L 198.230712 381.003228 
L 198.334622 380.709127 
L 198.399566 380.635601 
L 198.451521 380.3415 
L 198.529454 380.3415 
L 198.555431 380.047399 
L 198.659342 379.973874 
L 198.763252 379.532722 
L 198.828196 379.532722 
L 198.906128 379.165096 
L 198.971072 379.09157 
L 199.010039 378.797469 
L 199.113949 378.723944 
L 199.217859 378.429843 
L 199.269814 378.356318 
L 199.334758 377.768115 
L 199.477635 377.69459 
L 199.477635 377.621065 
L 199.685456 377.54754 
L 199.685456 377.400489 
L 199.828332 377.326964 
L 199.932243 377.032863 
L 199.945231 377.032863 
L 200.049142 376.518186 
L 200.269951 376.44466 
L 200.295929 376.150559 
L 200.438805 376.077034 
L 200.542716 375.782933 
L 200.555704 375.782933 
L 200.555704 375.635882 
L 200.71157 375.562357 
L 200.724559 375.415306 
L 200.867435 375.341781 
L 200.867435 375.19473 
L 201.062267 375.121205 
L 201.166177 374.827104 
L 201.270088 374.753579 
L 201.309054 374.533003 
L 201.399975 374.459478 
L 201.412964 374.312427 
L 201.555841 374.238902 
L 201.555841 374.018326 
L 201.77665 373.944801 
L 201.880561 373.650699 
L 201.958493 373.650699 
L 202.049415 373.209548 
L 202.088381 373.209548 
L 202.192291 372.621345 
L 202.309191 372.54782 
L 202.361146 372.327244 
L 202.42609 372.327244 
L 202.53 371.812567 
L 202.581955 371.739042 
L 202.620921 371.444941 
L 202.73782 371.371416 
L 202.802764 371.077314 
L 202.95863 371.003789 
L 203.06254 370.268536 
L 203.270361 370.195011 
L 203.335305 369.606809 
L 203.400249 369.533284 
L 203.49117 369.239182 
L 203.543125 369.239182 
L 203.59508 368.724505 
L 203.698991 368.65098 
L 203.789912 368.356879 
L 203.893822 368.283354 
L 203.997733 368.136303 
L 204.010722 368.136303 
L 204.075666 367.842202 
L 204.127621 367.842202 
L 204.192565 367.548101 
L 204.283486 367.474576 
L 204.387396 367.254 
L 204.517284 367.180474 
L 204.621195 366.665797 
L 204.686138 366.592272 
L 204.790049 366.298171 
L 204.867981 366.224646 
L 204.88097 366.077595 
L 205.10178 366.077595 
L 205.20569 365.709969 
L 205.270634 365.636443 
L 205.374544 365.415868 
L 205.426499 365.415868 
L 205.478454 364.901191 
L 205.569376 364.827665 
L 205.660297 364.018887 
L 205.725241 363.945362 
L 205.803174 363.651261 
L 205.920073 363.577735 
L 205.933062 363.430685 
L 206.101916 363.35716 
L 206.192838 363.063058 
L 206.283759 362.989533 
L 206.348703 362.401331 
L 206.439625 362.401331 
L 206.530546 361.960179 
L 206.59549 361.886654 
L 206.634456 361.666078 
L 206.777333 361.592553 
L 206.881243 361.224926 
L 206.933199 361.151401 
L 207.011131 360.8573 
L 207.063086 360.783775 
L 207.166997 360.342623 
L 207.192974 360.342623 
L 207.296885 359.974997 
L 207.322862 359.974997 
L 207.322862 359.827946 
L 207.478728 359.827946 
L 207.543671 359.533845 
L 207.595627 359.533845 
L 207.673559 358.872117 
L 207.868391 358.872117 
L 207.907358 358.430966 
L 207.98529 358.430966 
L 208.089201 357.916289 
L 208.115178 357.916289 
L 208.115178 357.769238 
L 208.271044 357.695713 
L 208.374954 357.254561 
L 208.452887 357.181036 
L 208.543808 356.519308 
L 208.595763 356.519308 
L 208.686685 356.078156 
L 208.907494 356.004631 
L 208.998416 355.637005 
L 209.076348 355.563479 
L 209.16727 355.122328 
L 209.232214 355.122328 
L 209.284169 354.754701 
L 209.37509 354.681176 
L 209.37509 354.607651 
L 209.543945 354.607651 
L 209.543945 354.4606 
L 209.751765 354.387075 
L 209.855675 353.872398 
L 209.972575 353.798873 
L 210.063496 353.284196 
L 210.089474 353.284196 
L 210.180395 352.695993 
L 210.297294 352.622468 
L 210.375227 352.328367 
L 210.531092 352.254842 
L 210.609025 352.034266 
L 210.725924 351.960741 
L 210.816846 351.81369 
L 210.88179 351.740165 
L 210.959722 351.372538 
L 211.011677 351.299013 
L 211.102599 351.004912 
L 211.167543 351.004912 
L 211.271453 350.637285 
L 211.323408 350.56376 
L 211.41433 350.343184 
L 211.596173 350.269659 
L 211.596173 350.122608 
L 211.726061 350.049083 
L 211.829971 349.460881 
L 211.84296 349.460881 
L 211.868937 349.240305 
L 211.985836 349.240305 
L 212.089747 348.799153 
L 212.258601 348.725628 
L 212.349523 348.431527 
L 212.609298 348.358002 
L 212.687231 347.769799 
L 212.778152 347.696274 
L 212.882063 347.255122 
L 213.011951 347.181597 
L 213.115861 346.66692 
L 213.180805 346.593395 
L 213.258738 346.446344 
L 213.375637 346.372819 
L 213.388625 346.225768 
L 213.531502 346.152243 
L 213.531502 345.931667 
L 213.700356 345.858142 
L 213.791278 345.490515 
L 213.869211 345.41699 
L 213.973121 345.049364 
L 214.103009 344.975839 
L 214.19393 344.02001 
L 214.232897 343.946485 
L 214.323818 343.725909 
L 214.388762 343.652383 
L 214.492672 343.431808 
L 214.557616 343.358282 
L 214.661527 343.064181 
L 214.739459 342.990656 
L 214.84337 342.696555 
L 215.025213 342.623029 
L 215.038201 342.475979 
L 215.220044 342.402454 
L 215.310966 341.961302 
L 215.349932 341.961302 
L 215.349932 341.814251 
L 215.544764 341.740726 
L 215.648674 341.446625 
L 215.778562 341.3731 
L 215.869484 340.931948 
L 216.025349 340.858423 
L 216.077304 340.711372 
L 216.181215 340.711372 
L 216.194203 340.343746 
L 216.389035 340.27022 
L 216.492945 340.049644 
L 216.544901 339.976119 
L 216.583867 339.829069 
L 216.674788 339.755543 
L 216.76571 339.534967 
L 216.804676 339.461442 
L 216.830654 339.240866 
L 216.97353 339.240866 
L 217.051463 338.799715 
L 217.155374 338.726189 
L 217.259284 338.579139 
L 217.428138 338.505613 
L 217.532048 338.285038 
L 217.545037 338.285038 
L 217.609981 337.549785 
L 217.752858 337.476259 
L 217.752858 337.402734 
L 217.947689 337.329209 
L 218.038611 336.888057 
L 218.142521 336.814532 
L 218.220454 336.520431 
L 218.337353 336.446906 
L 218.337353 336.37338 
L 218.454252 336.37338 
L 218.545174 336.152804 
L 218.649084 336.079279 
L 218.752994 335.049925 
L 218.804949 334.9764 
L 218.869893 334.829349 
L 219.077714 334.755824 
L 219.11668 334.535248 
L 219.285534 334.461723 
L 219.33749 334.167622 
L 219.480366 334.094096 
L 219.571288 333.72647 
L 219.610254 333.72647 
L 219.701176 333.432369 
L 219.753131 333.358844 
L 219.844052 332.917692 
L 220.324637 332.844167 
L 220.428548 332.550065 
L 220.480503 332.47654 
L 220.571424 332.108914 
L 220.62338 332.035388 
L 220.675335 331.741287 
L 220.753267 331.667762 
L 220.8312 331.373661 
L 220.961088 331.300136 
L 221.064998 331.153085 
L 221.207875 331.153085 
L 221.285808 330.932509 
L 221.454662 330.858984 
L 221.532595 330.564883 
L 221.58455 330.564883 
L 221.675471 330.197256 
L 221.714438 330.123731 
L 221.727426 329.903155 
L 221.883292 329.82963 
L 221.974213 329.462003 
L 222.01318 329.462003 
L 222.078124 328.947326 
L 222.363877 328.873801 
L 222.389854 328.726751 
L 222.571697 328.653225 
L 222.675608 328.359124 
L 222.896417 328.285599 
L 222.896417 328.212074 
L 223.091249 328.138548 
L 223.091249 327.991498 
L 223.29907 327.917973 
L 223.389991 327.770922 
L 223.480913 327.770922 
L 223.50689 327.403296 
L 223.753677 327.32977 
L 223.857587 326.888619 
L 223.922531 326.815093 
L 223.987475 326.520992 
L 224.091386 326.447467 
L 224.169318 326.300416 
L 224.325184 326.226891 
L 224.429094 325.93279 
L 224.520015 325.93279 
L 224.597948 325.638689 
L 224.68887 325.565163 
L 224.79278 325.271062 
L 224.883701 325.197537 
L 224.909679 324.829911 
L 225.182444 324.756385 
L 225.273365 324.241708 
L 225.351298 324.241708 
L 225.442219 324.021132 
L 225.507163 323.947607 
L 225.585096 323.800557 
L 225.740961 323.727031 
L 225.818894 323.43293 
L 225.896827 323.359405 
L 225.948782 322.991778 
L 226.065681 322.991778 
L 226.130625 322.624152 
L 226.325457 322.550627 
L 226.338446 322.183 
L 226.585233 322.109475 
L 226.676154 321.962424 
L 226.767076 321.888899 
L 226.832019 321.668323 
L 226.909952 321.668323 
L 226.922941 321.374222 
L 226.987885 321.374222 
L 227.117773 321.300697 
L 227.208694 321.153646 
L 227.286627 321.080121 
L 227.286627 321.006596 
L 227.507436 320.93307 
L 227.611347 320.491919 
L 227.650313 320.418393 
L 227.650313 320.271343 
L 227.884111 320.197818 
L 227.988021 319.683141 
L 228.00101 319.683141 
L 228.104921 319.241989 
L 228.130898 319.168464 
L 228.234808 318.947888 
L 228.260786 318.874363 
L 228.286764 318.580261 
L 228.520562 318.506736 
L 228.598494 318.28616 
L 228.923214 318.212635 
L 229.014136 317.771483 
L 229.131035 317.697958 
L 229.234945 316.962705 
L 229.338855 316.88918 
L 229.403799 316.595079 
L 229.585642 316.595079 
L 229.676564 316.153927 
L 229.780474 316.080402 
L 229.871395 315.786301 
L 229.923351 315.786301 
L 229.923351 315.63925 
L 230.105194 315.565725 
L 230.196115 314.903997 
L 230.364969 314.830472 
L 230.442902 314.38932 
L 230.546812 314.38932 
L 230.637734 314.021694 
L 230.754633 313.948168 
L 230.754633 313.874643 
L 230.923487 313.801118 
L 231.014409 313.580542 
L 231.10533 313.507017 
L 231.10533 313.433491 
L 231.32614 313.359966 
L 231.378095 313.065865 
L 231.53396 312.99234 
L 231.53396 312.918814 
L 231.702814 312.845289 
L 231.793736 312.477663 
L 231.910635 312.404137 
L 231.988568 312.183562 
L 232.079489 312.183562 
L 232.183399 311.962986 
L 232.274321 311.88946 
L 232.378231 311.595359 
L 232.39122 311.595359 
L 232.469153 311.154208 
L 232.521108 311.080682 
L 232.599041 310.786581 
L 232.780884 310.713056 
L 232.884794 310.49248 
L 232.949738 310.418955 
L 232.988704 310.124854 
L 233.209514 310.051328 
L 233.287446 309.830753 
L 233.378368 309.757227 
L 233.469289 309.316076 
L 233.962863 309.24255 
L 234.066774 308.948449 
L 234.157695 308.874924 
L 234.261605 308.654348 
L 234.274594 308.654348 
L 234.300572 308.433772 
L 234.391493 308.433772 
L 234.456437 308.139671 
L 234.53437 308.139671 
L 234.63828 307.772045 
L 234.729202 307.772045 
L 234.820123 307.477943 
L 234.872078 307.477943 
L 234.898056 307.257368 
L 235.157832 307.183842 
L 235.157832 307.110317 
L 235.482551 307.036792 
L 235.521518 306.889741 
L 235.586462 306.889741 
L 235.729338 306.59564 
L 235.885204 306.522115 
L 235.92417 306.301539 
L 236.170957 306.228014 
L 236.274867 305.713337 
L 236.547632 305.639811 
L 236.599587 305.19866 
L 236.703497 305.125134 
L 236.755452 304.904558 
L 236.898329 304.831033 
L 236.98925 304.463407 
L 237.015228 304.463407 
L 237.015228 304.316356 
L 237.275004 304.242831 
L 237.300981 304.022255 
L 237.651679 303.94873 
L 237.664667 303.801679 
L 237.768578 303.801679 
L 237.84651 303.360527 
L 237.976398 303.287002 
L 238.080309 302.919376 
L 238.197208 302.845851 
L 238.27514 302.551749 
L 238.392039 302.478224 
L 238.469972 302.037072 
L 238.521927 302.037072 
L 238.625838 301.522395 
L 238.755725 301.44887 
L 238.820669 301.228294 
L 238.911591 301.154769 
L 238.937568 301.007718 
L 239.145389 300.934193 
L 239.210333 300.640092 
L 239.366198 300.566567 
L 239.392176 300.272466 
L 239.509075 300.19894 
L 239.509075 300.125415 
L 239.651952 300.05189 
L 239.716896 299.684263 
L 239.846784 299.610738 
L 239.846784 299.463687 
L 240.119548 299.390162 
L 240.119548 299.316637 
L 240.31438 299.243112 
L 240.41829 298.80196 
L 240.457256 298.728435 
L 240.5222 298.507859 
L 240.717032 298.434333 
L 240.755999 298.213758 
L 240.924853 298.140232 
L 240.95083 297.919656 
L 241.223595 297.846131 
L 241.288539 297.699081 
L 241.496359 297.625555 
L 241.587281 297.331454 
L 241.678202 297.257929 
L 241.782113 297.037353 
L 241.834068 296.963828 
L 241.886023 296.522676 
L 242.119821 296.449151 
L 242.158788 296.3021 
L 242.444541 296.228575 
L 242.496496 296.007999 
L 242.587417 296.007999 
L 242.691328 295.272746 
L 242.743283 295.199221 
L 242.834204 294.90512 
L 242.860182 294.90512 
L 242.860182 294.684544 
L 243.029036 294.611019 
L 243.029036 294.537493 
L 243.652498 294.463968 
L 243.743419 294.316918 
L 243.834341 294.316918 
L 243.912274 294.022816 
L 244.081128 293.949291 
L 244.159061 293.65519 
L 244.405848 293.581665 
L 244.509758 293.140513 
L 244.600679 293.140513 
L 244.665623 292.846412 
L 244.769534 292.772887 
L 244.782522 292.625836 
L 244.925399 292.625836 
L 244.925399 292.478785 
L 245.094253 292.40526 
L 245.185175 291.964108 
L 245.289085 291.890583 
L 245.380007 291.375906 
L 245.509894 291.302381 
L 245.56185 291.081805 
L 245.795648 291.00828 
L 245.847603 290.861229 
L 245.964502 290.787704 
L 246.042435 290.567128 
L 246.146345 290.493603 
L 246.146345 290.420077 
L 246.30221 290.420077 
L 246.380143 290.199502 
L 246.52302 290.125976 
L 246.613941 289.978926 
L 246.691874 289.9054 
L 246.782796 289.684825 
L 246.938661 289.611299 
L 246.977627 289.390723 
L 247.458212 289.317198 
L 247.497179 289.096622 
L 247.679022 289.023097 
L 247.782932 288.802521 
L 247.80891 288.728996 
L 247.91282 288.287844 
L 248.01673 288.214319 
L 248.107652 288.067268 
L 248.354439 287.993743 
L 248.44536 287.552591 
L 248.627203 287.479066 
L 248.731113 287.184965 
L 248.848013 287.184965 
L 248.951923 286.964389 
L 249.120777 286.964389 
L 249.120777 286.817338 
L 249.289631 286.743813 
L 249.289631 286.596763 
L 249.510441 286.523237 
L 249.575385 286.302662 
L 249.822172 286.229136 
L 249.913093 286.00856 
L 250.133902 285.935035 
L 250.237813 285.567409 
L 250.328734 285.493883 
L 250.328734 285.420358 
L 250.549544 285.346833 
L 250.58851 284.979206 
L 250.835297 284.905681 
L 250.91323 284.61158 
L 251.030129 284.538055 
L 251.030129 284.464529 
L 251.367837 284.391004 
L 251.458759 284.096903 
L 251.666579 284.023378 
L 251.666579 283.949852 
L 251.952333 283.876327 
L 251.97831 283.655751 
L 252.056243 283.655751 
L 252.173142 283.655751 
L 252.238086 283.2146 
L 252.601772 283.141074 
L 252.601772 282.994024 
L 252.991435 282.920498 
L 252.991435 282.846973 
L 253.238222 282.773448 
L 253.290178 282.552872 
L 253.446043 282.479347 
L 253.536965 282.258771 
L 253.718808 282.185246 
L 253.783751 282.038195 
L 253.965594 281.96467 
L 254.069505 281.376467 
L 254.212381 281.302942 
L 254.316292 280.86179 
L 254.32928 280.86179 
L 254.368247 280.641215 
L 254.498135 280.567689 
L 254.498135 280.494164 
L 254.654 280.494164 
L 254.75791 280.053012 
L 254.809866 279.979487 
L 254.809866 279.905962 
L 254.991709 279.832436 
L 254.991709 279.758911 
L 255.368383 279.685386 
L 255.472294 279.538335 
L 255.693103 279.46481 
L 255.771036 279.170709 
L 256.030812 279.097184 
L 256.121733 278.508981 
L 256.342542 278.435456 
L 256.381509 278.21488 
L 256.550363 278.141355 
L 256.563352 277.847254 
L 256.680251 277.773729 
L 256.758184 277.479627 
L 256.940027 277.406102 
L 256.940027 277.332577 
L 257.264746 277.259052 
L 257.264746 277.185526 
L 257.628432 277.112001 
L 257.732343 276.96495 
L 257.75832 276.891425 
L 257.784298 276.670849 
L 257.901197 276.670849 
L 257.966141 276.376748 
L 258.08304 276.303223 
L 258.147984 276.009122 
L 258.238905 275.935596 
L 258.316838 275.788546 
L 258.394771 275.715021 
L 258.459715 275.420919 
L 258.524659 275.347394 
L 258.524659 275.273869 
L 258.979266 275.200344 
L 259.031221 275.053293 
L 259.265019 274.979768 
L 259.342952 274.685667 
L 259.420885 274.612141 
L 259.498818 274.097464 
L 259.615717 274.097464 
L 259.706638 273.582787 
L 259.758593 273.582787 
L 259.823537 273.141636 
L 260.161246 273.06811 
L 260.161246 272.994585 
L 260.472976 272.92106 
L 260.498954 272.700484 
L 260.641831 272.626959 
L 260.719763 272.406383 
L 260.823674 272.332857 
L 260.901606 272.112282 
L 260.992528 272.038756 
L 261.005517 271.891706 
L 261.213337 271.81818 
L 261.239315 271.67113 
L 261.39518 271.597605 
L 261.421158 271.377029 
L 261.577023 271.303503 
L 261.680934 271.082928 
L 261.875765 271.009402 
L 261.875765 270.935877 
L 262.018642 270.862352 
L 262.018642 270.788826 
L 262.278418 270.715301 
L 262.317384 270.4212 
L 262.551182 270.347675 
L 262.551182 270.274149 
L 262.836936 270.200624 
L 262.940846 269.612422 
L 263.018779 269.538897 
L 263.044756 269.391846 
L 263.356487 269.391846 
L 263.421431 269.097745 
L 263.759139 269.02422 
L 263.759139 268.950694 
L 263.811095 268.950694 
L 263.915005 268.877169 
L 264.005926 268.509543 
L 264.226736 268.436017 
L 264.330646 268.141916 
L 264.642377 268.068391 
L 264.733298 267.77429 
L 264.837209 267.700765 
L 264.941119 267.406663 
L 265.071007 267.406663 
L 265.135951 267.039037 
L 265.226872 266.965512 
L 265.330783 266.744936 
L 265.512626 266.671411 
L 265.512626 266.597885 
L 266.058155 266.52436 
L 266.162065 266.083208 
L 266.252986 266.009683 
L 266.252986 265.936158 
L 266.369886 265.936158 
L 266.43483 265.642057 
L 266.772538 265.568531 
L 266.772538 265.495006 
L 266.915415 265.421481 
L 267.019325 265.200905 
L 267.17519 265.12738 
L 267.17519 264.980329 
L 267.318067 264.980329 
L 267.396 264.612703 
L 267.538876 264.539177 
L 267.590831 264.171551 
L 267.733708 264.171551 
L 267.785663 263.87745 
L 267.863596 263.87745 
L 267.954518 263.583349 
L 267.993484 263.583349 
L 268.084405 263.142197 
L 268.188316 263.068672 
L 268.279237 262.848096 
L 268.487058 262.77457 
L 268.487058 262.701045 
L 268.733845 262.62752 
L 268.759822 262.406944 
L 269.032587 262.333419 
L 269.058564 262.186368 
L 269.500183 262.112843 
L 269.539149 261.965792 
L 269.656049 261.965792 
L 269.720992 261.671691 
L 269.798925 261.671691 
L 269.902835 261.37759 
L 269.941802 261.37759 
L 269.980768 261.157014 
L 270.149622 261.083489 
L 270.240544 260.642337 
L 270.266522 260.642337 
L 270.266522 260.495287 
L 270.396409 260.495287 
L 270.474342 260.274711 
L 270.60423 260.201186 
L 270.70814 259.98061 
L 270.825039 259.907084 
L 270.864006 259.760034 
L 271.019871 259.686509 
L 271.071826 259.465933 
L 271.175737 259.465933 
L 271.175737 259.318882 
L 271.500456 259.245357 
L 271.500456 259.171832 
L 271.66931 259.098306 
L 271.708277 258.951256 
L 271.903109 258.87773 
L 271.929086 258.73068 
L 272.058974 258.657155 
L 272.058974 258.510104 
L 272.474615 258.436579 
L 272.500593 258.289528 
L 272.604503 258.289528 
L 272.669447 257.921902 
L 272.877268 257.848376 
L 272.968189 257.701326 
L 273.033133 257.701326 
L 273.033133 257.554275 
L 273.292909 257.48075 
L 273.396819 257.186649 
L 273.435785 257.113124 
L 273.435785 257.039598 
L 273.799471 256.966073 
L 273.799471 256.892548 
L 273.929359 256.892548 
L 273.942348 256.598447 
L 274.072236 256.524921 
L 274.072236 256.377871 
L 274.617765 256.304345 
L 274.708687 256.08377 
L 274.838574 256.010244 
L 274.942485 255.716143 
L 274.968462 255.716143 
L 275.072373 255.422042 
L 275.52698 255.348517 
L 275.604913 255.201466 
L 275.838711 255.127941 
L 275.916644 254.760314 
L 276.020554 254.686789 
L 276.05952 254.466213 
L 276.241363 254.392688 
L 276.293318 254.245637 
L 276.38424 254.172112 
L 276.436195 253.951536 
L 276.540105 253.878011 
L 276.540105 253.804486 
L 276.864825 253.73096 
L 276.968735 253.436859 
L 277.046668 253.363334 
L 277.124601 252.995708 
L 277.358399 252.922182 
L 277.397365 252.775132 
L 277.618175 252.701607 
L 277.618175 252.554556 
L 277.787029 252.554556 
L 277.838984 252.260455 
L 277.942894 252.260455 
L 277.942894 252.113404 
L 278.150715 252.039879 
L 278.163704 251.892828 
L 278.332558 251.892828 
L 278.423479 251.598727 
L 278.514401 251.525202 
L 278.52739 251.231101 
L 278.553367 251.231101 
L 278.891076 251.157576 
L 278.891076 251.08405 
L 279.241773 251.010525 
L 279.267751 250.863474 
L 279.423616 250.789949 
L 279.48856 250.569373 
L 279.579481 250.495848 
L 279.644425 250.348797 
L 279.735347 250.275272 
L 279.735347 250.201747 
L 279.982134 250.128222 
L 280.060067 249.981171 
L 280.150988 249.907646 
L 280.150988 249.83412 
L 280.371797 249.83412 
L 280.44973 249.540019 
L 280.709506 249.466494 
L 280.77445 249.319443 
L 281.060203 249.245918 
L 281.073192 249.098868 
L 281.268024 249.025342 
L 281.294001 248.878292 
L 281.501822 248.804766 
L 281.605732 248.510665 
L 281.657687 248.43714 
L 281.657687 248.363615 
L 281.865508 248.290089 
L 281.865508 248.216564 
L 282.034362 248.143039 
L 282.06034 247.922463 
L 282.333104 247.922463 
L 282.437014 247.628362 
L 282.605869 247.554837 
L 282.69679 247.334261 
L 282.8007 247.260735 
L 282.8007 247.18721 
L 283.073465 247.113685 
L 283.177375 246.819584 
L 283.22933 246.746058 
L 283.242319 246.599008 
L 283.476117 246.525483 
L 283.541061 246.378432 
L 283.826815 246.304907 
L 283.852792 246.157856 
L 284.008658 246.157856 
L 284.112568 245.79023 
L 284.294411 245.716704 
L 284.385332 245.349078 
L 284.658097 245.275553 
L 284.710052 245.128502 
L 284.813962 245.054977 
L 284.891895 244.834401 
L 285.086727 244.760876 
L 285.16466 244.5403 
L 285.229604 244.466775 
L 285.26857 244.246199 
L 285.528346 244.172674 
L 285.528346 244.099148 
L 285.723177 244.025623 
L 285.723177 243.878572 
L 285.866054 243.805047 
L 285.918009 243.510946 
L 286.099852 243.437421 
L 286.177785 243.29037 
L 286.307673 243.216845 
L 286.398594 242.922744 
L 286.424572 242.922744 
L 286.489516 242.555117 
L 286.827224 242.481592 
L 286.853202 242.261016 
L 287.022056 242.187491 
L 287.099989 241.966915 
L 287.216888 241.89339 
L 287.320798 241.452238 
L 287.463675 241.378713 
L 287.463675 241.305187 
L 287.606552 241.305187 
L 287.710462 241.011086 
L 287.905294 240.937561 
L 287.996215 240.716985 
L 288.191047 240.64346 
L 288.191047 240.569935 
L 288.385879 240.496409 
L 288.450823 240.202308 
L 288.606688 240.128783 
L 288.606688 240.055258 
L 288.736576 239.981732 
L 288.736576 239.908207 
L 289.022329 239.834682 
L 289.048307 239.687631 
L 289.424982 239.614106 
L 289.424982 239.540581 
L 289.905567 239.467055 
L 289.905567 239.39353 
L 290.139365 239.320005 
L 290.217298 238.952378 
L 290.399141 238.878853 
L 290.503051 238.584752 
L 290.879726 238.511227 
L 290.892714 238.364176 
L 291.009614 238.290651 
L 291.113524 238.070075 
L 291.347322 237.99655 
L 291.451232 237.775974 
L 291.607098 237.702448 
L 291.607098 237.628923 
L 291.931817 237.555398 
L 291.996761 237.408347 
L 292.035728 237.408347 
L 292.204582 236.967196 
L 292.373436 236.967196 
L 292.412403 236.599569 
L 292.633212 236.526044 
L 292.724133 236.378993 
L 293.035864 236.305468 
L 293.074831 236.158418 
L 293.464494 236.084892 
L 293.516449 235.790791 
L 293.737259 235.717266 
L 293.841169 235.49669 
L 293.958068 235.423165 
L 294.061978 235.202589 
L 294.568541 235.129064 
L 294.568541 235.055538 
L 295.243958 234.982013 
L 295.347868 234.687912 
L 295.529711 234.614387 
L 295.555689 234.467336 
L 295.724543 234.393811 
L 295.802476 234.173235 
L 295.932364 234.09971 
L 295.97133 233.952659 
L 296.231106 233.879134 
L 296.231106 233.805608 
L 296.360994 233.805608 
L 296.425938 233.585033 
L 296.633758 233.511507 
L 296.737668 233.290931 
L 296.763646 233.217406 
L 296.815601 233.070356 
L 297.010433 232.99683 
L 297.062388 232.776254 
L 297.231242 232.702729 
L 297.244231 232.555679 
L 297.633895 232.482153 
L 297.633895 232.408628 
L 298.062525 232.335103 
L 298.062525 232.261577 
L 298.465177 232.188052 
L 298.465177 232.114527 
L 298.685986 232.041002 
L 298.789897 231.893951 
L 299.023695 231.893951 
L 299.049672 231.673375 
L 299.387381 231.59985 
L 299.439336 231.158698 
L 299.803022 231.158698 
L 299.867966 230.864597 
L 299.945899 230.791072 
L 299.945899 230.570496 
L 300.244641 230.496971 
L 300.244641 230.34992 
L 300.56936 230.34992 
L 300.647293 230.055819 
L 300.79017 229.982294 
L 300.803159 229.835243 
L 301.049946 229.761718 
L 301.101901 229.541142 
L 301.244777 229.467617 
L 301.270755 229.320566 
L 301.361676 229.320566 
L 301.42662 229.09999 
L 301.699385 229.026465 
L 301.699385 228.95294 
L 301.881228 228.879414 
L 301.881228 228.658838 
L 302.050082 228.585313 
L 302.063071 228.438263 
L 302.231925 228.364737 
L 302.231925 228.291212 
L 302.530667 228.217687 
L 302.634577 227.85006 
L 302.920331 227.776535 
L 302.972286 227.555959 
L 303.102174 227.482434 
L 303.180107 227.188333 
L 303.36195 227.114808 
L 303.439882 226.600131 
L 303.777591 226.526605 
L 303.777591 226.45308 
L 304.167254 226.379555 
L 304.167254 226.306029 
L 304.569907 226.232504 
L 304.569907 226.158979 
L 304.738761 226.085454 
L 304.829682 225.938403 
L 305.115436 225.864878 
L 305.115436 225.791352 
L 305.570043 225.717827 
L 305.673954 225.423726 
L 305.959707 225.350201 
L 306.050628 225.20315 
L 306.232471 225.129625 
L 306.232471 224.982574 
L 306.427303 224.909049 
L 306.46627 224.688473 
L 307.167664 224.614948 
L 307.271574 224.320847 
L 307.323529 224.247321 
L 307.401462 223.879695 
L 307.492384 223.80617 
L 307.492384 223.732644 
L 307.843081 223.659119 
L 307.843081 223.585594 
L 308.011935 223.512069 
L 308.050901 223.291493 
L 308.141823 223.291493 
L 308.141823 223.070917 
L 308.349644 223.070917 
L 308.349644 222.923866 
L 308.453554 222.923866 
L 308.531487 222.850341 
L 308.609419 222.55624 
L 308.81724 222.482715 
L 308.869195 222.335664 
L 309.064027 222.262139 
L 309.115982 222.041563 
L 309.258859 222.041563 
L 309.284836 221.820987 
L 309.557601 221.747462 
L 309.583578 221.526886 
L 309.934275 221.453361 
L 310.025197 221.232785 
L 310.194051 221.159259 
L 310.194051 221.085734 
L 310.466816 221.085734 
L 310.466816 220.938684 
L 310.700614 220.865158 
L 310.765558 220.644582 
L 310.882457 220.571057 
L 310.96039 220.276956 
L 311.129244 220.203431 
L 311.181199 220.05638 
L 311.479941 219.982855 
L 311.570863 219.688754 
L 312.077425 219.615228 
L 312.077425 219.541703 
L 312.272257 219.468178 
L 312.35019 219.321127 
L 312.519044 219.247602 
L 312.519044 219.100552 
L 312.791809 219.027026 
L 312.895719 218.879976 
L 312.98664 218.80645 
L 312.98664 218.732925 
L 313.324349 218.6594 
L 313.324349 218.512349 
L 313.41527 218.512349 
L 313.532169 218.438824 
L 313.623091 218.291773 
L 313.791945 218.218248 
L 313.895855 217.924147 
L 314.051721 217.850622 
L 314.077698 217.703571 
L 314.285519 217.630046 
L 314.285519 217.556521 
L 314.350463 217.556521 
L 314.727138 217.482995 
L 314.792082 217.262419 
L 315.259678 217.188894 
L 315.337611 216.894793 
L 315.480487 216.821268 
L 315.519454 216.527167 
L 315.623364 216.453641 
L 315.688308 216.306591 
L 315.88314 216.233065 
L 315.98705 215.938964 
L 316.181882 215.865439 
L 316.324758 215.571338 
L 316.363725 215.497813 
L 316.376714 215.277237 
L 316.532579 215.277237 
L 316.532579 215.130186 
L 316.714422 215.056661 
L 316.818332 214.76256 
L 317.052131 214.689034 
L 317.052131 214.615509 
L 317.207996 214.541984 
L 317.220985 214.394933 
L 317.428805 214.321408 
L 317.428805 214.247883 
L 317.714559 214.174357 
L 317.714559 214.100832 
L 317.922379 214.027307 
L 317.922379 213.953782 
L 318.117211 213.880256 
L 318.208133 213.51263 
L 318.480897 213.439105 
L 318.480897 213.365579 
L 318.584807 213.365579 
L 318.727684 213.292054 
L 318.805617 213.071478 
L 319.039415 212.997953 
L 319.039415 212.924428 
L 319.247235 212.850902 
L 319.364134 212.409751 
L 319.610921 212.336225 
L 319.610921 212.2627 
L 319.753798 212.2627 
L 319.766787 212.042124 
L 320.117484 211.968599 
L 320.221394 211.748023 
L 320.870834 211.674498 
L 320.922789 211.380397 
L 321.01371 211.306871 
L 321.039688 211.159821 
L 321.507284 211.086296 
L 321.533262 210.939245 
L 322.000858 210.86572 
L 322.065802 210.571619 
L 322.19569 210.498093 
L 322.19569 210.424568 
L 322.72823 210.351043 
L 322.780185 210.203992 
L 323.234793 210.130467 
L 323.26077 209.983416 
L 323.923199 209.909891 
L 323.923199 209.836366 
L 324.105042 209.836366 
L 324.208952 209.61579 
L 324.234929 209.61579 
L 324.247918 209.468739 
L 324.819425 209.395214 
L 324.832414 209.248163 
L 324.910346 209.248163 
L 325.053223 209.174638 
L 325.118167 208.733486 
L 325.183111 208.733486 
L 325.183111 208.439385 
L 325.455875 208.36586 
L 325.533808 207.924708 
L 325.780595 207.924708 
L 325.884505 207.557082 
L 326.170259 207.483557 
L 326.248191 207.262981 
L 326.48199 207.189455 
L 326.520956 206.895354 
L 326.611877 206.895354 
L 326.611877 206.748304 
L 326.715788 206.748304 
L 327.066485 206.674778 
L 327.131429 206.527728 
L 327.157406 206.527728 
L 327.209362 206.454203 
L 327.235339 206.307152 
L 327.482126 206.233627 
L 327.482126 206.160101 
L 327.573048 206.160101 
L 327.715924 206.086576 
L 327.754891 205.939526 
L 327.793857 205.939526 
L 327.87179 205.866 
L 327.962711 205.645424 
L 328.170532 205.571899 
L 328.170532 205.424849 
L 328.313408 205.424849 
L 328.313408 205.277798 
L 328.50824 205.204273 
L 328.599162 204.983697 
L 328.72905 204.910172 
L 328.819971 204.763121 
L 328.858937 204.689596 
L 328.93687 204.542545 
L 329.495388 204.46902 
L 329.495388 204.395495 
L 329.807119 204.395495 
L 329.89804 204.174919 
L 330.144827 204.101393 
L 330.209771 203.880818 
L 330.378625 203.807292 
L 330.482536 203.513191 
L 330.573457 203.439666 
L 330.677368 203.21909 
L 330.729323 203.145565 
L 330.729323 203.072039 
L 330.898177 202.998514 
L 330.898177 202.924989 
L 331.18393 202.851464 
L 331.18393 202.777938 
L 331.391751 202.704413 
L 331.495661 202.410312 
L 331.638538 202.336787 
L 331.638538 202.263261 
L 331.781414 202.263261 
L 331.872336 201.96916 
L 331.93728 201.895635 
L 331.950269 201.601534 
L 332.132112 201.528009 
L 332.184067 201.380958 
L 332.300966 201.307433 
L 332.391887 201.086857 
L 332.755573 201.013332 
L 332.833506 200.645705 
L 333.340069 200.57218 
L 333.443979 200.351604 
L 333.612833 200.278079 
L 333.612833 200.204553 
L 334.08043 200.131028 
L 334.171351 199.910452 
L 334.470093 199.836927 
L 334.470093 199.763402 
L 334.638947 199.689876 
L 334.638947 199.616351 
L 334.898723 199.542826 
L 334.963667 199.395775 
L 335.223443 199.32225 
L 335.223443 199.175199 
L 335.613106 199.101674 
L 335.613106 199.028149 
L 335.872882 198.954624 
L 335.950815 198.807573 
L 336.197602 198.734048 
L 336.197602 198.660522 
L 336.418411 198.586997 
L 336.522321 198.366421 
L 336.730142 198.292896 
L 336.730142 198.219371 
L 337.067851 198.145845 
L 337.067851 198.07232 
L 337.275671 197.998795 
L 337.28866 197.851744 
L 337.483492 197.851744 
L 337.483492 197.704694 
L 337.795223 197.631168 
L 337.886144 197.337067 
L 338.106953 197.263542 
L 338.132931 197.116491 
L 338.626505 197.042966 
L 338.717426 196.748865 
L 339.042146 196.67534 
L 339.081112 196.454764 
L 339.159045 196.454764 
L 339.159045 196.381239 
L 339.198011 196.234188 
L 339.392843 196.160663 
L 339.444798 196.013612 
L 340.029294 195.940087 
L 340.081249 195.719511 
L 340.328036 195.719511 
L 340.328036 195.498935 
L 340.626778 195.42541 
L 340.626778 195.351885 
L 340.990464 195.278359 
L 341.02943 195.131309 
L 341.406105 195.057783 
L 341.419094 194.910733 
L 341.899679 194.910733 
L 341.990601 194.690157 
L 342.1075 194.616632 
L 342.1075 194.543106 
L 342.328309 194.469581 
L 342.328309 194.396056 
L 342.497163 194.322531 
L 342.497163 194.249005 
L 342.899816 194.17548 
L 342.899816 194.101955 
L 343.055681 194.101955 
L 343.055681 194.02843 
L 343.17258 193.881379 
L 343.627188 193.807854 
L 343.627188 193.734328 
L 343.873975 193.660803 
L 343.92593 193.513753 
L 344.107773 193.440227 
L 344.107773 193.366702 
L 344.549392 193.293177 
L 344.549392 193.146126 
L 344.835145 193.072601 
L 344.926066 192.704974 
L 345.198831 192.631449 
L 345.302741 192.410873 
L 345.393663 192.337348 
L 345.41964 192.190297 
L 345.614472 192.116772 
L 345.614472 192.043247 
L 345.965169 191.969722 
L 345.965169 191.896196 
L 346.484721 191.822671 
L 346.484721 191.749146 
L 346.991283 191.67562 
L 347.082205 191.52857 
L 347.536812 191.455045 
L 347.588768 191.307994 
L 347.939465 191.234469 
L 347.939465 191.160943 
L 348.199241 191.087418 
L 348.277173 190.793317 
L 348.355106 190.719792 
L 348.355106 190.572741 
L 348.861669 190.499216 
L 348.926613 190.352165 
L 349.147422 190.27864 
L 349.212366 190.131589 
L 349.420186 190.058064 
L 349.420186 189.984539 
L 349.783872 189.984539 
L 349.783872 189.911014 
L 349.80985 189.763963 
L 349.965716 189.690438 
L 350.030659 189.543387 
L 350.199514 189.469862 
L 350.251469 189.322811 
L 350.706076 189.322811 
L 350.719065 189.102235 
L 350.939874 189.02871 
L 350.939874 188.955185 
L 351.381493 188.88166 
L 351.42046 188.734609 
L 351.706213 188.661084 
L 351.706213 188.587558 
L 351.940011 188.514033 
L 351.940011 188.440508 
L 352.342663 188.366983 
L 352.420596 188.219932 
L 352.602439 188.146407 
L 352.602439 188.072881 
L 353.031069 187.999356 
L 353.096013 187.77878 
L 353.134979 187.77878 
L 353.524643 187.705255 
L 353.615565 187.484679 
L 353.862351 187.411154 
L 353.940284 187.190578 
L 353.966262 187.190578 
L 354.135116 187.117053 
L 354.20006 186.970002 
L 355.005365 186.896477 
L 355.083297 186.602376 
L 355.628826 186.52885 
L 355.680782 186.3818 
L 355.797681 186.3818 
L 355.797681 186.234749 
L 355.836647 186.234749 
L 356.135389 186.161224 
L 356.135389 186.087699 
L 356.369187 186.014173 
L 356.434131 185.867123 
L 356.538041 185.793598 
L 356.641952 185.499497 
L 356.966671 185.425971 
L 357.070582 185.278921 
L 357.187481 185.205395 
L 357.213458 185.058345 
L 357.434268 184.98482 
L 357.5122 184.837769 
L 358.135662 184.764244 
L 358.135662 184.617193 
L 358.746135 184.543668 
L 358.746135 184.470143 
L 358.902001 184.396617 
L 358.992922 184.249567 
L 359.486496 184.249567 
L 359.538451 184.028991 
L 360.096969 183.955466 
L 360.096969 183.88194 
L 360.265823 183.808415 
L 360.278812 183.661364 
L 360.447666 183.587839 
L 360.447666 183.440789 
L 360.928251 183.367263 
L 360.94124 183.220213 
L 361.201016 183.146687 
L 361.201016 183.073162 
L 361.317915 183.073162 
L 361.36987 182.852586 
L 361.733556 182.779061 
L 361.733556 182.705536 
L 361.90241 182.63201 
L 361.941377 182.48496 
L 362.357018 182.411435 
L 362.357018 182.337909 
L 362.798637 182.264384 
L 362.876569 182.043808 
L 363.019446 181.970283 
L 363.123356 181.823232 
L 363.253244 181.749707 
L 363.357154 181.529131 
L 363.746818 181.455606 
L 363.746818 181.382081 
L 363.980616 181.308555 
L 364.04556 181.161505 
L 364.201426 181.087979 
L 364.201426 181.014454 
L 364.487179 180.940929 
L 364.565112 180.646828 
L 364.811898 180.573302 
L 364.811898 180.499777 
L 364.980753 180.426252 
L 365.032708 180.205676 
L 365.214551 180.132151 
L 365.214551 180.058625 
L 365.292484 180.058625 
L 365.630192 179.9851 
L 365.630192 179.83805 
L 365.876979 179.83805 
L 365.876979 179.690999 
L 366.331586 179.617474 
L 366.331586 179.543948 
L 366.565385 179.470423 
L 366.630329 179.323373 
L 367.019992 179.249847 
L 367.032981 179.176322 
L 367.409656 179.102797 
L 367.409656 179.029271 
L 367.721387 178.955746 
L 367.812308 178.73517 
L 367.929207 178.661645 
L 367.955185 178.514594 
L 368.00714 178.514594 
L 368.188983 178.514594 
L 368.240938 178.220493 
L 368.396804 178.146968 
L 368.461747 177.852867 
L 369.319007 177.779342 
L 369.370963 177.558766 
L 369.734649 177.485241 
L 369.734649 177.411715 
L 369.916492 177.33819 
L 369.994424 177.191139 
L 370.2542 177.117614 
L 370.293166 176.897038 
L 370.500987 176.897038 
L 370.604897 176.676462 
L 370.903639 176.602937 
L 370.942606 176.161785 
L 371.202381 176.08826 
L 371.202381 176.014735 
L 371.410202 176.014735 
L 371.410202 175.794159 
L 371.903776 175.720634 
L 371.903776 175.647108 
L 372.345395 175.573583 
L 372.345395 175.500058 
L 372.800002 175.426533 
L 372.890924 175.279482 
L 373.202655 175.205957 
L 373.241621 174.985381 
L 373.553352 174.911856 
L 373.592318 174.764805 
L 373.943015 174.69128 
L 373.943015 174.617754 
L 374.098881 174.617754 
L 374.202791 174.323653 
L 374.488544 174.250128 
L 374.527511 174.103077 
L 374.553488 174.103077 
L 374.774298 174.029552 
L 374.774298 173.956027 
L 375.488681 173.882502 
L 375.514659 173.735451 
L 376.164098 173.735451 
L 376.164098 173.5884 
L 376.553761 173.514875 
L 376.553761 173.44135 
L 376.735604 173.367825 
L 376.735604 173.294299 
L 376.878481 173.220774 
L 376.930436 173.073723 
L 377.333089 173.000198 
L 377.42401 172.779622 
L 377.74873 172.779622 
L 377.813674 172.411996 
L 377.95655 172.338471 
L 378.021494 172.19142 
L 378.060461 172.19142 
L 378.242304 172.117895 
L 378.242304 172.044369 
L 378.683922 171.970844 
L 378.683922 171.897319 
L 379.13853 171.823794 
L 379.13853 171.750268 
L 379.229451 171.750268 
L 379.255429 171.603218 
L 379.800958 171.529692 
L 379.89188 171.382642 
L 380.164644 171.309117 
L 380.164644 171.235591 
L 380.346487 171.162066 
L 380.346487 171.088541 
L 380.736151 171.015015 
L 380.736151 170.94149 
L 380.917994 170.867965 
L 380.917994 170.79444 
L 381.164781 170.720914 
L 381.164781 170.647389 
L 381.38559 170.573864 
L 381.4895 170.279763 
L 381.645366 170.206237 
L 381.71031 169.985661 
L 381.892153 169.912136 
L 381.957097 169.618035 
L 382.13894 169.54451 
L 382.164917 169.323934 
L 382.853323 169.250409 
L 382.853323 169.176883 
L 383.385863 169.103358 
L 383.385863 169.029833 
L 383.567706 169.029833 
L 383.567706 168.882782 
L 383.892426 168.809257 
L 383.918403 168.588681 
L 384.074269 168.515156 
L 384.087258 168.368105 
L 384.437955 168.29458 
L 384.515888 168.074004 
L 384.866585 168.000479 
L 384.931529 167.779903 
L 385.02245 167.706378 
L 385.087394 167.412277 
L 385.386136 167.338751 
L 385.386136 167.265226 
L 386.165463 167.191701 
L 386.178452 167.04465 
L 386.555127 166.971125 
L 386.594093 166.824074 
L 386.710993 166.824074 
L 386.710993 166.677024 
L 387.100656 166.603498 
L 387.204566 166.382923 
L 387.438365 166.309397 
L 387.438365 166.235872 
L 387.607219 166.162347 
L 387.607219 166.088821 
L 387.776073 166.015296 
L 387.776073 165.941771 
L 388.230681 165.868246 
L 388.243669 165.64767 
L 388.633333 165.574144 
L 388.724254 165.280043 
L 389.230817 165.206518 
L 389.30875 165.059467 
L 389.73738 164.985942 
L 389.84129 164.618316 
L 390.204976 164.54479 
L 390.295898 164.250689 
L 390.503718 164.177164 
L 390.503718 164.103639 
L 391.062236 164.030113 
L 391.062236 163.956588 
L 391.490866 163.883063 
L 391.568799 163.736012 
L 391.646731 163.662487 
L 391.646731 163.588962 
L 392.049384 163.515436 
L 392.049384 163.441911 
L 392.400081 163.368386 
L 392.478014 163.221335 
L 393.244352 163.14781 
L 393.257341 163.000759 
L 393.595049 162.927234 
L 393.595049 162.853709 
L 393.997702 162.780184 
L 394.101612 162.559608 
L 394.218511 162.486082 
L 394.270466 162.339032 
L 394.530242 162.265507 
L 394.530242 162.191981 
L 395.023816 162.118456 
L 395.023816 162.044931 
L 395.049793 162.044931 
L 395.868087 161.971405 
L 395.881076 161.75083 
L 396.270739 161.677304 
L 396.335683 161.456728 
L 396.37465 161.456728 
L 396.764313 161.383203 
L 396.829257 161.236153 
L 397.218921 161.162627 
L 397.322831 161.015577 
L 397.634562 160.942051 
L 397.634562 160.868526 
L 398.232046 160.795001 
L 398.284001 160.64795 
L 399.024362 160.574425 
L 399.076317 160.280324 
L 399.193216 160.280324 
L 399.219194 160.059748 
L 399.452992 159.986223 
L 399.452992 159.912698 
L 399.725757 159.839172 
L 399.725757 159.765647 
L 399.881622 159.692122 
L 399.985532 159.545071 
L 400.349218 159.471546 
L 400.349218 159.398021 
L 400.790837 159.324495 
L 400.855781 159.030394 
L 401.011646 158.956869 
L 401.115557 158.809818 
L 401.531198 158.736293 
L 401.531198 158.662768 
L 401.713041 158.589242 
L 401.713041 158.515717 
L 402.102705 158.442192 
L 402.141671 158.295141 
L 402.193626 158.295141 
L 402.401447 158.221616 
L 402.401447 158.148091 
L 403.050886 158.074565 
L 403.050886 158.00104 
L 403.414572 157.927515 
L 403.414572 157.85399 
L 403.622393 157.85399 
L 403.622393 157.706939 
L 404.167922 157.633414 
L 404.167922 157.559888 
L 404.596552 157.486363 
L 404.596552 157.412838 
L 404.83035 157.339313 
L 404.83035 157.265787 
L 405.245991 157.192262 
L 405.245991 157.118737 
L 405.570711 157.045211 
L 405.570711 156.898161 
L 405.960374 156.824636 
L 405.99934 156.677585 
L 406.389004 156.60406 
L 406.389004 156.530534 
L 406.674757 156.457009 
L 406.674757 156.383484 
L 407.532017 156.309959 
L 407.532017 156.236433 
L 408.428244 156.162908 
L 408.428244 156.089383 
L 409.012739 156.015857 
L 409.012739 155.942332 
L 409.402403 155.868807 
L 409.454358 155.721756 
L 409.714133 155.648231 
L 409.714133 155.574706 
L 410.064831 155.50118 
L 410.064831 155.427655 
L 410.194719 155.427655 
L 410.194719 155.280605 
L 410.415528 155.207079 
L 410.415528 155.133554 
L 411.026001 155.060029 
L 411.026001 154.986503 
L 411.103934 154.986503 
L 411.597507 154.912978 
L 411.623485 154.765928 
L 411.805328 154.692402 
L 411.805328 154.618877 
L 412.32488 154.545352 
L 412.402812 154.398301 
L 412.85742 154.324776 
L 412.883397 154.177725 
L 412.922364 154.177725 
L 413.428926 154.1042 
L 413.428926 154.030675 
L 413.467893 154.030675 
L 413.571803 153.957149 
L 413.571803 153.883624 
L 413.9225 153.810099 
L 413.9225 153.736574 
L 414.104343 153.663048 
L 414.104343 153.589523 
L 414.14331 153.589523 
L 414.24722 153.515998 
L 414.24722 153.442472 
L 414.481018 153.368947 
L 414.57194 153.074846 
L 415.195401 153.001321 
L 415.195401 152.927795 
L 415.572076 152.85427 
L 415.572076 152.780745 
L 416.06565 152.70722 
L 416.06565 152.633694 
L 416.49428 152.560169 
L 416.59819 152.119017 
L 416.780033 152.045492 
L 416.870955 151.898442 
L 416.883944 151.898442 
L 417.078775 151.824916 
L 417.078775 151.751391 
L 417.195674 151.751391 
L 417.195674 151.60434 
L 417.637293 151.530815 
L 417.637293 151.383765 
L 417.819136 151.310239 
L 417.819136 151.236714 
L 418.975138 151.163189 
L 418.975138 151.089663 
L 419.105026 151.089663 
L 419.16997 150.869088 
L 419.624578 150.795562 
L 419.663544 150.648512 
L 419.962286 150.574986 
L 419.962286 150.501461 
L 420.819546 150.427936 
L 420.819546 150.354411 
L 420.845523 150.354411 
L 420.9884 150.280885 
L 421.014378 150.133835 
L 422.300268 150.060309 
L 422.3782 149.839734 
L 422.560043 149.766208 
L 422.573032 149.692683 
L 422.793841 149.619158 
L 422.793841 149.545632 
L 423.248449 149.472107 
L 423.300404 149.178006 
L 424.131686 149.178006 
L 424.183642 148.95743 
L 424.222608 148.95743 
L 424.352496 148.95743 
L 424.365485 148.736854 
L 424.586294 148.663329 
L 424.677215 148.516278 
L 424.988946 148.442753 
L 424.988946 148.369228 
L 425.469531 148.295703 
L 425.48252 148.222177 
L 425.716318 148.148652 
L 425.716318 148.075127 
L 426.080004 148.001601 
L 426.118971 147.854551 
L 427.054163 147.781026 
L 427.054163 147.7075 
L 427.456816 147.633975 
L 427.456816 147.56045 
L 427.677625 147.486924 
L 427.677625 147.413399 
L 428.495919 147.339874 
L 428.599829 147.119298 
L 428.703739 147.045773 
L 428.703739 146.972247 
L 428.989493 146.898722 
L 428.989493 146.825197 
L 429.028459 146.825197 
L 429.366167 146.751672 
L 429.366167 146.678146 
L 430.574125 146.604621 
L 430.574125 146.531096 
L 430.665046 146.531096 
L 430.963788 146.45757 
L 430.963788 146.384045 
L 431.48334 146.31052 
L 431.48334 146.236995 
L 431.69116 146.163469 
L 431.704149 146.016419 
L 431.950936 146.016419 
L 431.950936 145.869368 
L 432.275656 145.795843 
L 432.314622 145.648792 
L 433.119927 145.575267 
L 433.119927 145.501742 
L 433.353725 145.428216 
L 433.392691 145.281166 
L 433.444646 145.281166 
L 433.951209 145.207641 
L 433.964198 145.134115 
L 434.094086 145.06059 
L 434.107074 144.913539 
L 434.26294 144.840014 
L 434.26294 144.766489 
L 434.457772 144.692964 
L 434.522716 144.545913 
L 435.172155 144.472388 
L 435.172155 144.398862 
L 435.431931 144.325337 
L 435.509863 144.178287 
L 435.925505 144.104761 
L 435.925505 144.031236 
L 436.484022 143.957711 
L 436.548966 143.66361 
L 436.83472 143.590084 
L 436.899664 143.369509 
L 437.26335 143.295983 
L 437.26335 143.222458 
L 437.47117 143.148933 
L 437.47117 143.075407 
L 438.120609 143.001882 
L 438.120609 142.928357 
L 438.536251 142.854832 
L 438.614183 142.707781 
L 438.86097 142.634256 
L 438.86097 142.56073 
L 439.237645 142.487205 
L 439.237645 142.41368 
L 439.627309 142.340155 
L 439.627309 142.266629 
L 440.14686 142.193104 
L 440.14686 142.119579 
L 440.341692 142.119579 
L 440.341692 141.972528 
L 440.562501 141.899003 
L 440.627445 141.751952 
L 441.030098 141.678427 
L 441.030098 141.604902 
L 441.134008 141.604902 
L 441.172974 141.531376 
L 441.75747 141.457851 
L 441.770459 141.310801 
L 441.796436 141.310801 
L 442.238055 141.237275 
L 442.238055 141.16375 
L 442.692662 141.090225 
L 442.770595 140.943174 
L 442.861517 140.869649 
L 442.965427 140.649073 
L 443.835676 140.575548 
L 443.939586 140.428497 
L 444.264306 140.354972 
L 444.264306 140.281447 
L 444.783857 140.207921 
L 444.783857 140.134396 
L 445.368352 140.060871 
L 445.420308 139.91382 
L 445.576173 139.840295 
L 445.576173 139.76677 
L 445.991814 139.693244 
L 446.043769 139.472668 
L 446.862063 139.399143 
L 446.862063 139.325618 
L 447.21276 139.252093 
L 447.21276 139.178567 
L 447.277704 139.178567 
L 448.407728 139.105042 
L 448.459684 138.884466 
L 448.680493 138.810941 
L 448.758426 138.66389 
L 448.82337 138.590365 
L 448.82337 138.51684 
L 449.589708 138.443314 
L 449.615686 138.296264 
L 449.875461 138.222739 
L 449.875461 138.149213 
L 450.21317 138.075688 
L 450.21317 138.002163 
L 450.356046 137.928637 
L 450.408002 137.781587 
L 451.096407 137.708062 
L 451.096407 137.634536 
L 451.187329 137.634536 
L 451.434116 137.561011 
L 451.434116 137.41396 
L 451.875734 137.340435 
L 451.875734 137.26691 
L 452.291376 137.193385 
L 452.291376 137.119859 
L 453.278523 137.046334 
L 453.278523 136.972809 
L 453.681176 136.899283 
L 453.798075 136.752233 
L 453.901985 136.678708 
L 453.901985 136.605182 
L 454.17475 136.531657 
L 454.200727 136.458132 
L 455.03201 136.384606 
L 455.03201 136.311081 
L 455.23983 136.237556 
L 455.23983 136.164031 
L 455.291785 136.164031 
L 456.188012 136.090505 
L 456.252955 135.943455 
L 456.278933 135.943455 
L 456.863428 135.869929 
L 456.863428 135.796404 
L 457.499879 135.722879 
L 457.538845 135.575828 
L 458.084374 135.502303 
L 458.084374 135.428778 
L 458.487027 135.355253 
L 458.487027 135.281727 
L 458.746802 135.208202 
L 458.77278 135.061151 
L 458.850713 135.061151 
L 459.396242 134.987626 
L 459.396242 134.914101 
L 459.95476 134.840576 
L 459.95476 134.76705 
L 460.837997 134.693525 
L 460.928919 134.472949 
L 461.357549 134.399424 
L 461.357549 134.252373 
L 461.968022 134.178848 
L 461.968022 134.105323 
L 462.058943 134.105323 
L 462.396651 134.031797 
L 462.448607 133.884747 
L 463.318855 133.811222 
L 463.318855 133.737696 
L 464.202093 133.664171 
L 464.202093 133.590646 
L 464.422902 133.51712 
L 464.422902 133.443595 
L 466.020523 133.37007 
L 466.098456 133.223019 
L 466.721917 133.149494 
L 466.721917 133.075969 
L 467.059626 133.002443 
L 467.059626 132.928918 
L 468.137695 132.855393 
L 468.137695 132.781868 
L 468.579314 132.708342 
L 468.579314 132.634817 
L 468.865067 132.561292 
L 468.865067 132.487766 
L 469.540484 132.414241 
L 469.605428 132.267191 
L 469.644394 132.267191 
L 469.969114 132.193665 
L 469.995092 132.046615 
L 470.163946 132.046615 
L 470.163946 131.899564 
L 470.254867 131.899564 
L 471.436847 131.826039 
L 471.501791 131.678988 
L 471.61869 131.678988 
L 471.61869 131.531938 
L 472.709748 131.458412 
L 472.722737 131.311362 
L 474.255414 131.237837 
L 474.255414 131.164311 
L 474.359324 131.164311 
L 474.541167 131.090786 
L 474.541167 131.017261 
L 475.671191 130.943735 
L 475.775102 130.649634 
L 476.21672 130.576109 
L 476.229709 130.502584 
L 476.450518 130.429058 
L 476.554429 130.282008 
L 476.632361 130.208483 
L 476.658339 129.987907 
L 477.009036 129.914381 
L 477.009036 129.840856 
L 477.450655 129.767331 
L 477.450655 129.693806 
L 477.892274 129.62028 
L 477.905263 129.546755 
L 478.489758 129.47323 
L 478.593668 129.326179 
L 478.840455 129.252654 
L 478.840455 129.179129 
L 479.515872 129.105603 
L 479.619782 128.958553 
L 479.801625 128.885027 
L 479.814614 128.664452 
L 480.490031 128.590926 
L 480.490031 128.517401 
L 481.087515 128.443876 
L 481.230392 128.37035 
L 481.581089 128.296825 
L 481.581089 128.2233 
L 482.918934 128.149775 
L 482.918934 128.076249 
L 483.932059 128.002724 
L 483.932059 127.929199 
L 484.490577 127.855673 
L 484.490577 127.782148 
L 484.906218 127.708623 
L 484.945185 127.561572 
L 485.737501 127.488047 
L 485.828422 127.340997 
L 486.023254 127.267471 
L 486.023254 127.193946 
L 486.334985 127.120421 
L 486.373951 126.97337 
L 487.477998 126.899845 
L 487.477998 126.82632 
L 488.452157 126.752794 
L 488.452157 126.679269 
L 488.543079 126.679269 
L 489.049641 126.605744 
L 489.049641 126.532218 
L 489.647126 126.458693 
L 489.686092 126.311643 
L 490.192655 126.238117 
L 490.283576 126.091067 
L 490.426453 126.017541 
L 490.426453 125.944016 
L 491.361645 125.870491 
L 491.361645 125.796966 
L 492.881333 125.72344 
L 492.946277 125.57639 
L 494.102279 125.502864 
L 494.102279 125.429339 
L 494.465965 125.355814 
L 494.465965 125.282289 
L 495.154371 125.208763 
L 495.16736 125.135238 
L 495.959676 125.061713 
L 495.959676 124.988187 
L 496.102552 124.914662 
L 496.102552 124.841137 
L 496.193474 124.841137 
L 496.66107 124.767612 
L 496.66107 124.694086 
L 497.0897 124.620561 
L 497.0897 124.547036 
L 498.401568 124.47351 
L 498.401568 124.399985 
L 499.388715 124.32646 
L 499.401704 124.179409 
L 500.323908 124.105884 
L 500.323908 124.032359 
L 500.687594 123.958833 
L 500.687594 123.885308 
L 501.505888 123.811783 
L 501.557843 123.664732 
L 501.830607 123.591207 
L 501.830607 123.517682 
L 502.220271 123.444156 
L 502.246248 123.223581 
L 502.311192 123.223581 
L 503.142475 123.150055 
L 503.155464 123.003005 
L 503.895824 122.929479 
L 503.895824 122.855954 
L 503.986746 122.855954 
L 504.921938 122.782429 
L 504.921938 122.708904 
L 505.610344 122.635378 
L 505.675288 122.488328 
L 505.87012 122.414802 
L 505.87012 122.341277 
L 506.220817 122.267752 
L 506.220817 122.120701 
L 507.013133 122.047176 
L 507.091066 121.8266 
L 507.714528 121.753075 
L 507.714528 121.67955 
L 508.428911 121.606024 
L 508.428911 121.532499 
L 508.844552 121.458974 
L 508.844552 121.311923 
L 508.909496 121.311923 
L 509.325137 121.238398 
L 509.325137 121.164873 
L 509.390081 121.164873 
L 509.93561 121.091347 
L 509.93561 121.017822 
L 510.026532 121.017822 
L 511.364377 120.944297 
L 511.364377 120.870771 
L 512.143704 120.797246 
L 512.143704 120.723721 
L 512.169681 120.723721 
L 512.598311 120.650196 
L 512.598311 120.57667 
L 512.93602 120.503145 
L 512.93602 120.42962 
L 513.247751 120.356094 
L 513.247751 120.282569 
L 513.312695 120.282569 
L 513.923168 120.209044 
L 513.923168 120.135519 
L 515.325956 120.061993 
L 515.338945 119.988468 
L 515.728609 119.914943 
L 515.728609 119.841417 
L 517.131398 119.767892 
L 517.131398 119.694367 
L 518.625108 119.620842 
L 518.625108 119.547316 
L 519.157648 119.473791 
L 519.222592 119.32674 
L 520.729292 119.253215 
L 520.729292 119.17969 
L 521.365742 119.106165 
L 521.365742 119.032639 
L 521.898282 119.032639 
L 521.937249 118.812064 
L 522.365879 118.738538 
L 522.365879 118.665013 
L 522.391856 118.665013 
L 524.573972 118.591488 
L 524.612939 118.444437 
L 525.613075 118.370912 
L 525.716986 118.223861 
L 526.223548 118.150336 
L 526.236537 118.003285 
L 526.561257 117.92976 
L 526.561257 117.856235 
L 527.301618 117.78271 
L 527.301618 117.709184 
L 527.470472 117.635659 
L 527.470472 117.562134 
L 527.561393 117.562134 
L 529.081081 117.488608 
L 529.081081 117.415083 
L 529.133037 117.415083 
L 529.717532 117.341558 
L 529.717532 117.268033 
L 531.548951 117.194507 
L 531.548951 117.120982 
L 532.899785 117.047457 
L 532.899785 116.973931 
L 533.341403 116.973931 
L 533.354392 116.753356 
L 534.640282 116.67983 
L 534.640282 116.606305 
L 534.822125 116.53278 
L 534.822125 116.459254 
L 535.1988 116.385729 
L 535.289721 116.165153 
L 535.354665 116.091628 
L 535.354665 116.018103 
L 536.575611 115.944577 
L 536.575611 115.871052 
L 539.186357 115.797527 
L 539.212335 115.576951 
L 540.251438 115.503426 
L 540.251438 115.4299 
L 540.822944 115.356375 
L 540.822944 115.209325 
L 541.368473 115.209325 
L 541.40744 114.988749 
L 541.784115 114.915223 
L 541.784115 114.841698 
L 542.849195 114.768173 
L 542.849195 114.694648 
L 544.94039 114.621122 
L 544.94039 114.547597 
L 546.291223 114.474072 
L 546.291223 114.400546 
L 547.005607 114.327021 
L 547.005607 114.179971 
L 548.460351 114.106445 
L 548.460351 113.959395 
L 549.083813 113.885869 
L 549.083813 113.812344 
L 550.278781 113.738819 
L 550.278781 113.665294 
L 550.681433 113.591768 
L 550.694422 113.518243 
L 552.175144 113.444718 
L 552.175144 113.371192 
L 553.318157 113.297667 
L 553.318157 113.224142 
L 553.409078 113.224142 
L 553.759776 113.150617 
L 553.759776 113.077091 
L 554.591058 113.003566 
L 554.591058 112.930041 
L 555.695105 112.856515 
L 555.695105 112.78299 
L 557.123871 112.709465 
L 557.123871 112.63594 
L 557.188815 112.63594 
L 559.721629 112.562414 
L 559.721629 112.488889 
L 559.786573 112.488889 
L 560.007382 112.415364 
L 560.007382 112.341838 
L 560.059337 112.341838 
L 560.539922 112.268313 
L 560.539922 112.194788 
L 561.42316 112.121263 
L 561.488104 112.047737 
L 563.202624 111.974212 
L 563.202624 111.900687 
L 563.618265 111.827161 
L 563.644242 111.680111 
L 565.410717 111.606586 
L 565.410717 111.53306 
L 565.995213 111.459535 
L 565.995213 111.312484 
L 566.060157 111.312484 
L 566.55373 111.238959 
L 566.55373 111.165434 
L 567.047304 111.165434 
L 567.060293 111.018383 
L 567.761688 110.944858 
L 567.761688 110.871333 
L 568.48906 110.797807 
L 568.48906 110.724282 
L 568.541015 110.724282 
L 569.216432 110.650757 
L 569.216432 110.577232 
L 570.606232 110.503706 
L 570.606232 110.430181 
L 570.697153 110.430181 
L 571.684301 110.356656 
L 571.684301 110.283131 
L 573.385832 110.209605 
L 573.385832 110.13608 
L 576.048533 110.062555 
L 576.048533 109.989029 
L 576.139455 109.989029 
L 577.944896 109.915504 
L 577.944896 109.841979 
L 577.970874 109.841979 
L 578.607324 109.768454 
L 578.607324 109.694928 
L 579.386652 109.621403 
L 579.39964 109.474352 
L 579.425618 109.474352 
L 579.854248 109.400827 
L 579.854248 109.327302 
L 580.672541 109.253777 
L 580.724497 109.106726 
L 581.750611 109.033201 
L 581.750611 108.959675 
L 582.114297 108.88615 
L 582.114297 108.812625 
L 583.854794 108.7391 
L 583.854794 108.665574 
L 584.478256 108.592049 
L 584.569177 108.444998 
L 585.127695 108.371473 
L 585.153673 108.224423 
L 586.725316 108.150897 
L 586.725316 108.077372 
L 587.42671 108.003847 
L 587.42671 107.930321 
L 589.816647 107.856796 
L 589.816647 107.783271 
L 589.907569 107.783271 
L 591.453234 107.709746 
L 591.453234 107.63622 
L 591.998763 107.562695 
L 591.998763 107.48917 
L 592.67418 107.415644 
L 592.67418 107.342119 
L 593.570406 107.268594 
L 593.570406 107.195069 
L 594.375711 107.121543 
L 594.375711 107.048018 
L 594.479621 107.048018 
L 595.999309 106.974493 
L 595.999309 106.900967 
L 596.077242 106.900967 
L 601.493566 106.827442 
L 601.493566 106.753917 
L 601.935185 106.753917 
L 601.961162 106.533341 
L 602.597613 106.459816 
L 602.597613 106.38629 
L 603.363951 106.312765 
L 603.441884 106.165715 
L 603.987413 106.092189 
L 604.013391 105.945139 
L 604.091323 105.945139 
L 604.597886 105.871613 
L 604.623864 105.798088 
L 606.624137 105.724563 
L 606.624137 105.651038 
L 608.5205 105.577512 
L 608.5205 105.503987 
L 610.728593 105.430462 
L 610.728593 105.356936 
L 611.83264 105.283411 
L 611.83264 105.209886 
L 611.884595 105.209886 
L 614.274532 105.136361 
L 614.274532 105.062835 
L 615.664332 104.98931 
L 615.79422 104.915785 
L 616.989188 104.842259 
L 616.989188 104.768734 
L 617.067121 104.768734 
L 620.963757 104.695209 
L 620.963757 104.621684 
L 621.04169 104.621684 
L 622.119759 104.548158 
L 622.119759 104.474633 
L 623.535537 104.401108 
L 623.535537 104.327582 
L 625.366956 104.254057 
L 625.366956 104.180532 
L 625.847541 104.107007 
L 625.847541 104.033481 
L 629.263592 103.959956 
L 629.302558 103.812905 
L 632.991373 103.73938 
L 632.991373 103.665855 
L 635.757985 103.59233 
L 635.80994 103.445279 
L 637.043875 103.371754 
L 637.09583 103.224703 
L 639.459789 103.151178 
L 639.459789 103.077653 
L 639.537722 103.077653 
L 640.40797 103.004127 
L 640.40797 102.930602 
L 643.862988 102.857077 
L 643.862988 102.783551 
L 644.824158 102.710026 
L 644.824158 102.636501 
L 644.915079 102.636501 
L 646.785465 102.562976 
L 646.785465 102.48945 
L 646.876386 102.48945 
L 647.123173 102.415925 
L 647.123173 102.3424 
L 651.799136 102.268874 
L 651.799136 102.195349 
L 653.007093 102.121824 
L 653.072037 101.974773 
L 655.228176 101.901248 
L 655.228176 101.827723 
L 656.25429 101.754198 
L 656.332223 101.607147 
L 660.150926 101.533622 
L 660.150926 101.460096 
L 661.566704 101.386571 
L 661.566704 101.313046 
L 661.618659 101.313046 
L 664.904822 101.239521 
L 664.904822 101.165995 
L 667.242803 101.09247 
L 667.242803 101.018945 
L 670.347123 100.945419 
L 670.347123 100.871894 
L 671.373238 100.798369 
L 671.373238 100.724844 
L 672.776026 100.651318 
L 672.802004 100.504268 
L 675.139986 100.430742 
L 675.139986 100.357217 
L 676.412887 100.283692 
L 676.412887 100.210167 
L 677.98453 100.136641 
L 677.98453 100.063116 
L 679.413296 99.989591 
L 679.413296 99.916065 
L 684.660766 99.84254 
L 684.660766 99.769015 
L 686.959781 99.69549 
L 686.959781 99.621964 
L 689.141897 99.548439 
L 689.141897 99.474914 
L 690.739518 99.401388 
L 690.739518 99.327863 
L 691.414935 99.254338 
L 691.492868 99.107287 
L 693.674984 99.033762 
L 693.674984 98.960237 
L 695.298582 98.886711 
L 695.363526 98.739661 
L 696.922181 98.666136 
L 696.922181 98.59261 
L 697.948295 98.519085 
L 697.948295 98.44556 
L 698.753599 98.372034 
L 698.753599 98.298509 
L 701.650099 98.224984 
L 701.650099 98.151459 
L 702.403448 98.077933 
L 702.403448 98.004408 
L 703.793249 97.930883 
L 703.858193 97.783832 
L 704.429699 97.710307 
L 704.429699 97.636782 
L 705.533746 97.563256 
L 705.533746 97.489731 
L 705.585701 97.489731 
L 706.754692 97.416206 
L 706.767681 97.34268 
L 708.651055 97.269155 
L 708.651055 97.19563 
L 710.573395 97.122105 
L 710.599373 97.048579 
L 710.937081 96.975054 
L 710.937081 96.901529 
L 715.963742 96.828003 
L 715.963742 96.754478 
L 721.081323 96.680953 
L 721.081323 96.607428 
L 725.094858 96.533902 
L 725.094858 96.460377 
L 728.783674 96.386852 
L 728.783674 96.313326 
L 729.822777 96.239801 
L 729.900709 96.092751 
L 731.225566 96.019225 
L 731.225566 95.9457 
L 731.329476 95.9457 
L 731.71914 95.872175 
L 731.71914 95.798649 
L 734.109076 95.725124 
L 734.109076 95.651599 
L 736.888677 95.578074 
L 736.888677 95.504548 
L 737.538116 95.431023 
L 737.538116 95.357498 
L 737.642026 95.357498 
L 739.239647 95.283972 
L 739.239647 95.210447 
L 740.551514 95.136922 
L 740.551514 95.063397 
L 740.616458 95.063397 
L 747.058896 94.989871 
L 747.058896 94.916346 
L 748.877327 94.842821 
L 748.877327 94.769295 
L 752.16349 94.69577 
L 752.16349 94.622245 
L 754.865157 94.54872 
L 754.865157 94.475194 
L 761.658292 94.401669 
L 761.658292 94.328144 
L 761.736225 94.328144 
L 765.619872 94.254618 
L 765.619872 94.181093 
L 765.723783 94.181093 
L 768.516372 94.107568 
L 768.516372 94.034043 
L 768.594304 94.034043 
L 771.802535 93.960517 
L 771.802535 93.886992 
L 773.452111 93.813467 
L 773.452111 93.739942 
L 773.556021 93.739942 
L 774.867888 93.666416 
L 774.867888 93.592891 
L 775.400429 93.519366 
L 775.400429 93.44584 
L 775.478361 93.44584 
L 776.764251 93.372315 
L 776.764251 93.29879 
L 776.816206 93.29879 
L 780.427089 93.225265 
L 780.427089 93.151739 
L 784.80431 93.078214 
L 784.80431 93.004689 
L 786.94746 92.931163 
L 786.94746 92.857638 
L 788.843823 92.784113 
L 788.843823 92.710588 
L 796.26042 92.637062 
L 796.26042 92.563537 
L 800.273955 92.490012 
L 800.273955 92.416486 
L 801.975486 92.342961 
L 801.975486 92.269436 
L 808.911498 92.195911 
L 808.911498 92.122385 
L 817.743873 92.04886 
L 817.743873 91.975335 
L 817.834794 91.975335 
L 819.887022 91.901809 
L 819.887022 91.828284 
L 824.485053 91.754759 
L 824.485053 91.681234 
L 829.083083 91.607708 
L 829.083083 91.534183 
L 829.186994 91.534183 
L 833.330416 91.460658 
L 833.330416 91.387132 
L 837.162108 91.387132 
L 837.162108 91.240082 
L 843.344771 91.166557 
L 843.344771 91.093031 
L 851.670583 91.019506 
L 851.683572 90.945981 
L 853.190271 90.872455 
L 853.190271 90.79893 
L 858.048077 90.725405 
L 858.048077 90.65188 
L 864.178784 90.578354 
L 864.178784 90.504829 
L 864.282695 90.504829 
L 877.102627 90.431304 
L 877.102627 90.357778 
L 877.855977 90.284253 
L 877.855977 90.210728 
L 883.025514 90.137203 
L 883.025514 90.063677 
L 889.766694 89.990152 
L 889.766694 89.843101 
L 889.857615 89.843101 
L 895.001175 89.769576 
L 895.001175 89.696051 
L 900.066801 89.622526 
L 900.066801 89.549 
L 900.144734 89.549 
L 903.495841 89.475475 
L 903.495841 89.40195 
L 906.041643 89.328424 
L 906.041643 89.254899 
L 918.212136 89.181374 
L 918.212136 89.107849 
L 924.225944 89.034323 
L 924.225944 88.960798 
L 933.954545 88.887273 
L 933.954545 88.887273 
" clip-path="url(#pdadfcc7091)" style="fill: none; stroke: #4c72b0; stroke-width: 2; stroke-linecap: round"/>
   </g>
   <g id="line2d_14">
    <path d="M 173.045455 484.232727 
L 933.954545 88.887273 
" clip-path="url(#pdadfcc7091)" style="fill: none; stroke-dasharray: 5.55,2.4; stroke-dashoffset: 0; stroke: #ee82ee; stroke-width: 1.5"/>
   </g>
   <g id="patch_3">
    <path d="M 135 504 
L 135 69.12 
" style="fill: none; stroke: #ffffff; stroke-width: 1.25; stroke-linejoin: miter; stroke-linecap: square"/>
   </g>
   <g id="patch_4">
    <path d="M 972 504 
L 972 69.12 
" style="fill: none; stroke: #ffffff; stroke-width: 1.25; stroke-linejoin: miter; stroke-linecap: square"/>
   </g>
   <g id="patch_5">
    <path d="M 135 504 
L 972 504 
" style="fill: none; stroke: #ffffff; stroke-width: 1.25; stroke-linejoin: miter; stroke-linecap: square"/>
   </g>
   <g id="patch_6">
    <path d="M 135 69.12 
L 972 69.12 
" style="fill: none; stroke: #ffffff; stroke-width: 1.25; stroke-linejoin: miter; stroke-linecap: square"/>
   </g>
   <g id="text_15">
    <!-- ROC curve -->
    <g style="fill: #262626" transform="translate(523.829062 63.12)scale(0.12 -0.12)">
     <defs>
      <path id="ArialMT-52" d="M 503 0 
L 503 4581 
L 2534 4581 
Q 3147 4581 3465 4457 
Q 3784 4334 3975 4021 
Q 4166 3709 4166 3331 
Q 4166 2844 3850 2509 
Q 3534 2175 2875 2084 
Q 3116 1969 3241 1856 
Q 3506 1613 3744 1247 
L 4541 0 
L 3778 0 
L 3172 953 
Q 2906 1366 2734 1584 
Q 2563 1803 2427 1890 
Q 2291 1978 2150 2013 
Q 2047 2034 1813 2034 
L 1109 2034 
L 1109 0 
L 503 0 
z
M 1109 2559 
L 2413 2559 
Q 2828 2559 3062 2645 
Q 3297 2731 3419 2920 
Q 3541 3109 3541 3331 
Q 3541 3656 3305 3865 
Q 3069 4075 2559 4075 
L 1109 4075 
L 1109 2559 
z
" transform="scale(0.015625)"/>
      <path id="ArialMT-4f" d="M 309 2231 
Q 309 3372 921 4017 
Q 1534 4663 2503 4663 
Q 3138 4663 3647 4359 
Q 4156 4056 4423 3514 
Q 4691 2972 4691 2284 
Q 4691 1588 4409 1038 
Q 4128 488 3612 205 
Q 3097 -78 2500 -78 
Q 1853 -78 1343 234 
Q 834 547 571 1087 
Q 309 1628 309 2231 
z
M 934 2222 
Q 934 1394 1379 917 
Q 1825 441 2497 441 
Q 3181 441 3623 922 
Q 4066 1403 4066 2288 
Q 4066 2847 3877 3264 
Q 3688 3681 3323 3911 
Q 2959 4141 2506 4141 
Q 1863 4141 1398 3698 
Q 934 3256 934 2222 
z
" transform="scale(0.015625)"/>
      <path id="ArialMT-43" d="M 3763 1606 
L 4369 1453 
Q 4178 706 3683 314 
Q 3188 -78 2472 -78 
Q 1731 -78 1267 223 
Q 803 525 561 1097 
Q 319 1669 319 2325 
Q 319 3041 592 3573 
Q 866 4106 1370 4382 
Q 1875 4659 2481 4659 
Q 3169 4659 3637 4309 
Q 4106 3959 4291 3325 
L 3694 3184 
Q 3534 3684 3231 3912 
Q 2928 4141 2469 4141 
Q 1941 4141 1586 3887 
Q 1231 3634 1087 3207 
Q 944 2781 944 2328 
Q 944 1744 1114 1308 
Q 1284 872 1643 656 
Q 2003 441 2422 441 
Q 2931 441 3284 734 
Q 3638 1028 3763 1606 
z
" transform="scale(0.015625)"/>
      <path id="ArialMT-63" d="M 2588 1216 
L 3141 1144 
Q 3050 572 2676 248 
Q 2303 -75 1759 -75 
Q 1078 -75 664 370 
Q 250 816 250 1647 
Q 250 2184 428 2587 
Q 606 2991 970 3192 
Q 1334 3394 1763 3394 
Q 2303 3394 2647 3120 
Q 2991 2847 3088 2344 
L 2541 2259 
Q 2463 2594 2264 2762 
Q 2066 2931 1784 2931 
Q 1359 2931 1093 2626 
Q 828 2322 828 1663 
Q 828 994 1084 691 
Q 1341 388 1753 388 
Q 2084 388 2306 591 
Q 2528 794 2588 1216 
z
" transform="scale(0.015625)"/>
     </defs>
     <use xlink:href="#ArialMT-52"/>
     <use xlink:href="#ArialMT-4f" x="72.216797"/>
     <use xlink:href="#ArialMT-43" x="150"/>
     <use xlink:href="#ArialMT-20" x="222.216797"/>
     <use xlink:href="#ArialMT-63" x="250"/>
     <use xlink:href="#ArialMT-75" x="300"/>
     <use xlink:href="#ArialMT-72" x="355.615234"/>
     <use xlink:href="#ArialMT-76" x="388.916016"/>
     <use xlink:href="#ArialMT-65" x="438.916016"/>
    </g>
   </g>
  </g>
 </g>
 <defs>
  <clipPath id="pdadfcc7091">
   <rect x="135" y="69.12" width="837" height="434.88"/>
  </clipPath>
 </defs>
</svg>
